Gemunu-latin-1.ufo
<glyph name="exclam" format="1">
  <advance width="262"/>
  <unicode hex="0021"/>
  <outline>
    <contour>
      <point x="182" y="216" type="line"/>
      <point x="214" y="500" type="line"/>
      <point x="214" y="645" type="line"/>
      <point x="68" y="645" type="line"/>
      <point x="68" y="500" type="line"/>
      <point x="100" y="216" type="line"/>
    </contour>
    <contour>
      <point x="209" y="0" type="line"/>
      <point x="209" y="151" type="line"/>
      <point x="73" y="151" type="line"/>
      <point x="73" y="0" type="line"/>
    </contour>
  </outline>
</glyph>
<glyph name="numbersign" format="1">
  <advance width="527"/>
  <unicode hex="0023"/>
  <outline>
    <contour>
      <point x="53" y="0" type="line"/>
      <point x="176" y="640" type="line"/>
      <point x="280" y="640" type="line"/>
      <point x="158" y="0" type="line"/>
    </contour>
    <contour>
      <point x="245" y="0" type="line"/>
      <point x="368" y="640" type="line"/>
      <point x="472" y="640" type="line"/>
      <point x="350" y="0" type="line"/>
    </contour>
    <contour>
      <point x="62" y="389" type="line"/>
      <point x="62" y="487" type="line"/>
      <point x="512" y="487" type="line"/>
      <point x="512" y="389" type="line"/>
    </contour>
    <contour>
      <point x="15" y="154" type="line"/>
      <point x="15" y="252" type="line"/>
      <point x="465" y="252" type="line"/>
      <point x="465" y="154" type="line"/>
    </contour>
  </outline>
</glyph>
<glyph name="percent" format="1">
  <advance width="808"/>
  <unicode hex="0025"/>
  <outline>
    <contour>
      <point x="24" y="364" type="line" smooth="yes"/>
      <point x="24" y="299"/>
      <point x="56" y="270"/>
      <point x="129" y="270" type="curve" smooth="yes"/>
      <point x="214" y="270" type="line" smooth="yes"/>
      <point x="287" y="270"/>
      <point x="324" y="299"/>
      <point x="323" y="364" type="curve" smooth="yes"/>
      <point x="319" y="550" type="line" smooth="yes"/>
      <point x="318" y="616"/>
      <point x="287" y="645"/>
      <point x="214" y="645" type="curve" smooth="yes"/>
      <point x="129" y="645" type="line" smooth="yes"/>
      <point x="56" y="645"/>
      <point x="24" y="616"/>
      <point x="24" y="550" type="curve" smooth="yes"/>
    </contour>
    <contour>
      <point x="200" y="548" type="line" smooth="yes"/>
      <point x="209" y="548"/>
      <point x="214" y="545"/>
      <point x="214" y="535" type="curve" smooth="yes"/>
      <point x="214" y="380" type="line" smooth="yes"/>
      <point x="214" y="370"/>
      <point x="209" y="367"/>
      <point x="200" y="367" type="curve" smooth="yes"/>
      <point x="143" y="367" type="line" smooth="yes"/>
      <point x="134" y="367"/>
      <point x="129" y="370"/>
      <point x="129" y="380" type="curve" smooth="yes"/>
      <point x="129" y="535" type="line" smooth="yes"/>
      <point x="129" y="545"/>
      <point x="134" y="548"/>
      <point x="143" y="548" type="curve" smooth="yes"/>
    </contour>
    <contour>
      <point x="489" y="84" type="line" smooth="yes"/>
      <point x="489" y="19"/>
      <point x="521" y="-10"/>
      <point x="594" y="-10" type="curve" smooth="yes"/>
      <point x="679" y="-10" type="line" smooth="yes"/>
      <point x="752" y="-10"/>
      <point x="784" y="19"/>
      <point x="784" y="84" type="curve" smooth="yes"/>
      <point x="784" y="270" type="line" smooth="yes"/>
      <point x="784" y="336"/>
      <point x="752" y="365"/>
      <point x="679" y="365" type="curve" smooth="yes"/>
      <point x="594" y="365" type="line" smooth="yes"/>
      <point x="521" y="365"/>
      <point x="489" y="336"/>
      <point x="489" y="270" type="curve" smooth="yes"/>
    </contour>
    <contour>
      <point x="665" y="268" type="line" smooth="yes"/>
      <point x="674" y="268"/>
      <point x="679" y="265"/>
      <point x="679" y="255" type="curve" smooth="yes"/>
      <point x="679" y="100" type="line" smooth="yes"/>
      <point x="679" y="90"/>
      <point x="674" y="87"/>
      <point x="665" y="87" type="curve" smooth="yes"/>
      <point x="608" y="87" type="line" smooth="yes"/>
      <point x="599" y="87"/>
      <point x="594" y="90"/>
      <point x="594" y="100" type="curve" smooth="yes"/>
      <point x="594" y="255" type="line" smooth="yes"/>
      <point x="594" y="265"/>
      <point x="599" y="268"/>
      <point x="608" y="268" type="curve" smooth="yes"/>
    </contour>
    <component base="fraction" xOffset="165"/>
  </outline>
</glyph>
<glyph name="ampersand" format="1">
  <advance width="583"/>
  <unicode hex="0026"/>
  <outline>
    <contour>
      <point x="316" y="-5" type="line" smooth="yes"/>
      <point x="434" y="-5"/>
      <point x="499" y="55"/>
      <point x="499" y="160" type="curve" smooth="yes"/>
      <point x="499" y="232" type="line" smooth="yes"/>
      <point x="499" y="242"/>
      <point x="504" y="246"/>
      <point x="513" y="246" type="curve" smooth="yes"/>
      <point x="561" y="246" type="line"/>
      <point x="563" y="380" type="line"/>
      <point x="526" y="380" type="line" smooth="yes"/>
      <point x="406" y="380"/>
      <point x="351" y="330"/>
      <point x="351" y="225" type="curve" smooth="yes"/>
      <point x="351" y="143" type="line" smooth="yes"/>
      <point x="351" y="133"/>
      <point x="346" y="129"/>
      <point x="337" y="129" type="curve" smooth="yes"/>
      <point x="214" y="129" type="line" smooth="yes"/>
      <point x="205" y="129"/>
      <point x="200" y="133"/>
      <point x="200" y="143" type="curve" smooth="yes"/>
      <point x="200" y="273" type="line" smooth="yes"/>
      <point x="200" y="283"/>
      <point x="205" y="287"/>
      <point x="214" y="287" type="curve" smooth="yes"/>
      <point x="307" y="287" type="line"/>
      <point x="307" y="390" type="line"/>
      <point x="219" y="390" type="line" smooth="yes"/>
      <point x="210" y="390"/>
      <point x="205" y="394"/>
      <point x="205" y="404" type="curve" smooth="yes"/>
      <point x="205" y="492" type="line" smooth="yes"/>
      <point x="205" y="502"/>
      <point x="210" y="506"/>
      <point x="219" y="506" type="curve" smooth="yes"/>
      <point x="332" y="506" type="line" smooth="yes"/>
      <point x="341" y="506"/>
      <point x="346" y="502"/>
      <point x="346" y="492" type="curve" smooth="yes"/>
      <point x="346" y="433" type="line"/>
      <point x="494" y="433" type="line"/>
      <point x="494" y="475" type="line" smooth="yes"/>
      <point x="494" y="580"/>
      <point x="431" y="640"/>
      <point x="311" y="640" type="curve" smooth="yes"/>
      <point x="240" y="640" type="line" smooth="yes"/>
      <point x="120" y="640"/>
      <point x="55" y="580"/>
      <point x="55" y="475" type="curve" smooth="yes"/>
      <point x="55" y="453" type="line" smooth="yes"/>
      <point x="55" y="358"/>
      <point x="130" y="313"/>
      <point x="250" y="313" type="curve"/>
      <point x="250" y="360" type="line"/>
      <point x="116" y="360"/>
      <point x="50" y="315"/>
      <point x="50" y="215" type="curve" smooth="yes"/>
      <point x="50" y="160" type="line" smooth="yes"/>
      <point x="50" y="55"/>
      <point x="115" y="-5"/>
      <point x="235" y="-5" type="curve" smooth="yes"/>
    </contour>
  </outline>
</glyph>
<glyph name="quotesingle" format="1">
  <advance width="180"/>
  <unicode hex="0027"/>
  <outline>
    <contour>
      <point x="35" y="441" type="line"/>
      <point x="35" y="691" type="line"/>
      <point x="135" y="691" type="line"/>
      <point x="135" y="584" type="line"/>
      <point x="97" y="441" type="line"/>
    </contour>
  </outline>
</glyph>
<glyph name="parenleft" format="1">
  <advance width="294"/>
  <unicode hex="0028"/>
  <outline>
    <contour>
      <point x="279" y="-170" type="line"/>
      <point x="279" y="-65" type="line"/>
      <point x="208" y="-65" type="line" smooth="yes"/>
      <point x="199" y="-65"/>
      <point x="194" y="-61"/>
      <point x="194" y="-51" type="curve" smooth="yes"/>
      <point x="194" y="561" type="line" smooth="yes"/>
      <point x="194" y="571"/>
      <point x="199" y="575"/>
      <point x="208" y="575" type="curve" smooth="yes"/>
      <point x="279" y="575" type="line"/>
      <point x="279" y="680" type="line"/>
      <point x="240" y="680" type="line" smooth="yes"/>
      <point x="115" y="680"/>
      <point x="50" y="620"/>
      <point x="50" y="510" type="curve" smooth="yes"/>
      <point x="50" y="0" type="line" smooth="yes"/>
      <point x="50" y="-110"/>
      <point x="115" y="-170"/>
      <point x="240" y="-170" type="curve" smooth="yes"/>
    </contour>
  </outline>
</glyph>
<glyph name="asterisk" format="1">
  <advance width="374"/>
  <unicode hex="002A"/>
  <outline>
    <contour>
      <point x="162" y="412" type="line"/>
      <point x="187" y="486" type="line"/>
      <point x="155" y="508" type="line"/>
      <point x="93" y="462" type="line"/>
      <point x="57" y="411" type="line"/>
      <point x="127" y="361" type="line"/>
    </contour>
    <contour>
      <point x="317" y="412" type="line"/>
      <point x="280" y="461" type="line"/>
      <point x="218" y="508" type="line"/>
      <point x="187" y="486" type="line"/>
      <point x="212" y="412" type="line"/>
      <point x="249" y="363" type="line"/>
    </contour>
    <contour>
      <point x="295" y="508" type="line"/>
      <point x="354" y="528" type="line"/>
      <point x="327" y="609" type="line"/>
      <point x="269" y="590" type="line"/>
      <point x="206" y="545" type="line"/>
      <point x="218" y="508" type="line"/>
    </contour>
    <contour>
      <point x="206" y="545" type="line"/>
      <point x="230" y="618" type="line"/>
      <point x="229" y="680" type="line"/>
      <point x="143" y="680" type="line"/>
      <point x="143" y="617" type="line"/>
      <point x="168" y="545" type="line"/>
    </contour>
    <contour>
      <point x="155" y="508" type="line"/>
      <point x="168" y="545" type="line"/>
      <point x="105" y="589" type="line"/>
      <point x="47" y="608" type="line"/>
      <point x="20" y="526" type="line"/>
      <point x="78" y="507" type="line"/>
    </contour>
  </outline>
</glyph>
<glyph name="plus" format="1">
  <advance width="550"/>
  <unicode hex="002B"/>
  <outline>
    <contour>
      <point x="500" y="349" type="line"/>
      <point x="50" y="349" type="line"/>
      <point x="50" y="249" type="line"/>
      <point x="500" y="249" type="line"/>
    </contour>
    <contour>
      <point x="327" y="79" type="line"/>
      <point x="327" y="519" type="line"/>
      <point x="223" y="519" type="line"/>
      <point x="223" y="79" type="line"/>
    </contour>
  </outline>
</glyph>
<glyph name="comma" format="1">
  <advance width="195"/>
  <unicode hex="002C"/>
  <outline>
    <contour>
      <point x="35" y="2" type="line"/>
      <point x="35" y="135" type="line"/>
      <point x="155" y="135" type="line"/>
      <point x="155" y="23" type="line" smooth="yes"/>
      <point x="155" y="-35"/>
      <point x="126" y="-83"/>
      <point x="79" y="-128" type="curve"/>
      <point x="37" y="-94" type="line"/>
      <point x="64" y="-54"/>
      <point x="75" y="-19"/>
      <point x="75" y="9" type="curve"/>
      <point x="86" y="2" type="line"/>
    </contour>
  </outline>
</glyph>
<glyph name="period" format="1">
  <advance width="180"/>
  <unicode hex="002E"/>
  <outline>
    <contour>
      <point x="150" y="0" type="line"/>
      <point x="150" y="135" type="line"/>
      <point x="30" y="135" type="line"/>
      <point x="30" y="0" type="line"/>
    </contour>
  </outline>
</glyph>
<glyph name="slash" format="1">
  <advance width="460"/>
  <unicode hex="002F"/>
  <outline>
    <contour>
      <point x="318" y="675" type="line"/>
      <point x="10" y="-96" type="line"/>
      <point x="149" y="-96" type="line"/>
      <point x="455" y="675" type="line"/>
    </contour>
  </outline>
</glyph>
<glyph name="zero" format="1">
  <advance width="588"/>
  <unicode hex="0030"/>
  <outline>
    <contour>
      <point x="359" y="512" type="line" smooth="yes"/>
      <point x="368" y="512"/>
      <point x="373" y="508"/>
      <point x="373" y="498" type="curve" smooth="yes"/>
      <point x="373" y="137" type="line" smooth="yes"/>
      <point x="373" y="127"/>
      <point x="368" y="123"/>
      <point x="359" y="123" type="curve" smooth="yes"/>
      <point x="229" y="123" type="line" smooth="yes"/>
      <point x="220" y="123"/>
      <point x="215" y="127"/>
      <point x="215" y="137" type="curve" smooth="yes"/>
      <point x="215" y="498" type="line" smooth="yes"/>
      <point x="215" y="508"/>
      <point x="220" y="512"/>
      <point x="229" y="512" type="curve" smooth="yes"/>
    </contour>
    <contour>
      <point x="65" y="150" type="line" smooth="yes"/>
      <point x="65" y="45"/>
      <point x="125" y="-10"/>
      <point x="245" y="-10" type="curve" smooth="yes"/>
      <point x="343" y="-10" type="line" smooth="yes"/>
      <point x="463" y="-10"/>
      <point x="523" y="45"/>
      <point x="523" y="150" type="curve" smooth="yes"/>
      <point x="523" y="485" type="line" smooth="yes"/>
      <point x="523" y="590"/>
      <point x="463" y="645"/>
      <point x="343" y="645" type="curve" smooth="yes"/>
      <point x="245" y="645" type="line" smooth="yes"/>
      <point x="125" y="645"/>
      <point x="65" y="590"/>
      <point x="65" y="485" type="curve" smooth="yes"/>
    </contour>
  </outline>
</glyph>
<glyph name="one" format="1">
  <advance width="459"/>
  <unicode hex="0031"/>
  <outline>
    <contour>
      <point x="439" y="119" type="line"/>
      <point x="58" y="119" type="line"/>
      <point x="58" y="0" type="line"/>
      <point x="439" y="0" type="line"/>
    </contour>
    <contour>
      <point x="12" y="515" type="line"/>
      <point x="72" y="413" type="line"/>
      <point x="204" y="487" type="line"/>
      <point x="195" y="490" type="line"/>
      <point x="195" y="0" type="line"/>
      <point x="343" y="0" type="line"/>
      <point x="343" y="635" type="line"/>
      <point x="205" y="635" type="line"/>
    </contour>
  </outline>
</glyph>
<glyph name="two" format="1">
  <advance width="491"/>
  <unicode hex="0032"/>
  <outline>
    <contour>
      <point x="77" y="292"/>
      <point x="43" y="272"/>
      <point x="43" y="185" type="curve" smooth="yes"/>
      <point x="43" y="0" type="line"/>
      <point x="456" y="0" type="line"/>
      <point x="456" y="128" type="line"/>
      <point x="191" y="128" type="line"/>
      <point x="191" y="182" type="line" smooth="yes"/>
      <point x="191" y="197"/>
      <point x="194" y="206"/>
      <point x="208" y="213" type="curve" smooth="yes"/>
      <point x="361" y="295" type="line" smooth="yes"/>
      <point x="427" y="330"/>
      <point x="463" y="360"/>
      <point x="463" y="426" type="curve" smooth="yes"/>
      <point x="463" y="485" type="line" smooth="yes"/>
      <point x="463" y="580"/>
      <point x="426" y="643"/>
      <point x="303" y="640" type="curve" smooth="yes"/>
      <point x="58" y="635" type="line"/>
      <point x="58" y="507" type="line"/>
      <point x="301" y="507" type="line" smooth="yes"/>
      <point x="310" y="507"/>
      <point x="315" y="503"/>
      <point x="315" y="493" type="curve" smooth="yes"/>
      <point x="315" y="431" type="line" smooth="yes"/>
      <point x="315" y="421"/>
      <point x="310" y="418"/>
      <point x="301" y="413" type="curve" smooth="yes"/>
      <point x="137" y="324" type="line" smooth="yes"/>
    </contour>
  </outline>
</glyph>
<glyph name="three" format="1">
  <advance width="486"/>
  <unicode hex="0033"/>
  <outline>
    <contour>
      <point x="371" y="-8"/>
      <point x="436" y="55"/>
      <point x="436" y="160" type="curve" smooth="yes"/>
      <point x="436" y="200" type="line" smooth="yes"/>
      <point x="436" y="300"/>
      <point x="370" y="345"/>
      <point x="236" y="345" type="curve"/>
      <point x="236" y="298" type="line"/>
      <point x="356" y="298"/>
      <point x="431" y="343"/>
      <point x="431" y="438" type="curve" smooth="yes"/>
      <point x="431" y="475" type="line" smooth="yes"/>
      <point x="431" y="580"/>
      <point x="366" y="643"/>
      <point x="246" y="640" type="curve" smooth="yes"/>
      <point x="28" y="635" type="line"/>
      <point x="28" y="506" type="line"/>
      <point x="267" y="506" type="line" smooth="yes"/>
      <point x="276" y="506"/>
      <point x="281" y="502"/>
      <point x="281" y="492" type="curve" smooth="yes"/>
      <point x="281" y="401" type="line" smooth="yes"/>
      <point x="281" y="391"/>
      <point x="276" y="387"/>
      <point x="267" y="387" type="curve" smooth="yes"/>
      <point x="88" y="387" type="line"/>
      <point x="88" y="260" type="line"/>
      <point x="272" y="260" type="line" smooth="yes"/>
      <point x="281" y="260"/>
      <point x="286" y="256"/>
      <point x="286" y="246" type="curve" smooth="yes"/>
      <point x="286" y="143" type="line" smooth="yes"/>
      <point x="286" y="133"/>
      <point x="281" y="129"/>
      <point x="272" y="129" type="curve" smooth="yes"/>
      <point x="25" y="129" type="line"/>
      <point x="25" y="0" type="line"/>
      <point x="251" y="-5" type="line" smooth="yes"/>
    </contour>
  </outline>
</glyph>
<glyph name="four" format="1">
  <advance width="571"/>
  <unicode hex="0034"/>
  <outline>
    <contour>
      <point x="456" y="0" type="line"/>
      <point x="456" y="141" type="line"/>
      <point x="446" y="131" type="line"/>
      <point x="551" y="131" type="line"/>
      <point x="551" y="258" type="line"/>
      <point x="446" y="258" type="line"/>
      <point x="456" y="248" type="line"/>
      <point x="456" y="635" type="line"/>
      <point x="312" y="640" type="line" smooth="yes"/>
      <point x="228" y="643"/>
      <point x="209" y="607"/>
      <point x="171" y="535" type="curve" smooth="yes"/>
      <point x="11" y="237" type="line"/>
      <point x="11" y="131" type="line"/>
      <point x="318" y="131" type="line"/>
      <point x="308" y="141" type="line"/>
      <point x="308" y="0" type="line"/>
    </contour>
    <contour>
      <point x="283" y="496" type="line" smooth="yes"/>
      <point x="288" y="505"/>
      <point x="291" y="508"/>
      <point x="300" y="508" type="curve" smooth="yes"/>
      <point x="308" y="508" type="line"/>
      <point x="308" y="248" type="line"/>
      <point x="318" y="258" type="line"/>
      <point x="141" y="258" type="line"/>
      <point x="149" y="248" type="line"/>
    </contour>
  </outline>
</glyph>
<glyph name="five" format="1">
  <advance width="499"/>
  <unicode hex="0035"/>
  <outline>
    <contour>
      <point x="195" y="408" type="line"/>
      <point x="195" y="506" type="line"/>
      <point x="424" y="506" type="line"/>
      <point x="424" y="635" type="line"/>
      <point x="48" y="635" type="line"/>
      <point x="48" y="280" type="line"/>
      <point x="290" y="280" type="line" smooth="yes"/>
      <point x="299" y="280"/>
      <point x="304" y="276"/>
      <point x="304" y="266" type="curve" smooth="yes"/>
      <point x="304" y="143" type="line" smooth="yes"/>
      <point x="304" y="133"/>
      <point x="299" y="129"/>
      <point x="290" y="129" type="curve" smooth="yes"/>
      <point x="45" y="129" type="line"/>
      <point x="45" y="0" type="line"/>
      <point x="269" y="-5" type="line" smooth="yes"/>
      <point x="389" y="-8"/>
      <point x="454" y="55"/>
      <point x="454" y="160" type="curve" smooth="yes"/>
      <point x="454" y="240" type="line" smooth="yes"/>
      <point x="454" y="345"/>
      <point x="389" y="408"/>
      <point x="269" y="408" type="curve" smooth="yes"/>
    </contour>
  </outline>
</glyph>
<glyph name="six" format="1">
  <advance width="531"/>
  <unicode hex="0036"/>
  <outline>
    <contour>
      <point x="313" y="-5" type="line" smooth="yes"/>
      <point x="433" y="-5"/>
      <point x="498" y="55"/>
      <point x="498" y="160" type="curve" smooth="yes"/>
      <point x="498" y="245" type="line" smooth="yes"/>
      <point x="498" y="360"/>
      <point x="447" y="408"/>
      <point x="327" y="408" type="curve" smooth="yes"/>
      <point x="195" y="408" type="line"/>
      <point x="195" y="283" type="line"/>
      <point x="334" y="283" type="line" smooth="yes"/>
      <point x="343" y="283"/>
      <point x="348" y="279"/>
      <point x="348" y="269" type="curve" smooth="yes"/>
      <point x="348" y="143" type="line" smooth="yes"/>
      <point x="348" y="133"/>
      <point x="343" y="129"/>
      <point x="334" y="129" type="curve" smooth="yes"/>
      <point x="224" y="129" type="line" smooth="yes"/>
      <point x="215" y="129"/>
      <point x="210" y="133"/>
      <point x="210" y="143" type="curve" smooth="yes"/>
      <point x="210" y="492" type="line" smooth="yes"/>
      <point x="210" y="502"/>
      <point x="215" y="506"/>
      <point x="224" y="506" type="curve" smooth="yes"/>
      <point x="458" y="506" type="line"/>
      <point x="458" y="635" type="line"/>
      <point x="245" y="640" type="line" smooth="yes"/>
      <point x="125" y="643"/>
      <point x="60" y="580"/>
      <point x="60" y="475" type="curve" smooth="yes"/>
      <point x="60" y="161" type="line" smooth="yes"/>
      <point x="60" y="55"/>
      <point x="125" y="-5"/>
      <point x="245" y="-5" type="curve" smooth="yes"/>
    </contour>
  </outline>
</glyph>
<glyph name="seven" format="1">
  <advance width="443"/>
  <unicode hex="0037"/>
  <outline>
    <contour>
      <point x="218" y="-3" type="line"/>
      <point x="431" y="517" type="line"/>
      <point x="431" y="587"/>
      <point x="400" y="637"/>
      <point x="325" y="637" type="curve" smooth="yes"/>
      <point x="14" y="636" type="line"/>
      <point x="14" y="516" type="line"/>
      <point x="252" y="517" type="line" smooth="yes"/>
      <point x="263" y="517"/>
      <point x="265" y="507"/>
      <point x="261" y="498" type="curve" smooth="yes"/>
      <point x="57" y="-3" type="line"/>
    </contour>
  </outline>
</glyph>
<glyph name="eight" format="1">
  <advance width="566"/>
  <unicode hex="0038"/>
  <outline>
    <contour>
      <point x="331" y="-5" type="line" smooth="yes"/>
      <point x="451" y="-5"/>
      <point x="516" y="55"/>
      <point x="516" y="160" type="curve" smooth="yes"/>
      <point x="516" y="200" type="line" smooth="yes"/>
      <point x="516" y="300"/>
      <point x="450" y="345"/>
      <point x="316" y="345" type="curve"/>
      <point x="316" y="298" type="line"/>
      <point x="436" y="298"/>
      <point x="511" y="343"/>
      <point x="511" y="438" type="curve" smooth="yes"/>
      <point x="511" y="475" type="line" smooth="yes"/>
      <point x="511" y="580"/>
      <point x="446" y="640"/>
      <point x="326" y="640" type="curve" smooth="yes"/>
      <point x="240" y="640" type="line" smooth="yes"/>
      <point x="120" y="640"/>
      <point x="55" y="580"/>
      <point x="55" y="475" type="curve" smooth="yes"/>
      <point x="55" y="438" type="line" smooth="yes"/>
      <point x="55" y="343"/>
      <point x="130" y="298"/>
      <point x="250" y="298" type="curve"/>
      <point x="250" y="345" type="line"/>
      <point x="116" y="345"/>
      <point x="50" y="300"/>
      <point x="50" y="200" type="curve" smooth="yes"/>
      <point x="50" y="160" type="line" smooth="yes"/>
      <point x="50" y="55"/>
      <point x="115" y="-5"/>
      <point x="235" y="-5" type="curve" smooth="yes"/>
    </contour>
    <contour>
      <point x="205" y="129"/>
      <point x="200" y="133"/>
      <point x="200" y="143" type="curve" smooth="yes"/>
      <point x="200" y="248" type="line" smooth="yes"/>
      <point x="200" y="258"/>
      <point x="205" y="262"/>
      <point x="214" y="262" type="curve" smooth="yes"/>
      <point x="352" y="262" type="line" smooth="yes"/>
      <point x="361" y="262"/>
      <point x="366" y="258"/>
      <point x="366" y="248" type="curve" smooth="yes"/>
      <point x="366" y="143" type="line" smooth="yes"/>
      <point x="366" y="133"/>
      <point x="361" y="129"/>
      <point x="352" y="129" type="curve" smooth="yes"/>
      <point x="214" y="129" type="line" smooth="yes"/>
    </contour>
    <contour>
      <point x="210" y="385"/>
      <point x="205" y="389"/>
      <point x="205" y="399" type="curve" smooth="yes"/>
      <point x="205" y="492" type="line" smooth="yes"/>
      <point x="205" y="502"/>
      <point x="210" y="506"/>
      <point x="219" y="506" type="curve" smooth="yes"/>
      <point x="347" y="506" type="line" smooth="yes"/>
      <point x="356" y="506"/>
      <point x="361" y="502"/>
      <point x="361" y="492" type="curve" smooth="yes"/>
      <point x="361" y="399" type="line" smooth="yes"/>
      <point x="361" y="389"/>
      <point x="356" y="385"/>
      <point x="347" y="385" type="curve" smooth="yes"/>
      <point x="219" y="385" type="line" smooth="yes"/>
    </contour>
  </outline>
</glyph>
<glyph name="semicolon" format="1">
  <advance width="225"/>
  <unicode hex="003B"/>
  <outline>
    <contour>
      <point x="50" y="2" type="line"/>
      <point x="50" y="135" type="line"/>
      <point x="170" y="135" type="line"/>
      <point x="170" y="23" type="line" smooth="yes"/>
      <point x="170" y="-35"/>
      <point x="141" y="-83"/>
      <point x="94" y="-128" type="curve"/>
      <point x="52" y="-94" type="line"/>
      <point x="79" y="-54"/>
      <point x="90" y="-19"/>
      <point x="90" y="9" type="curve"/>
      <point x="101" y="2" type="line"/>
    </contour>
    <contour>
      <point x="170" y="265" type="line"/>
      <point x="170" y="400" type="line"/>
      <point x="50" y="400" type="line"/>
      <point x="50" y="265" type="line"/>
    </contour>
  </outline>
</glyph>
<glyph name="equal" format="1">
  <advance width="540"/>
  <unicode hex="003D"/>
  <outline>
    <contour>
      <point x="495" y="409" type="line"/>
      <point x="45" y="409" type="line"/>
      <point x="45" y="309" type="line"/>
      <point x="495" y="309" type="line"/>
    </contour>
    <contour>
      <point x="495" y="211" type="line"/>
      <point x="45" y="211" type="line"/>
      <point x="45" y="111" type="line"/>
      <point x="495" y="111" type="line"/>
    </contour>
  </outline>
</glyph>
<glyph name="greater" format="1">
  <advance width="468"/>
  <unicode hex="003E"/>
  <outline>
    <contour>
      <point x="438" y="348" type="line"/>
      <point x="40" y="539" type="line"/>
      <point x="40" y="421" type="line"/>
      <point x="366" y="278" type="line"/>
      <point x="366" y="325" type="line"/>
      <point x="40" y="181" type="line"/>
      <point x="40" y="64" type="line"/>
      <point x="438" y="256" type="line"/>
    </contour>
  </outline>
</glyph>
<glyph name="question" format="1">
  <advance width="376"/>
  <unicode hex="003F"/>
  <outline>
    <contour>
      <point x="205" y="193" type="line"/>
      <point x="206" y="219" type="line" smooth="yes"/>
      <point x="207" y="239"/>
      <point x="208" y="248"/>
      <point x="223" y="264" type="curve" smooth="yes"/>
      <point x="299" y="341" type="line" smooth="yes"/>
      <point x="339" y="382"/>
      <point x="343" y="406"/>
      <point x="343" y="455" type="curve" smooth="yes"/>
      <point x="343" y="490" type="line" smooth="yes"/>
      <point x="343" y="595"/>
      <point x="294" y="640"/>
      <point x="183" y="640" type="curve" smooth="yes"/>
      <point x="21" y="640" type="line"/>
      <point x="21" y="517" type="line"/>
      <point x="190" y="517" type="line" smooth="yes"/>
      <point x="199" y="517"/>
      <point x="204" y="513"/>
      <point x="204" y="503" type="curve" smooth="yes"/>
      <point x="204" y="436" type="line" smooth="yes"/>
      <point x="204" y="428"/>
      <point x="203" y="424"/>
      <point x="197" y="417" type="curve" smooth="yes"/>
      <point x="103" y="317" type="line" smooth="yes"/>
      <point x="74" y="286"/>
      <point x="71" y="274"/>
      <point x="71" y="237" type="curve" smooth="yes"/>
      <point x="71" y="193" type="line"/>
    </contour>
    <contour>
      <point x="206" y="0" type="line"/>
      <point x="206" y="151" type="line"/>
      <point x="70" y="151" type="line"/>
      <point x="70" y="0" type="line"/>
    </contour>
  </outline>
</glyph>
<glyph name="at" format="1">
  <advance width="703"/>
  <unicode hex="0040"/>
  <outline>
    <contour>
      <point x="491" y="-50" type="line"/>
      <point x="491" y="40" type="line"/>
      <point x="179" y="40" type="line" smooth="yes"/>
      <point x="170" y="40"/>
      <point x="165" y="44"/>
      <point x="165" y="54" type="curve" smooth="yes"/>
      <point x="165" y="501" type="line" smooth="yes"/>
      <point x="165" y="511"/>
      <point x="170" y="515"/>
      <point x="179" y="515" type="curve" smooth="yes"/>
      <point x="534" y="515" type="line" smooth="yes"/>
      <point x="543" y="515"/>
      <point x="548" y="511"/>
      <point x="548" y="501" type="curve" smooth="yes"/>
      <point x="548" y="193" type="line" smooth="yes"/>
      <point x="548" y="184"/>
      <point x="543" y="179"/>
      <point x="534" y="179" type="curve" smooth="yes"/>
      <point x="505" y="179" type="line" smooth="yes"/>
      <point x="496" y="179"/>
      <point x="491" y="183"/>
      <point x="491" y="193" type="curve" smooth="yes"/>
      <point x="491" y="452" type="line"/>
      <point x="344" y="455" type="line" smooth="yes"/>
      <point x="254" y="457"/>
      <point x="214" y="420"/>
      <point x="214" y="340" type="curve" smooth="yes"/>
      <point x="214" y="204" type="line" smooth="yes"/>
      <point x="214" y="134"/>
      <point x="246" y="99"/>
      <point x="311" y="99" type="curve" smooth="yes"/>
      <point x="328" y="99" type="line" smooth="yes"/>
      <point x="378" y="99"/>
      <point x="389" y="150"/>
      <point x="389" y="189" type="curve"/>
      <point x="386" y="189" type="line"/>
      <point x="386" y="183" type="line" smooth="yes"/>
      <point x="386" y="109"/>
      <point x="429" y="99"/>
      <point x="499" y="99" type="curve" smooth="yes"/>
      <point x="533" y="99" type="line" smooth="yes"/>
      <point x="623" y="99"/>
      <point x="653" y="129"/>
      <point x="653" y="219" type="curve" smooth="yes"/>
      <point x="653" y="445" type="line" smooth="yes"/>
      <point x="653" y="550"/>
      <point x="593" y="605"/>
      <point x="473" y="605" type="curve" smooth="yes"/>
      <point x="240" y="605" type="line" smooth="yes"/>
      <point x="120" y="605"/>
      <point x="60" y="550"/>
      <point x="60" y="445" type="curve" smooth="yes"/>
      <point x="60" y="110" type="line" smooth="yes"/>
      <point x="60" y="5"/>
      <point x="120" y="-50"/>
      <point x="240" y="-50" type="curve" smooth="yes"/>
    </contour>
    <contour>
      <point x="323" y="189"/>
      <point x="319" y="193"/>
      <point x="319" y="203" type="curve" smooth="yes"/>
      <point x="319" y="357" type="line" smooth="yes"/>
      <point x="319" y="367"/>
      <point x="323" y="371"/>
      <point x="333" y="371" type="curve" smooth="yes"/>
      <point x="401" y="371" type="line"/>
      <point x="386" y="387" type="line"/>
      <point x="386" y="203" type="line" smooth="yes"/>
      <point x="386" y="190"/>
      <point x="382" y="189"/>
      <point x="372" y="189" type="curve" smooth="yes"/>
      <point x="333" y="189" type="line" smooth="yes"/>
    </contour>
  </outline>
</glyph>
<glyph name="A" format="1">
  <advance width="557"/>
  <unicode hex="0041"/>
  <outline>
    <contour>
      <point x="552" y="0" type="line"/>
      <point x="418" y="635" type="line"/>
      <point x="279" y="640" type="line" smooth="yes"/>
      <point x="187" y="643"/>
      <point x="160" y="614"/>
      <point x="137" y="520" type="curve" smooth="yes"/>
      <point x="7" y="0" type="line"/>
      <point x="145" y="0" type="line"/>
      <point x="179" y="151" type="line"/>
      <point x="167" y="141" type="line"/>
      <point x="387" y="141" type="line"/>
      <point x="375" y="151" type="line"/>
      <point x="405" y="0" type="line"/>
    </contour>
    <contour>
      <point x="258" y="494" type="line" smooth="yes"/>
      <point x="260" y="504"/>
      <point x="262" y="508"/>
      <point x="272" y="508" type="curve" smooth="yes"/>
      <point x="305" y="508" type="line"/>
      <point x="354" y="258" type="line"/>
      <point x="362" y="268" type="line"/>
      <point x="196" y="268" type="line"/>
      <point x="204" y="258" type="line"/>
    </contour>
    <contour>
      <point x="552" y="0" type="move" name="ogonek"/>
    </contour>
    <contour>
      <point x="286" y="625" type="move" name="top"/>
    </contour>
  </outline>
</glyph>
<glyph name="B" format="1">
  <advance width="584"/>
  <unicode hex="0042"/>
  <outline>
    <contour>
      <point x="469" y="-7"/>
      <point x="534" y="55"/>
      <point x="534" y="160" type="curve" smooth="yes"/>
      <point x="534" y="198" type="line" smooth="yes"/>
      <point x="534" y="298"/>
      <point x="468" y="343"/>
      <point x="334" y="343" type="curve"/>
      <point x="334" y="296" type="line"/>
      <point x="454" y="296"/>
      <point x="519" y="341"/>
      <point x="519" y="436" type="curve" smooth="yes"/>
      <point x="519" y="475" type="line" smooth="yes"/>
      <point x="519" y="580"/>
      <point x="454" y="642"/>
      <point x="334" y="640" type="curve" smooth="yes"/>
      <point x="65" y="635" type="line"/>
      <point x="65" y="0" type="line"/>
      <point x="349" y="-5" type="line" smooth="yes"/>
    </contour>
    <contour>
      <point x="213" y="285" type="line"/>
      <point x="193" y="262" type="line"/>
      <point x="370" y="262" type="line" smooth="yes"/>
      <point x="379" y="262"/>
      <point x="384" y="258"/>
      <point x="384" y="248" type="curve" smooth="yes"/>
      <point x="384" y="135" type="line" smooth="yes"/>
      <point x="384" y="125"/>
      <point x="379" y="121"/>
      <point x="370" y="121" type="curve" smooth="yes"/>
      <point x="193" y="121" type="line"/>
      <point x="213" y="104" type="line"/>
    </contour>
    <contour>
      <point x="213" y="538" type="line"/>
      <point x="193" y="514" type="line"/>
      <point x="355" y="514" type="line" smooth="yes"/>
      <point x="364" y="514"/>
      <point x="369" y="510"/>
      <point x="369" y="500" type="curve" smooth="yes"/>
      <point x="369" y="396" type="line" smooth="yes"/>
      <point x="369" y="386"/>
      <point x="364" y="382"/>
      <point x="355" y="382" type="curve" smooth="yes"/>
      <point x="193" y="382" type="line"/>
      <point x="213" y="362" type="line"/>
    </contour>
  </outline>
</glyph>
<glyph name="C" format="1">
  <advance width="447"/>
  <unicode hex="0043"/>
  <outline>
    <contour>
      <point x="435" y="133" type="line"/>
      <point x="217" y="133" type="line" smooth="yes"/>
      <point x="208" y="133"/>
      <point x="203" y="137"/>
      <point x="203" y="147" type="curve" smooth="yes"/>
      <point x="203" y="488" type="line" smooth="yes"/>
      <point x="203" y="498"/>
      <point x="208" y="502"/>
      <point x="217" y="502" type="curve" smooth="yes"/>
      <point x="435" y="502" type="line"/>
      <point x="435" y="635" type="line"/>
      <point x="233" y="635" type="line" smooth="yes"/>
      <point x="113" y="635"/>
      <point x="53" y="580"/>
      <point x="53" y="475" type="curve" smooth="yes"/>
      <point x="53" y="160" type="line" smooth="yes"/>
      <point x="53" y="55"/>
      <point x="113" y="0"/>
      <point x="233" y="0" type="curve" smooth="yes"/>
      <point x="435" y="0" type="line"/>
    </contour>
    <contour>
      <point x="256" y="625" type="move" name="top"/>
    </contour>
    <contour>
      <point x="286" y="0" type="move" name="bottom"/>
    </contour>
  </outline>
</glyph>
<glyph name="D" format="1">
  <advance width="589"/>
  <unicode hex="0044"/>
  <outline>
    <contour>
      <point x="370" y="512" type="line" smooth="yes"/>
      <point x="379" y="512"/>
      <point x="384" y="508"/>
      <point x="384" y="498" type="curve" smooth="yes"/>
      <point x="384" y="137" type="line" smooth="yes"/>
      <point x="384" y="127"/>
      <point x="379" y="123"/>
      <point x="370" y="123" type="curve" smooth="yes"/>
      <point x="213" y="123" type="line"/>
      <point x="213" y="512" type="line"/>
    </contour>
    <contour>
      <point x="65" y="0" type="line"/>
      <point x="349" y="-5" type="line" smooth="yes"/>
      <point x="474" y="-7"/>
      <point x="534" y="45"/>
      <point x="534" y="160" type="curve" smooth="yes"/>
      <point x="534" y="475" type="line" smooth="yes"/>
      <point x="534" y="590"/>
      <point x="474" y="642"/>
      <point x="349" y="640" type="curve" smooth="yes"/>
      <point x="65" y="635" type="line"/>
    </contour>
    <contour>
      <point x="295" y="318" type="move" name="center"/>
    </contour>
    <contour>
      <point x="285" y="625" type="move" name="top"/>
    </contour>
  </outline>
</glyph>
<glyph name="E" format="1">
  <advance width="484"/>
  <unicode hex="0045"/>
  <outline>
    <contour>
      <point x="429" y="385" type="line"/>
      <point x="193" y="385" type="line"/>
      <point x="213" y="365" type="line"/>
      <point x="213" y="635" type="line"/>
      <point x="65" y="635" type="line"/>
      <point x="65" y="0" type="line"/>
      <point x="213" y="0" type="line"/>
      <point x="213" y="282" type="line"/>
      <point x="193" y="262" type="line"/>
      <point x="429" y="262" type="line"/>
    </contour>
    <contour>
      <point x="149" y="0" type="line"/>
      <point x="454" y="0" type="line"/>
      <point x="454" y="129" type="line"/>
      <point x="149" y="129" type="line"/>
    </contour>
    <contour>
      <point x="149" y="506" type="line"/>
      <point x="449" y="506" type="line"/>
      <point x="449" y="635" type="line"/>
      <point x="149" y="635" type="line"/>
    </contour>
  </outline>
</glyph>
<glyph name="G" format="1">
  <advance width="555"/>
  <unicode hex="0047"/>
  <outline>
    <contour>
      <point x="330" y="-10" type="line" smooth="yes"/>
      <point x="450" y="-10"/>
      <point x="510" y="45"/>
      <point x="510" y="150" type="curve" smooth="yes"/>
      <point x="510" y="356" type="line"/>
      <point x="310" y="356" type="line"/>
      <point x="310" y="233" type="line"/>
      <point x="383" y="233" type="line"/>
      <point x="370" y="256" type="line"/>
      <point x="370" y="137" type="line" smooth="yes"/>
      <point x="370" y="127"/>
      <point x="365" y="123"/>
      <point x="356" y="123" type="curve" smooth="yes"/>
      <point x="219" y="123" type="line" smooth="yes"/>
      <point x="210" y="123"/>
      <point x="205" y="127"/>
      <point x="205" y="137" type="curve" smooth="yes"/>
      <point x="205" y="498" type="line" smooth="yes"/>
      <point x="205" y="508"/>
      <point x="210" y="512"/>
      <point x="219" y="512" type="curve" smooth="yes"/>
      <point x="496" y="512" type="line"/>
      <point x="496" y="645" type="line"/>
      <point x="235" y="645" type="line" smooth="yes"/>
      <point x="115" y="645"/>
      <point x="55" y="590"/>
      <point x="55" y="485" type="curve" smooth="yes"/>
      <point x="55" y="150" type="line" smooth="yes"/>
      <point x="55" y="45"/>
      <point x="115" y="-10"/>
      <point x="235" y="-10" type="curve" smooth="yes"/>
    </contour>
  </outline>
</glyph>
<glyph name="H" format="1">
  <advance width="615"/>
  <unicode hex="0048"/>
  <outline>
    <contour>
      <point x="402" y="367" type="line"/>
      <point x="422" y="387" type="line"/>
      <point x="193" y="387" type="line"/>
      <point x="213" y="367" type="line"/>
      <point x="213" y="635" type="line"/>
      <point x="65" y="635" type="line"/>
      <point x="65" y="0" type="line"/>
      <point x="213" y="0" type="line"/>
      <point x="213" y="278" type="line"/>
      <point x="193" y="258" type="line"/>
      <point x="422" y="258" type="line"/>
      <point x="402" y="278" type="line"/>
      <point x="402" y="0" type="line"/>
      <point x="550" y="0" type="line"/>
      <point x="550" y="635" type="line"/>
      <point x="402" y="635" type="line"/>
    </contour>
  </outline>
</glyph>
<glyph name="J" format="1">
  <advance width="318"/>
  <unicode hex="004A"/>
  <outline>
    <contour>
      <point x="258" y="635" type="line"/>
      <point x="110" y="635" type="line"/>
      <point x="110" y="137" type="line" smooth="yes"/>
      <point x="110" y="127"/>
      <point x="105" y="123"/>
      <point x="96" y="123" type="curve" smooth="yes"/>
      <point x="0" y="123" type="line"/>
      <point x="0" y="-10" type="line"/>
      <point x="80" y="-10" type="line" smooth="yes"/>
      <point x="200" y="-10"/>
      <point x="258" y="45"/>
      <point x="258" y="150" type="curve" smooth="yes"/>
    </contour>
  </outline>
</glyph>
<glyph name="K" format="1">
  <advance width="589"/>
  <unicode hex="004B"/>
  <outline>
    <contour>
      <point x="218" y="0" type="line"/>
      <point x="218" y="635" type="line"/>
      <point x="70" y="635" type="line"/>
      <point x="70" y="0" type="line"/>
    </contour>
    <contour>
      <point x="319" y="307" type="line" smooth="yes"/>
      <point x="424" y="308"/>
      <point x="438" y="322"/>
      <point x="476" y="414" type="curve" smooth="yes"/>
      <point x="567" y="635" type="line"/>
      <point x="420" y="635" type="line"/>
      <point x="325" y="398" type="line" smooth="yes"/>
      <point x="321" y="388"/>
      <point x="320" y="384"/>
      <point x="310" y="384" type="curve" smooth="yes"/>
      <point x="192" y="384" type="line"/>
      <point x="192" y="307" type="line"/>
    </contour>
    <contour>
      <point x="311" y="255" type="line" smooth="yes"/>
      <point x="321" y="255"/>
      <point x="322" y="251"/>
      <point x="326" y="241" type="curve" smooth="yes"/>
      <point x="433" y="0" type="line"/>
      <point x="589" y="0" type="line"/>
      <point x="487" y="224" type="line" smooth="yes"/>
      <point x="447" y="311"/>
      <point x="430" y="331"/>
      <point x="325" y="331" type="curve" smooth="yes"/>
      <point x="192" y="331" type="line"/>
      <point x="192" y="255" type="line"/>
    </contour>
  </outline>
</glyph>
<glyph name="L" format="1">
  <advance width="429"/>
  <unicode hex="004C"/>
  <outline>
    <contour>
      <point x="429" y="129" type="line"/>
      <point x="193" y="129" type="line"/>
      <point x="213" y="109" type="line"/>
      <point x="213" y="635" type="line"/>
      <point x="65" y="635" type="line"/>
      <point x="65" y="0" type="line"/>
      <point x="429" y="0" type="line"/>
    </contour>
  </outline>
</glyph>
<glyph name="M" format="1">
  <advance width="694"/>
  <unicode hex="004D"/>
  <outline>
    <contour>
      <point x="614" y="635"/>
      <point x="549" y="635" type="curve" smooth="yes"/>
      <point x="505" y="635" type="line"/>
      <point x="335" y="305" type="line"/>
      <point x="362" y="305" type="line"/>
      <point x="207" y="594" type="line" smooth="yes"/>
      <point x="191" y="623"/>
      <point x="180" y="635"/>
      <point x="134" y="635" type="curve" smooth="yes"/>
      <point x="55" y="635" type="line"/>
      <point x="55" y="0" type="line"/>
      <point x="185" y="0" type="line"/>
      <point x="185" y="437" type="line"/>
      <point x="165" y="437" type="line"/>
      <point x="293" y="181" type="line"/>
      <point x="381" y="181" type="line"/>
      <point x="517" y="447" type="line"/>
      <point x="497" y="447" type="line"/>
      <point x="497" y="0" type="line"/>
      <point x="639" y="0" type="line"/>
      <point x="639" y="550" type="line" smooth="yes"/>
      <point x="639" y="610"/>
    </contour>
  </outline>
</glyph>
<glyph name="N" format="1">
  <advance width="610"/>
  <unicode hex="004E"/>
  <outline>
    <contour>
      <point x="435" y="225" type="line"/>
      <point x="455" y="225" type="line"/>
      <point x="165" y="635" type="line"/>
      <point x="55" y="635" type="line"/>
      <point x="55" y="0" type="line"/>
      <point x="175" y="0" type="line"/>
      <point x="175" y="412" type="line"/>
      <point x="155" y="412" type="line"/>
      <point x="445" y="0" type="line"/>
      <point x="555" y="0" type="line"/>
      <point x="555" y="635" type="line"/>
      <point x="435" y="635" type="line"/>
    </contour>
  </outline>
</glyph>
<glyph name="O" format="1">
  <advance width="600"/>
  <unicode hex="004F"/>
  <outline>
    <contour>
      <point x="381" y="512" type="line" smooth="yes"/>
      <point x="390" y="512"/>
      <point x="395" y="508"/>
      <point x="395" y="498" type="curve" smooth="yes"/>
      <point x="395" y="137" type="line" smooth="yes"/>
      <point x="395" y="127"/>
      <point x="390" y="123"/>
      <point x="381" y="123" type="curve" smooth="yes"/>
      <point x="219" y="123" type="line" smooth="yes"/>
      <point x="210" y="123"/>
      <point x="205" y="127"/>
      <point x="205" y="137" type="curve" smooth="yes"/>
      <point x="205" y="498" type="line" smooth="yes"/>
      <point x="205" y="508"/>
      <point x="210" y="512"/>
      <point x="219" y="512" type="curve" smooth="yes"/>
    </contour>
    <contour>
      <point x="55" y="150" type="line" smooth="yes"/>
      <point x="55" y="45"/>
      <point x="115" y="-10"/>
      <point x="235" y="-10" type="curve" smooth="yes"/>
      <point x="365" y="-10" type="line" smooth="yes"/>
      <point x="485" y="-10"/>
      <point x="545" y="45"/>
      <point x="545" y="150" type="curve" smooth="yes"/>
      <point x="545" y="485" type="line" smooth="yes"/>
      <point x="545" y="590"/>
      <point x="485" y="645"/>
      <point x="365" y="645" type="curve" smooth="yes"/>
      <point x="235" y="645" type="line" smooth="yes"/>
      <point x="115" y="645"/>
      <point x="55" y="590"/>
      <point x="55" y="485" type="curve" smooth="yes"/>
    </contour>
    <contour>
      <point x="302" y="625" type="move" name="top"/>
    </contour>
  </outline>
</glyph>
<glyph name="P" format="1">
  <advance width="541"/>
  <unicode hex="0050"/>
  <outline>
    <contour>
      <point x="218" y="0" type="line"/>
      <point x="218" y="232" type="line"/>
      <point x="198" y="209" type="line"/>
      <point x="341" y="209" type="line" smooth="yes"/>
      <point x="461" y="209"/>
      <point x="526" y="284"/>
      <point x="526" y="379" type="curve" smooth="yes"/>
      <point x="526" y="475" type="line" smooth="yes"/>
      <point x="526" y="580"/>
      <point x="461" y="642"/>
      <point x="341" y="640" type="curve" smooth="yes"/>
      <point x="70" y="635" type="line" smooth="yes"/>
      <point x="70" y="0" type="line"/>
    </contour>
    <contour>
      <point x="218" y="535" type="line"/>
      <point x="198" y="511" type="line"/>
      <point x="362" y="511" type="line" smooth="yes"/>
      <point x="371" y="511"/>
      <point x="376" y="507"/>
      <point x="376" y="497" type="curve" smooth="yes"/>
      <point x="376" y="352" type="line" smooth="yes"/>
      <point x="376" y="342"/>
      <point x="371" y="338"/>
      <point x="362" y="338" type="curve" smooth="yes"/>
      <point x="198" y="338" type="line"/>
      <point x="218" y="318" type="line"/>
    </contour>
  </outline>
</glyph>
<glyph name="Q" format="1">
  <advance width="600"/>
  <unicode hex="0051"/>
  <outline>
    <contour>
      <point x="381" y="512" type="line" smooth="yes"/>
      <point x="390" y="512"/>
      <point x="395" y="508"/>
      <point x="395" y="498" type="curve" smooth="yes"/>
      <point x="395" y="137" type="line" smooth="yes"/>
      <point x="395" y="127"/>
      <point x="390" y="123"/>
      <point x="381" y="123" type="curve" smooth="yes"/>
      <point x="219" y="123" type="line" smooth="yes"/>
      <point x="210" y="123"/>
      <point x="205" y="127"/>
      <point x="205" y="137" type="curve" smooth="yes"/>
      <point x="205" y="498" type="line" smooth="yes"/>
      <point x="205" y="508"/>
      <point x="210" y="512"/>
      <point x="219" y="512" type="curve" smooth="yes"/>
    </contour>
    <contour>
      <point x="55" y="150" type="line" smooth="yes"/>
      <point x="55" y="45"/>
      <point x="115" y="-10"/>
      <point x="235" y="-10" type="curve" smooth="yes"/>
      <point x="365" y="-10" type="line" smooth="yes"/>
      <point x="485" y="-10"/>
      <point x="545" y="45"/>
      <point x="545" y="150" type="curve" smooth="yes"/>
      <point x="545" y="485" type="line" smooth="yes"/>
      <point x="545" y="590"/>
      <point x="485" y="645"/>
      <point x="365" y="645" type="curve" smooth="yes"/>
      <point x="235" y="645" type="line" smooth="yes"/>
      <point x="115" y="645"/>
      <point x="55" y="590"/>
      <point x="55" y="485" type="curve" smooth="yes"/>
    </contour>
    <contour>
      <point x="302" y="-125" type="line"/>
      <point x="442" y="-125" type="line"/>
      <point x="399" y="40" type="line"/>
      <point x="270" y="40" type="line"/>
    </contour>
  </outline>
</glyph>
<glyph name="R" format="1">
  <advance width="571"/>
  <unicode hex="0052"/>
  <outline>
    <contour>
      <point x="218" y="0" type="line"/>
      <point x="218" y="250" type="line"/>
      <point x="198" y="227" type="line"/>
      <point x="317" y="227" type="line" smooth="yes"/>
      <point x="329" y="227"/>
      <point x="330" y="222"/>
      <point x="334" y="211" type="curve" smooth="yes"/>
      <point x="403" y="0" type="line"/>
      <point x="551" y="0" type="line"/>
      <point x="489" y="176" type="line" smooth="yes"/>
      <point x="470" y="229"/>
      <point x="444" y="253"/>
      <point x="395" y="262" type="curve"/>
      <point x="395" y="233" type="line"/>
      <point x="480" y="253"/>
      <point x="525" y="319"/>
      <point x="525" y="398" type="curve" smooth="yes"/>
      <point x="525" y="475" type="line" smooth="yes"/>
      <point x="525" y="580"/>
      <point x="460" y="642"/>
      <point x="340" y="640" type="curve" smooth="yes"/>
      <point x="70" y="635" type="line"/>
      <point x="70" y="0" type="line"/>
    </contour>
    <contour>
      <point x="218" y="535" type="line"/>
      <point x="198" y="511" type="line"/>
      <point x="361" y="511" type="line" smooth="yes"/>
      <point x="370" y="511"/>
      <point x="375" y="507"/>
      <point x="375" y="497" type="curve" smooth="yes"/>
      <point x="375" y="369" type="line" smooth="yes"/>
      <point x="375" y="359"/>
      <point x="370" y="355"/>
      <point x="361" y="355" type="curve" smooth="yes"/>
      <point x="198" y="355" type="line"/>
      <point x="218" y="335" type="line"/>
    </contour>
    <contour>
      <point x="266" y="625" type="move" name="top"/>
    </contour>
    <contour>
      <point x="286" y="0" type="move" name="bottom"/>
    </contour>
  </outline>
</glyph>
<glyph name="S" format="1">
  <advance width="490"/>
  <unicode hex="0053"/>
  <outline>
    <contour>
      <point x="191" y="386" type="line" smooth="yes"/>
      <point x="182" y="386"/>
      <point x="177" y="390"/>
      <point x="177" y="400" type="curve" smooth="yes"/>
      <point x="177" y="492" type="line" smooth="yes"/>
      <point x="177" y="502"/>
      <point x="182" y="506"/>
      <point x="191" y="506" type="curve" smooth="yes"/>
      <point x="441" y="506" type="line"/>
      <point x="441" y="635" type="line"/>
      <point x="212" y="640" type="line" smooth="yes"/>
      <point x="92" y="643"/>
      <point x="27" y="580"/>
      <point x="27" y="475" type="curve" smooth="yes"/>
      <point x="27" y="420" type="line" smooth="yes"/>
      <point x="27" y="315"/>
      <point x="92" y="252"/>
      <point x="212" y="252" type="curve" smooth="yes"/>
      <point x="301" y="252" type="line" smooth="yes"/>
      <point x="310" y="252"/>
      <point x="315" y="248"/>
      <point x="315" y="238" type="curve" smooth="yes"/>
      <point x="315" y="143" type="line" smooth="yes"/>
      <point x="315" y="133"/>
      <point x="310" y="129"/>
      <point x="301" y="129" type="curve" smooth="yes"/>
      <point x="43" y="129" type="line"/>
      <point x="43" y="0" type="line"/>
      <point x="280" y="-5" type="line" smooth="yes"/>
      <point x="400" y="-8"/>
      <point x="465" y="55"/>
      <point x="465" y="160" type="curve" smooth="yes"/>
      <point x="465" y="218" type="line" smooth="yes"/>
      <point x="465" y="323"/>
      <point x="400" y="386"/>
      <point x="280" y="386" type="curve" smooth="yes"/>
    </contour>
  </outline>
</glyph>
<glyph name="T" format="1">
  <advance width="446"/>
  <unicode hex="0054"/>
  <outline>
    <contour>
      <point x="297" y="0" type="line"/>
      <point x="297" y="526" type="line"/>
      <point x="277" y="506" type="line"/>
      <point x="441" y="506" type="line"/>
      <point x="441" y="635" type="line"/>
      <point x="5" y="635" type="line"/>
      <point x="5" y="506" type="line"/>
      <point x="169" y="506" type="line"/>
      <point x="149" y="526" type="line"/>
      <point x="149" y="0" type="line"/>
    </contour>
    <contour>
      <point x="223" y="318" type="move" name="center"/>
    </contour>
    <contour>
      <point x="234" y="0" type="move" name="bottom"/>
    </contour>
    <contour>
      <point x="223" y="615" type="move" name="top"/>
    </contour>
  </outline>
</glyph>
<glyph name="U" format="1">
  <advance width="596"/>
  <unicode hex="0055"/>
  <outline>
    <contour>
      <point x="361" y="-10" type="line" smooth="yes"/>
      <point x="481" y="-10"/>
      <point x="541" y="45"/>
      <point x="541" y="150" type="curve" smooth="yes"/>
      <point x="541" y="635" type="line"/>
      <point x="391" y="635" type="line"/>
      <point x="391" y="137" type="line" smooth="yes"/>
      <point x="391" y="127"/>
      <point x="386" y="123"/>
      <point x="377" y="123" type="curve" smooth="yes"/>
      <point x="219" y="123" type="line" smooth="yes"/>
      <point x="210" y="123"/>
      <point x="205" y="127"/>
      <point x="205" y="137" type="curve" smooth="yes"/>
      <point x="205" y="635" type="line"/>
      <point x="55" y="635" type="line"/>
      <point x="55" y="150" type="line" smooth="yes"/>
      <point x="55" y="45"/>
      <point x="115" y="-10"/>
      <point x="235" y="-10" type="curve" smooth="yes"/>
    </contour>
  </outline>
</glyph>
<glyph name="V" format="1">
  <advance width="538"/>
  <unicode hex="0056"/>
  <outline>
    <contour>
      <point x="375" y="-6"/>
      <point x="395" y="25"/>
      <point x="415" y="115" type="curve" smooth="yes"/>
      <point x="531" y="635" type="line"/>
      <point x="393" y="635" type="line"/>
      <point x="292" y="143" type="line" smooth="yes"/>
      <point x="290" y="133"/>
      <point x="288" y="129"/>
      <point x="278" y="129" type="curve" smooth="yes"/>
      <point x="245" y="129" type="line"/>
      <point x="153" y="635" type="line"/>
      <point x="8" y="635" type="line"/>
      <point x="131" y="0" type="line"/>
      <point x="285" y="-4" type="line" smooth="yes"/>
    </contour>
  </outline>
</glyph>
<glyph name="X" format="1">
  <advance width="577"/>
  <unicode hex="0058"/>
  <outline>
    <contour>
      <point x="320" y="396" type="line" smooth="yes"/>
      <point x="316" y="386"/>
      <point x="313" y="383"/>
      <point x="304" y="383" type="curve" smooth="yes"/>
      <point x="278" y="383" type="line" smooth="yes"/>
      <point x="268" y="383"/>
      <point x="266" y="386"/>
      <point x="262" y="396" type="curve" smooth="yes"/>
      <point x="167" y="635" type="line"/>
      <point x="12" y="635" type="line"/>
      <point x="103" y="414" type="line" smooth="yes"/>
      <point x="138" y="328"/>
      <point x="160" y="304"/>
      <point x="265" y="304" type="curve" smooth="yes"/>
      <point x="314" y="304" type="line" smooth="yes"/>
      <point x="419" y="304"/>
      <point x="429" y="323"/>
      <point x="470" y="413" type="curve" smooth="yes"/>
      <point x="571" y="635" type="line"/>
      <point x="424" y="635" type="line"/>
    </contour>
    <contour>
      <point x="429" y="309"/>
      <point x="414" y="334"/>
      <point x="309" y="334" type="curve" smooth="yes"/>
      <point x="261" y="334" type="line" smooth="yes"/>
      <point x="156" y="334"/>
      <point x="147" y="313"/>
      <point x="105" y="224" type="curve" smooth="yes"/>
      <point x="-2" y="0" type="line"/>
      <point x="146" y="0" type="line"/>
      <point x="255" y="241" type="line" smooth="yes"/>
      <point x="260" y="251"/>
      <point x="262" y="254"/>
      <point x="271" y="254" type="curve" smooth="yes"/>
      <point x="297" y="254" type="line" smooth="yes"/>
      <point x="306" y="254"/>
      <point x="308" y="252"/>
      <point x="313" y="241" type="curve" smooth="yes"/>
      <point x="423" y="0" type="line"/>
      <point x="579" y="0" type="line"/>
      <point x="471" y="223" type="line" smooth="yes"/>
    </contour>
  </outline>
</glyph>
<glyph name="Y" format="1">
  <advance width="557"/>
  <unicode hex="0059"/>
  <outline>
    <contour>
      <point x="306" y="358" type="line" smooth="yes"/>
      <point x="302" y="348"/>
      <point x="299" y="345"/>
      <point x="290" y="345" type="curve" smooth="yes"/>
      <point x="269" y="345" type="line" smooth="yes"/>
      <point x="259" y="345"/>
      <point x="256" y="348"/>
      <point x="253" y="358" type="curve" smooth="yes"/>
      <point x="160" y="635" type="line"/>
      <point x="5" y="635" type="line"/>
      <point x="114" y="326" type="line" smooth="yes"/>
      <point x="144" y="241"/>
      <point x="171" y="216"/>
      <point x="276" y="216" type="curve" smooth="yes"/>
      <point x="279" y="216" type="line" smooth="yes"/>
      <point x="384" y="216"/>
      <point x="401" y="233"/>
      <point x="435" y="325" type="curve" smooth="yes"/>
      <point x="550" y="635" type="line"/>
      <point x="403" y="635" type="line"/>
    </contour>
    <contour>
      <point x="348" y="0" type="line"/>
      <point x="348" y="308" type="line"/>
      <point x="200" y="308" type="line"/>
      <point x="200" y="0" type="line"/>
    </contour>
    <contour>
      <point x="279" y="625" type="move" name="top"/>
    </contour>
  </outline>
</glyph>
<glyph name="Z" format="1">
  <advance width="486"/>
  <unicode hex="005A"/>
  <outline>
    <contour>
      <point x="465" y="119" type="line"/>
      <point x="205" y="119" type="line" smooth="yes"/>
      <point x="194" y="119"/>
      <point x="192" y="131"/>
      <point x="198" y="139" type="curve" smooth="yes"/>
      <point x="481" y="517" type="line"/>
      <point x="481" y="587"/>
      <point x="450" y="637"/>
      <point x="375" y="637" type="curve" smooth="yes"/>
      <point x="40" y="636" type="line"/>
      <point x="40" y="516" type="line"/>
      <point x="289" y="517" type="line" smooth="yes"/>
      <point x="300" y="517"/>
      <point x="304" y="507"/>
      <point x="298" y="498" type="curve" smooth="yes"/>
      <point x="10" y="109" type="line"/>
      <point x="10" y="44"/>
      <point x="40" y="-1"/>
      <point x="105" y="-1" type="curve" smooth="yes"/>
      <point x="464" y="-1" type="line"/>
    </contour>
    <contour>
      <point x="246" y="625" type="move" name="top"/>
    </contour>
  </outline>
</glyph>
<glyph name="bracketleft" format="1">
  <advance width="289"/>
  <unicode hex="005B"/>
  <outline>
    <contour>
      <point x="274" y="-170" type="line"/>
      <point x="274" y="-70" type="line"/>
      <point x="192" y="-70" type="line"/>
      <point x="192" y="580" type="line"/>
      <point x="274" y="580" type="line"/>
      <point x="274" y="680" type="line"/>
      <point x="50" y="680" type="line"/>
      <point x="50" y="-170" type="line"/>
    </contour>
  </outline>
</glyph>
<glyph name="backslash" format="1">
  <advance width="459"/>
  <unicode hex="005C"/>
  <outline>
    <contour>
      <point x="311" y="-96" type="line"/>
      <point x="454" y="-96" type="line"/>
      <point x="146" y="675" type="line"/>
      <point x="5" y="675" type="line"/>
    </contour>
  </outline>
</glyph>
<glyph name="asciicircum" format="1">
  <advance width="505"/>
  <unicode hex="005E"/>
  <outline>
    <contour>
      <point x="206" y="675" type="line"/>
      <point x="40" y="327" type="line"/>
      <point x="147" y="327" type="line"/>
      <point x="267" y="603" type="line"/>
      <point x="236" y="603" type="line"/>
      <point x="357" y="327" type="line"/>
      <point x="465" y="327" type="line"/>
      <point x="298" y="675" type="line"/>
    </contour>
  </outline>
</glyph>
<glyph name="underscore" format="1">
  <advance width="457"/>
  <unicode hex="005F"/>
  <outline>
    <contour>
      <point x="437" y="-37" type="line"/>
      <point x="20" y="-37" type="line"/>
      <point x="20" y="-122" type="line"/>
      <point x="437" y="-122" type="line"/>
    </contour>
  </outline>
</glyph>
<glyph name="grave" format="1">
  <advance width="339"/>
  <unicode hex="0060"/>
  <outline>
    <contour>
      <point x="21" y="717" type="line"/>
      <point x="158" y="718" type="line"/>
      <point x="222" y="551" type="line"/>
      <point x="127" y="551" type="line"/>
    </contour>
    <contour>
      <point x="164" y="490" type="move" name="_top"/>
    </contour>
  </outline>
</glyph>
<glyph name="a" format="1">
  <advance width="449"/>
  <unicode hex="0061"/>
  <outline>
    <contour>
      <point x="170" y="-10" type="line" smooth="yes"/>
      <point x="240" y="-10"/>
      <point x="271" y="35"/>
      <point x="271" y="105" type="curve"/>
      <point x="266" y="105" type="line"/>
      <point x="279" y="0" type="line"/>
      <point x="409" y="0" type="line"/>
      <point x="409" y="347" type="line" smooth="yes"/>
      <point x="409" y="452"/>
      <point x="364" y="493"/>
      <point x="254" y="492" type="curve" smooth="yes"/>
      <point x="61" y="491" type="line"/>
      <point x="61" y="371" type="line"/>
      <point x="252" y="372" type="line" smooth="yes"/>
      <point x="262" y="372"/>
      <point x="266" y="368"/>
      <point x="266" y="358" type="curve" smooth="yes"/>
      <point x="266" y="105" type="line"/>
      <point x="179" y="105" type="line" smooth="yes"/>
      <point x="169" y="105"/>
      <point x="165" y="109"/>
      <point x="165" y="119" type="curve" smooth="yes"/>
      <point x="165" y="184" type="line" smooth="yes"/>
      <point x="165" y="194"/>
      <point x="169" y="198"/>
      <point x="179" y="198" type="curve" smooth="yes"/>
      <point x="282" y="198" type="line"/>
      <point x="282" y="298" type="line"/>
      <point x="175" y="298" type="line" smooth="yes"/>
      <point x="65" y="298"/>
      <point x="25" y="263"/>
      <point x="25" y="163" type="curve" smooth="yes"/>
      <point x="25" y="115" type="line" smooth="yes"/>
      <point x="25" y="25"/>
      <point x="65" y="-10"/>
      <point x="155" y="-10" type="curve" smooth="yes"/>
    </contour>
    <contour>
      <point x="409" y="0" type="move" name="ogonek"/>
    </contour>
    <contour>
      <point x="229" y="490" type="move" name="top"/>
    </contour>
  </outline>
</glyph>
<glyph name="b" format="1">
  <advance width="535"/>
  <unicode hex="0062"/>
  <outline>
    <contour>
      <point x="184" y="675" type="line"/>
      <point x="44" y="675" type="line"/>
      <point x="44" y="0" type="line"/>
      <point x="173" y="0" type="line"/>
      <point x="184" y="105" type="line"/>
      <point x="158" y="105" type="line"/>
      <point x="167" y="19"/>
      <point x="216" y="-10"/>
      <point x="304" y="-10" type="curve" smooth="yes"/>
      <point x="475" y="-10"/>
      <point x="509" y="52"/>
      <point x="509" y="250" type="curve" smooth="yes"/>
      <point x="509" y="450"/>
      <point x="477" y="500"/>
      <point x="311" y="500" type="curve" smooth="yes"/>
      <point x="178" y="500"/>
      <point x="180" y="447"/>
      <point x="171" y="371" type="curve"/>
      <point x="184" y="371" type="line"/>
    </contour>
    <contour>
      <point x="184" y="357"/>
      <point x="201" y="380"/>
      <point x="272" y="380" type="curve" smooth="yes"/>
      <point x="347" y="380"/>
      <point x="366" y="364"/>
      <point x="366" y="245" type="curve" smooth="yes"/>
      <point x="366" y="128"/>
      <point x="342" y="110"/>
      <point x="272" y="110" type="curve" smooth="yes"/>
      <point x="205" y="110"/>
      <point x="184" y="127"/>
      <point x="184" y="183" type="curve" smooth="yes"/>
      <point x="184" y="310" type="line" smooth="yes"/>
    </contour>
  </outline>
</glyph>
<glyph name="c" format="1">
  <advance width="366"/>
  <unicode hex="0063"/>
  <outline>
    <contour>
      <point x="351" y="-10" type="line"/>
      <point x="351" y="110" type="line"/>
      <point x="192" y="110" type="line" smooth="yes"/>
      <point x="183" y="110"/>
      <point x="178" y="114"/>
      <point x="178" y="124" type="curve" smooth="yes"/>
      <point x="178" y="366" type="line" smooth="yes"/>
      <point x="178" y="376"/>
      <point x="183" y="380"/>
      <point x="192" y="380" type="curve" smooth="yes"/>
      <point x="351" y="380" type="line"/>
      <point x="351" y="500" type="line"/>
      <point x="205" y="500" type="line" smooth="yes"/>
      <point x="85" y="500"/>
      <point x="35" y="455"/>
      <point x="35" y="350" type="curve" smooth="yes"/>
      <point x="35" y="140" type="line" smooth="yes"/>
      <point x="35" y="35"/>
      <point x="85" y="-10"/>
      <point x="205" y="-10" type="curve" smooth="yes"/>
    </contour>
  </outline>
</glyph>
<glyph name="d" format="1">
  <advance width="485"/>
  <unicode hex="0064"/>
  <outline>
    <contour>
      <point x="287" y="675" type="line"/>
      <point x="287" y="493" type="line"/>
      <point x="185" y="493" type="line" smooth="yes"/>
      <point x="75" y="493"/>
      <point x="35" y="458"/>
      <point x="35" y="358" type="curve" smooth="yes"/>
      <point x="35" y="115" type="line" smooth="yes"/>
      <point x="35" y="25"/>
      <point x="75" y="-10"/>
      <point x="165" y="-10" type="curve" smooth="yes"/>
      <point x="190" y="-10" type="line" smooth="yes"/>
      <point x="260" y="-10"/>
      <point x="291" y="35"/>
      <point x="291" y="105" type="curve"/>
      <point x="287" y="105" type="line"/>
      <point x="301" y="0" type="line"/>
      <point x="430" y="0" type="line"/>
      <point x="430" y="675" type="line"/>
    </contour>
    <contour>
      <point x="287" y="119" type="line" smooth="yes"/>
      <point x="287" y="110"/>
      <point x="283" y="105"/>
      <point x="273" y="105" type="curve" smooth="yes"/>
      <point x="189" y="105" type="line" smooth="yes"/>
      <point x="179" y="105"/>
      <point x="175" y="109"/>
      <point x="175" y="119" type="curve" smooth="yes"/>
      <point x="175" y="359" type="line" smooth="yes"/>
      <point x="175" y="369"/>
      <point x="179" y="373"/>
      <point x="189" y="373" type="curve" smooth="yes"/>
      <point x="302" y="373" type="line"/>
      <point x="287" y="389" type="line"/>
    </contour>
  </outline>
</glyph>
<glyph name="e" format="1">
  <advance width="502"/>
  <unicode hex="0065"/>
  <outline>
    <contour>
      <point x="332" y="-12"/>
      <point x="414" y="1"/>
      <point x="465" y="20" type="curve"/>
      <point x="444" y="128" type="line"/>
      <point x="392" y="116"/>
      <point x="326" y="108"/>
      <point x="278" y="108" type="curve" smooth="yes"/>
      <point x="182" y="108"/>
      <point x="169" y="127"/>
      <point x="169" y="245" type="curve" smooth="yes"/>
      <point x="169" y="364"/>
      <point x="186" y="380"/>
      <point x="256" y="380" type="curve" smooth="yes"/>
      <point x="309" y="380"/>
      <point x="334" y="370"/>
      <point x="334" y="314" type="curve" smooth="yes"/>
      <point x="334" y="294" type="line"/>
      <point x="138" y="294" type="line"/>
      <point x="138" y="188" type="line"/>
      <point x="477" y="188" type="line"/>
      <point x="477" y="250" type="line" smooth="yes"/>
      <point x="477" y="453"/>
      <point x="444" y="500"/>
      <point x="252" y="500" type="curve" smooth="yes"/>
      <point x="59" y="500"/>
      <point x="26" y="438"/>
      <point x="26" y="240" type="curve" smooth="yes"/>
      <point x="26" y="48"/>
      <point x="69" y="-12"/>
      <point x="260" y="-12" type="curve" smooth="yes"/>
    </contour>
  </outline>
</glyph>
<glyph name="f" format="1">
  <advance width="321"/>
  <unicode hex="0066"/>
  <outline>
    <contour>
      <point x="341" y="564" type="line"/>
      <point x="341" y="684" type="line"/>
      <point x="224" y="685" type="line" smooth="yes"/>
      <point x="114" y="686"/>
      <point x="69" y="645"/>
      <point x="69" y="540" type="curve" smooth="yes"/>
      <point x="69" y="470" type="line"/>
      <point x="89" y="490" type="line"/>
      <point x="19" y="490" type="line"/>
      <point x="19" y="380" type="line"/>
      <point x="89" y="380" type="line"/>
      <point x="69" y="400" type="line"/>
      <point x="69" y="0" type="line"/>
      <point x="211" y="0" type="line"/>
      <point x="211" y="400" type="line"/>
      <point x="191" y="380" type="line"/>
      <point x="321" y="380" type="line"/>
      <point x="321" y="490" type="line"/>
      <point x="191" y="490" type="line"/>
      <point x="211" y="470" type="line"/>
      <point x="211" y="551" type="line" smooth="yes"/>
      <point x="211" y="561"/>
      <point x="215" y="565"/>
      <point x="225" y="565" type="curve" smooth="yes"/>
    </contour>
  </outline>
</glyph>
<glyph name="g" format="1">
  <advance width="479"/>
  <unicode hex="0067"/>
  <outline>
    <contour>
      <point x="292" y="119" type="line" smooth="yes"/>
      <point x="292" y="110"/>
      <point x="288" y="105"/>
      <point x="278" y="105" type="curve" smooth="yes"/>
      <point x="194" y="105" type="line" smooth="yes"/>
      <point x="184" y="105"/>
      <point x="180" y="109"/>
      <point x="180" y="119" type="curve" smooth="yes"/>
      <point x="180" y="359" type="line" smooth="yes"/>
      <point x="180" y="369"/>
      <point x="184" y="373"/>
      <point x="194" y="373" type="curve" smooth="yes"/>
      <point x="307" y="373" type="line"/>
      <point x="292" y="389" type="line"/>
    </contour>
    <contour>
      <point x="292" y="-76"/>
      <point x="288" y="-80"/>
      <point x="278" y="-80" type="curve" smooth="yes"/>
      <point x="60" y="-80" type="line"/>
      <point x="60" y="-200" type="line"/>
      <point x="265" y="-200" type="line" smooth="yes"/>
      <point x="385" y="-200"/>
      <point x="435" y="-155"/>
      <point x="435" y="-50" type="curve" smooth="yes"/>
      <point x="435" y="490" type="line"/>
      <point x="190" y="493" type="line" smooth="yes"/>
      <point x="80" y="494"/>
      <point x="40" y="458"/>
      <point x="40" y="358" type="curve" smooth="yes"/>
      <point x="40" y="115" type="line" smooth="yes"/>
      <point x="40" y="25"/>
      <point x="80" y="-10"/>
      <point x="170" y="-10" type="curve" smooth="yes"/>
      <point x="195" y="-10" type="line" smooth="yes"/>
      <point x="265" y="-10"/>
      <point x="296" y="35"/>
      <point x="296" y="105" type="curve"/>
      <point x="292" y="105" type="line"/>
      <point x="292" y="-66" type="line" smooth="yes"/>
    </contour>
    <contour>
      <point x="240" y="490" type="move" name="top"/>
    </contour>
  </outline>
</glyph>
<glyph name="h" format="1">
  <advance width="478"/>
  <unicode hex="0068"/>
  <outline>
    <contour>
      <point x="282" y="500" type="line" smooth="yes"/>
      <point x="211" y="500"/>
      <point x="180" y="455"/>
      <point x="180" y="385" type="curve"/>
      <point x="185" y="385" type="line"/>
      <point x="185" y="675" type="line"/>
      <point x="43" y="675" type="line"/>
      <point x="45" y="0" type="line"/>
      <point x="187" y="0" type="line"/>
      <point x="185" y="371" type="line" smooth="yes"/>
      <point x="185" y="380"/>
      <point x="189" y="385"/>
      <point x="199" y="385" type="curve" smooth="yes"/>
      <point x="282" y="385" type="line" smooth="yes"/>
      <point x="292" y="385"/>
      <point x="296" y="381"/>
      <point x="296" y="371" type="curve" smooth="yes"/>
      <point x="296" y="0" type="line"/>
      <point x="438" y="0" type="line"/>
      <point x="438" y="375" type="line" smooth="yes"/>
      <point x="438" y="465"/>
      <point x="398" y="500"/>
      <point x="308" y="500" type="curve" smooth="yes"/>
    </contour>
  </outline>
</glyph>
<glyph name="i" format="1">
  <advance width="258"/>
  <unicode hex="0069"/>
  <outline>
    <contour>
      <point x="200" y="0" type="line"/>
      <point x="200" y="490" type="line"/>
      <point x="58" y="490" type="line"/>
      <point x="58" y="0" type="line"/>
    </contour>
    <contour>
      <point x="200" y="552" type="line"/>
      <point x="200" y="672" type="line"/>
      <point x="58" y="672" type="line"/>
      <point x="58" y="552" type="line"/>
    </contour>
  </outline>
</glyph>
<glyph name="j" format="1">
  <advance width="237"/>
  <unicode hex="006A"/>
  <outline>
    <contour>
      <point x="192" y="552" type="line"/>
      <point x="192" y="672" type="line"/>
      <point x="50" y="672" type="line"/>
      <point x="50" y="552" type="line"/>
    </contour>
    <contour>
      <point x="50" y="-76"/>
      <point x="46" y="-80"/>
      <point x="36" y="-80" type="curve" smooth="yes"/>
      <point x="-33" y="-80" type="line"/>
      <point x="-33" y="-200" type="line"/>
      <point x="22" y="-200" type="line" smooth="yes"/>
      <point x="142" y="-200"/>
      <point x="192" y="-155"/>
      <point x="192" y="-50" type="curve" smooth="yes"/>
      <point x="192" y="490" type="line"/>
      <point x="50" y="490" type="line"/>
      <point x="50" y="-66" type="line" smooth="yes"/>
    </contour>
  </outline>
</glyph>
<glyph name="k" format="1">
  <advance width="472"/>
  <unicode hex="006B"/>
  <outline>
    <contour>
      <point x="190" y="0" type="line"/>
      <point x="190" y="675" type="line"/>
      <point x="50" y="675" type="line"/>
      <point x="50" y="0" type="line"/>
    </contour>
    <contour>
      <point x="249" y="244" type="line" smooth="yes"/>
      <point x="354" y="244"/>
      <point x="376" y="256"/>
      <point x="399" y="354" type="curve" smooth="yes"/>
      <point x="431" y="490" type="line"/>
      <point x="288" y="490" type="line"/>
      <point x="253" y="333" type="line" smooth="yes"/>
      <point x="251" y="323"/>
      <point x="249" y="319"/>
      <point x="239" y="319" type="curve" smooth="yes"/>
      <point x="139" y="319" type="line"/>
      <point x="139" y="244" type="line"/>
    </contour>
    <contour>
      <point x="260" y="199" type="line" smooth="yes"/>
      <point x="270" y="199"/>
      <point x="272" y="195"/>
      <point x="274" y="185" type="curve" smooth="yes"/>
      <point x="319" y="0" type="line"/>
      <point x="467" y="0" type="line"/>
      <point x="425" y="164" type="line" smooth="yes"/>
      <point x="400" y="261"/>
      <point x="375" y="274"/>
      <point x="270" y="274" type="curve" smooth="yes"/>
      <point x="139" y="274" type="line"/>
      <point x="139" y="199" type="line"/>
    </contour>
  </outline>
</glyph>
<glyph name="l" format="1">
  <advance width="252"/>
  <unicode hex="006C"/>
  <outline>
    <contour>
      <point x="197" y="0" type="line"/>
      <point x="197" y="675" type="line"/>
      <point x="55" y="675" type="line"/>
      <point x="55" y="0" type="line"/>
    </contour>
  </outline>
</glyph>
<glyph name="m" format="1">
  <advance width="708"/>
  <unicode hex="006D"/>
  <outline>
    <contour>
      <point x="289" y="500" type="line" smooth="yes"/>
      <point x="218" y="500"/>
      <point x="187" y="455"/>
      <point x="187" y="385" type="curve"/>
      <point x="192" y="385" type="line"/>
      <point x="179" y="490" type="line"/>
      <point x="50" y="490" type="line"/>
      <point x="52" y="0" type="line"/>
      <point x="194" y="0" type="line"/>
      <point x="192" y="371" type="line" smooth="yes"/>
      <point x="192" y="380"/>
      <point x="196" y="385"/>
      <point x="206" y="385" type="curve" smooth="yes"/>
      <point x="279" y="385" type="line" smooth="yes"/>
      <point x="289" y="385"/>
      <point x="293" y="381"/>
      <point x="293" y="371" type="curve" smooth="yes"/>
      <point x="293" y="0" type="line"/>
      <point x="435" y="0" type="line"/>
      <point x="435" y="375" type="line" smooth="yes"/>
      <point x="435" y="465"/>
      <point x="395" y="500"/>
      <point x="305" y="500" type="curve" smooth="yes"/>
    </contour>
    <contour>
      <point x="532" y="500" type="line" smooth="yes"/>
      <point x="461" y="500"/>
      <point x="430" y="455"/>
      <point x="430" y="385" type="curve"/>
      <point x="430" y="371" type="line"/>
      <point x="435" y="371" type="line"/>
      <point x="435" y="380"/>
      <point x="439" y="385"/>
      <point x="449" y="385" type="curve" smooth="yes"/>
      <point x="520" y="385" type="line" smooth="yes"/>
      <point x="530" y="385"/>
      <point x="534" y="381"/>
      <point x="534" y="371" type="curve" smooth="yes"/>
      <point x="534" y="0" type="line"/>
      <point x="676" y="0" type="line"/>
      <point x="676" y="375" type="line" smooth="yes"/>
      <point x="676" y="465"/>
      <point x="636" y="500"/>
      <point x="546" y="500" type="curve" smooth="yes"/>
    </contour>
  </outline>
</glyph>
<glyph name="n" format="1">
  <advance width="528"/>
  <unicode hex="006E"/>
  <outline>
    <contour>
      <point x="167" y="490" type="line"/>
      <point x="40" y="490" type="line"/>
      <point x="40" y="0" type="line"/>
      <point x="180" y="0" type="line"/>
      <point x="180" y="313" type="line" smooth="yes"/>
      <point x="180" y="370"/>
      <point x="194" y="380"/>
      <point x="276" y="380" type="curve" smooth="yes"/>
      <point x="338" y="380"/>
      <point x="353" y="365"/>
      <point x="353" y="304" type="curve" smooth="yes"/>
      <point x="353" y="0" type="line"/>
      <point x="493" y="0" type="line"/>
      <point x="493" y="346" type="line" smooth="yes"/>
      <point x="493" y="472"/>
      <point x="433" y="500"/>
      <point x="294" y="500" type="curve" smooth="yes"/>
      <point x="170" y="500"/>
      <point x="156" y="436"/>
      <point x="146" y="363" type="curve"/>
      <point x="180" y="363" type="line"/>
    </contour>
  </outline>
</glyph>
<glyph name="o" format="1">
  <advance width="520"/>
  <unicode hex="006F"/>
  <outline>
    <contour>
      <point x="59" y="500"/>
      <point x="26" y="438"/>
      <point x="26" y="240" type="curve" smooth="yes"/>
      <point x="26" y="35"/>
      <point x="59" y="-10"/>
      <point x="252" y="-10" type="curve" smooth="yes"/>
      <point x="460" y="-10"/>
      <point x="494" y="52"/>
      <point x="494" y="250" type="curve" smooth="yes"/>
      <point x="494" y="453"/>
      <point x="460" y="500"/>
      <point x="262" y="500" type="curve" smooth="yes"/>
    </contour>
    <contour>
      <point x="324" y="380"/>
      <point x="351" y="368"/>
      <point x="351" y="245" type="curve" smooth="yes"/>
      <point x="351" y="129"/>
      <point x="332" y="110"/>
      <point x="257" y="110" type="curve" smooth="yes"/>
      <point x="196" y="110"/>
      <point x="169" y="124"/>
      <point x="169" y="245" type="curve" smooth="yes"/>
      <point x="169" y="361"/>
      <point x="188" y="380"/>
      <point x="257" y="380" type="curve" smooth="yes"/>
    </contour>
  </outline>
</glyph>
<glyph name="p" format="1">
  <advance width="535"/>
  <unicode hex="0070"/>
  <outline>
    <contour>
      <point x="173" y="490" type="line"/>
      <point x="44" y="490" type="line"/>
      <point x="44" y="-190" type="line"/>
      <point x="184" y="-190" type="line"/>
      <point x="184" y="105" type="line"/>
      <point x="163" y="105" type="line"/>
      <point x="172" y="19"/>
      <point x="216" y="-10"/>
      <point x="304" y="-10" type="curve" smooth="yes"/>
      <point x="473" y="-10"/>
      <point x="507" y="52"/>
      <point x="507" y="250" type="curve" smooth="yes"/>
      <point x="507" y="450"/>
      <point x="475" y="500"/>
      <point x="311" y="500" type="curve" smooth="yes"/>
      <point x="178" y="500"/>
      <point x="176" y="447"/>
      <point x="167" y="371" type="curve"/>
      <point x="184" y="371" type="line"/>
    </contour>
    <contour>
      <point x="184" y="357"/>
      <point x="201" y="380"/>
      <point x="272" y="380" type="curve" smooth="yes"/>
      <point x="347" y="380"/>
      <point x="364" y="364"/>
      <point x="364" y="245" type="curve" smooth="yes"/>
      <point x="364" y="128"/>
      <point x="342" y="110"/>
      <point x="272" y="110" type="curve" smooth="yes"/>
      <point x="205" y="110"/>
      <point x="184" y="127"/>
      <point x="184" y="182" type="curve" smooth="yes"/>
      <point x="184" y="310" type="line" smooth="yes"/>
    </contour>
  </outline>
</glyph>
<glyph name="q" format="1">
  <advance width="490"/>
  <unicode hex="0071"/>
  <outline>
    <contour>
      <point x="190" y="493" type="line" smooth="yes"/>
      <point x="80" y="494"/>
      <point x="40" y="458"/>
      <point x="40" y="358" type="curve" smooth="yes"/>
      <point x="40" y="115" type="line" smooth="yes"/>
      <point x="40" y="25"/>
      <point x="80" y="-10"/>
      <point x="170" y="-10" type="curve" smooth="yes"/>
      <point x="195" y="-10" type="line" smooth="yes"/>
      <point x="265" y="-10"/>
      <point x="296" y="35"/>
      <point x="296" y="105" type="curve"/>
      <point x="292" y="105" type="line"/>
      <point x="292" y="-190" type="line"/>
      <point x="435" y="-190" type="line"/>
      <point x="435" y="490" type="line"/>
    </contour>
    <contour>
      <point x="292" y="119" type="line" smooth="yes"/>
      <point x="292" y="110"/>
      <point x="288" y="105"/>
      <point x="278" y="105" type="curve" smooth="yes"/>
      <point x="194" y="105" type="line" smooth="yes"/>
      <point x="184" y="105"/>
      <point x="180" y="109"/>
      <point x="180" y="119" type="curve" smooth="yes"/>
      <point x="180" y="359" type="line" smooth="yes"/>
      <point x="180" y="369"/>
      <point x="184" y="373"/>
      <point x="194" y="373" type="curve" smooth="yes"/>
      <point x="307" y="373" type="line"/>
      <point x="292" y="389" type="line"/>
    </contour>
  </outline>
</glyph>
<glyph name="r" format="1">
  <advance width="327"/>
  <unicode hex="0072"/>
  <outline>
    <contour>
      <point x="187" y="0" type="line"/>
      <point x="187" y="294" type="line" smooth="yes"/>
      <point x="187" y="357"/>
      <point x="204" y="380"/>
      <point x="278" y="380" type="curve" smooth="yes"/>
      <point x="302" y="380"/>
      <point x="314" y="379"/>
      <point x="332" y="377" type="curve"/>
      <point x="337" y="499" type="line"/>
      <point x="331" y="500"/>
      <point x="324" y="500"/>
      <point x="317" y="500" type="curve" smooth="yes"/>
      <point x="181" y="500"/>
      <point x="183" y="447"/>
      <point x="174" y="371" type="curve"/>
      <point x="187" y="371" type="line"/>
      <point x="176" y="490" type="line"/>
      <point x="47" y="490" type="line"/>
      <point x="47" y="0" type="line"/>
    </contour>
  </outline>
</glyph>
<glyph name="s" format="1">
  <advance width="464"/>
  <unicode hex="0073"/>
  <outline>
    <contour>
      <point x="286" y="178"/>
      <point x="298" y="172"/>
      <point x="298" y="141" type="curve" smooth="yes"/>
      <point x="298" y="113"/>
      <point x="277" y="105"/>
      <point x="220" y="105" type="curve" smooth="yes"/>
      <point x="166" y="105"/>
      <point x="98" y="113"/>
      <point x="55" y="120" type="curve"/>
      <point x="40" y="4" type="line"/>
      <point x="87" y="-4"/>
      <point x="156" y="-11"/>
      <point x="222" y="-11" type="curve" smooth="yes"/>
      <point x="375" y="-11"/>
      <point x="438" y="14"/>
      <point x="438" y="152" type="curve" smooth="yes"/>
      <point x="438" y="252"/>
      <point x="407" y="288"/>
      <point x="330" y="299" type="curve" smooth="yes"/>
      <point x="227" y="314" type="line" smooth="yes"/>
      <point x="196" y="319"/>
      <point x="185" y="325"/>
      <point x="185" y="350" type="curve" smooth="yes"/>
      <point x="185" y="384"/>
      <point x="206" y="385"/>
      <point x="244" y="385" type="curve" smooth="yes"/>
      <point x="303" y="385"/>
      <point x="370" y="376"/>
      <point x="406" y="372" type="curve"/>
      <point x="419" y="485" type="line"/>
      <point x="377" y="493"/>
      <point x="293" y="500"/>
      <point x="235" y="500" type="curve" smooth="yes"/>
      <point x="88" y="500"/>
      <point x="35" y="479"/>
      <point x="35" y="349" type="curve" smooth="yes"/>
      <point x="35" y="253"/>
      <point x="60" y="208"/>
      <point x="141" y="197" type="curve" smooth="yes"/>
      <point x="254" y="182" type="line" smooth="yes"/>
    </contour>
  </outline>
</glyph>
<glyph name="t" format="1">
  <advance width="347"/>
  <unicode hex="0074"/>
  <outline>
    <contour>
      <point x="71" y="175" type="line" smooth="yes"/>
      <point x="71" y="26"/>
      <point x="132" y="-10"/>
      <point x="255" y="-10" type="curve" smooth="yes"/>
      <point x="291" y="-10"/>
      <point x="316" y="-8"/>
      <point x="347" y="-7" type="curve"/>
      <point x="347" y="110" type="line"/>
      <point x="281" y="110" type="line" smooth="yes"/>
      <point x="225" y="110"/>
      <point x="211" y="128"/>
      <point x="211" y="177" type="curve" smooth="yes"/>
      <point x="211" y="590" type="line"/>
      <point x="71" y="590" type="line"/>
    </contour>
    <contour>
      <point x="8" y="490" type="line"/>
      <point x="8" y="385" type="line"/>
      <point x="347" y="385" type="line"/>
      <point x="347" y="490" type="line"/>
    </contour>
  </outline>
</glyph>
<glyph name="u" format="1">
  <advance width="485"/>
  <unicode hex="0075"/>
  <outline>
    <contour>
      <point x="196" y="-10" type="line" smooth="yes"/>
      <point x="267" y="-10"/>
      <point x="298" y="35"/>
      <point x="298" y="105" type="curve"/>
      <point x="293" y="105" type="line"/>
      <point x="306" y="0" type="line"/>
      <point x="435" y="0" type="line"/>
      <point x="433" y="490" type="line"/>
      <point x="291" y="490" type="line"/>
      <point x="293" y="105" type="line"/>
      <point x="196" y="105" type="line" smooth="yes"/>
      <point x="186" y="105"/>
      <point x="182" y="109"/>
      <point x="182" y="119" type="curve" smooth="yes"/>
      <point x="182" y="490" type="line"/>
      <point x="40" y="490" type="line"/>
      <point x="40" y="115" type="line" smooth="yes"/>
      <point x="40" y="25"/>
      <point x="80" y="-10"/>
      <point x="170" y="-10" type="curve" smooth="yes"/>
    </contour>
    <contour>
      <point x="435" y="0" type="move" name="ogonek"/>
    </contour>
    <contour>
      <point x="230" y="490" type="move" name="top"/>
    </contour>
  </outline>
</glyph>
<glyph name="v" format="1">
  <advance width="448"/>
  <unicode hex="0076"/>
  <outline>
    <contour>
      <point x="335" y="-10"/>
      <point x="357" y="25"/>
      <point x="375" y="115" type="curve" smooth="yes"/>
      <point x="448" y="490" type="line"/>
      <point x="310" y="490" type="line"/>
      <point x="247" y="119" type="line" smooth="yes"/>
      <point x="245" y="109"/>
      <point x="243" y="105"/>
      <point x="233" y="105" type="curve" smooth="yes"/>
      <point x="210" y="105" type="line"/>
      <point x="150" y="490" type="line"/>
      <point x="5" y="490" type="line"/>
      <point x="91" y="0" type="line"/>
      <point x="245" y="-6" type="line" smooth="yes"/>
    </contour>
  </outline>
</glyph>
<glyph name="w" format="1">
  <advance width="716"/>
  <unicode hex="0077"/>
  <outline>
    <contour>
      <point x="229" y="-10" type="line" smooth="yes"/>
      <point x="319" y="-10"/>
      <point x="359" y="25"/>
      <point x="359" y="115" type="curve"/>
      <point x="355" y="115" type="line"/>
      <point x="355" y="25"/>
      <point x="395" y="-10"/>
      <point x="485" y="-10" type="curve" smooth="yes"/>
      <point x="541" y="-10" type="line" smooth="yes"/>
      <point x="631" y="-10"/>
      <point x="671" y="25"/>
      <point x="671" y="115" type="curve" smooth="yes"/>
      <point x="669" y="490" type="line"/>
      <point x="527" y="490" type="line"/>
      <point x="529" y="119" type="line" smooth="yes"/>
      <point x="529" y="110"/>
      <point x="525" y="105"/>
      <point x="515" y="105" type="curve" smooth="yes"/>
      <point x="440" y="105" type="line" smooth="yes"/>
      <point x="430" y="105"/>
      <point x="426" y="109"/>
      <point x="426" y="119" type="curve" smooth="yes"/>
      <point x="426" y="490" type="line"/>
      <point x="288" y="490" type="line"/>
      <point x="288" y="119" type="line" smooth="yes"/>
      <point x="288" y="110"/>
      <point x="284" y="105"/>
      <point x="274" y="105" type="curve" smooth="yes"/>
      <point x="201" y="105" type="line" smooth="yes"/>
      <point x="191" y="105"/>
      <point x="187" y="109"/>
      <point x="187" y="119" type="curve" smooth="yes"/>
      <point x="187" y="490" type="line"/>
      <point x="45" y="490" type="line"/>
      <point x="45" y="115" type="line" smooth="yes"/>
      <point x="45" y="25"/>
      <point x="85" y="-10"/>
      <point x="175" y="-10" type="curve" smooth="yes"/>
    </contour>
  </outline>
</glyph>
<glyph name="x" format="1">
  <advance width="475"/>
  <unicode hex="0078"/>
  <outline>
    <contour>
      <point x="149" y="0" type="line"/>
      <point x="208" y="175" type="line" smooth="yes"/>
      <point x="211" y="183"/>
      <point x="213" y="186"/>
      <point x="222" y="186" type="curve" smooth="yes"/>
      <point x="253" y="186" type="line" smooth="yes"/>
      <point x="262" y="186"/>
      <point x="264" y="183"/>
      <point x="267" y="174" type="curve" smooth="yes"/>
      <point x="326" y="0" type="line"/>
      <point x="474" y="0" type="line"/>
      <point x="417" y="151" type="line" smooth="yes"/>
      <point x="387" y="231"/>
      <point x="366" y="252"/>
      <point x="294" y="258" type="curve"/>
      <point x="295" y="235" type="line"/>
      <point x="356" y="241"/>
      <point x="377" y="263"/>
      <point x="405" y="341" type="curve" smooth="yes"/>
      <point x="459" y="490" type="line"/>
      <point x="319" y="490" type="line"/>
      <point x="261" y="317" type="line" smooth="yes"/>
      <point x="258" y="308"/>
      <point x="255" y="306"/>
      <point x="245" y="306" type="curve" smooth="yes"/>
      <point x="233" y="306" type="line" smooth="yes"/>
      <point x="223" y="306"/>
      <point x="221" y="309"/>
      <point x="218" y="318" type="curve" smooth="yes"/>
      <point x="162" y="490" type="line"/>
      <point x="19" y="490" type="line"/>
      <point x="73" y="341" type="line" smooth="yes"/>
      <point x="103" y="258"/>
      <point x="124" y="238"/>
      <point x="195" y="234" type="curve"/>
      <point x="194" y="259" type="line"/>
      <point x="113" y="255"/>
      <point x="93" y="237"/>
      <point x="61" y="151" type="curve" smooth="yes"/>
      <point x="4" y="0" type="line"/>
    </contour>
  </outline>
</glyph>
<glyph name="y" format="1">
  <advance width="485"/>
  <unicode hex="0079"/>
  <outline>
    <contour>
      <point x="293" y="-76"/>
      <point x="289" y="-80"/>
      <point x="279" y="-80" type="curve" smooth="yes"/>
      <point x="60" y="-80" type="line"/>
      <point x="60" y="-200" type="line"/>
      <point x="265" y="-200" type="line" smooth="yes"/>
      <point x="385" y="-200"/>
      <point x="435" y="-155"/>
      <point x="435" y="-50" type="curve" smooth="yes"/>
      <point x="433" y="490" type="line"/>
      <point x="291" y="490" type="line"/>
      <point x="293" y="105" type="line"/>
      <point x="196" y="105" type="line" smooth="yes"/>
      <point x="186" y="105"/>
      <point x="182" y="109"/>
      <point x="182" y="119" type="curve" smooth="yes"/>
      <point x="182" y="490" type="line"/>
      <point x="40" y="490" type="line"/>
      <point x="40" y="115" type="line" smooth="yes"/>
      <point x="40" y="25"/>
      <point x="80" y="-10"/>
      <point x="170" y="-10" type="curve" smooth="yes"/>
      <point x="196" y="-10" type="line" smooth="yes"/>
      <point x="267" y="-10"/>
      <point x="298" y="35"/>
      <point x="298" y="105" type="curve"/>
      <point x="293" y="105" type="line"/>
      <point x="293" y="-66" type="line" smooth="yes"/>
    </contour>
    <contour>
      <point x="230" y="490" type="move" name="top"/>
    </contour>
  </outline>
</glyph>
<glyph name="z" format="1">
  <advance width="381"/>
  <unicode hex="007A"/>
  <outline>
    <contour>
      <point x="354" y="104" type="line"/>
      <point x="186" y="104" type="line" smooth="yes"/>
      <point x="175" y="104"/>
      <point x="172" y="115"/>
      <point x="179" y="124" type="curve" smooth="yes"/>
      <point x="363" y="380" type="line"/>
      <point x="363" y="450"/>
      <point x="343" y="490"/>
      <point x="263" y="490" type="curve" smooth="yes"/>
      <point x="29" y="489" type="line"/>
      <point x="29" y="379" type="line"/>
      <point x="186" y="380" type="line" smooth="yes"/>
      <point x="197" y="380"/>
      <point x="201" y="370"/>
      <point x="195" y="361" type="curve" smooth="yes"/>
      <point x="5" y="99" type="line"/>
      <point x="5" y="34"/>
      <point x="30" y="-1"/>
      <point x="95" y="-1" type="curve" smooth="yes"/>
      <point x="353" y="-1" type="line"/>
    </contour>
  </outline>
</glyph>
<glyph name="braceleft" format="1">
  <advance width="334"/>
  <unicode hex="007B"/>
  <outline>
    <contour>
      <point x="234" y="564" type="line" smooth="yes"/>
      <point x="234" y="574"/>
      <point x="239" y="578"/>
      <point x="248" y="578" type="curve" smooth="yes"/>
      <point x="319" y="578" type="line"/>
      <point x="319" y="680" type="line"/>
      <point x="280" y="680" type="line" smooth="yes"/>
      <point x="155" y="680"/>
      <point x="90" y="620"/>
      <point x="90" y="510" type="curve" smooth="yes"/>
      <point x="90" y="324" type="line" smooth="yes"/>
      <point x="90" y="314"/>
      <point x="85" y="310"/>
      <point x="76" y="310" type="curve" smooth="yes"/>
      <point x="40" y="310" type="line"/>
      <point x="40" y="198" type="line"/>
      <point x="76" y="198" type="line" smooth="yes"/>
      <point x="85" y="198"/>
      <point x="90" y="194"/>
      <point x="90" y="184" type="curve" smooth="yes"/>
      <point x="90" y="0" type="line" smooth="yes"/>
      <point x="90" y="-110"/>
      <point x="155" y="-170"/>
      <point x="280" y="-170" type="curve" smooth="yes"/>
      <point x="319" y="-170" type="line"/>
      <point x="319" y="-68" type="line"/>
      <point x="248" y="-68" type="line" smooth="yes"/>
      <point x="239" y="-68"/>
      <point x="234" y="-64"/>
      <point x="234" y="-54" type="curve" smooth="yes"/>
      <point x="234" y="135" type="line" smooth="yes"/>
      <point x="234" y="215"/>
      <point x="183" y="255"/>
      <point x="103" y="255" type="curve"/>
      <point x="103" y="253" type="line"/>
      <point x="183" y="253"/>
      <point x="234" y="293"/>
      <point x="234" y="373" type="curve" smooth="yes"/>
    </contour>
  </outline>
</glyph>
<glyph name="asciitilde" format="1">
  <advance width="454"/>
  <unicode hex="007E"/>
  <outline>
    <contour>
      <point x="123" y="197" type="line"/>
      <point x="123" y="227"/>
      <point x="131" y="251"/>
      <point x="156" y="251" type="curve" smooth="yes"/>
      <point x="194" y="251"/>
      <point x="266" y="200"/>
      <point x="320" y="200" type="curve" smooth="yes"/>
      <point x="396" y="200"/>
      <point x="421" y="260"/>
      <point x="421" y="363" type="curve"/>
      <point x="331" y="363" type="line"/>
      <point x="331" y="335"/>
      <point x="324" y="310"/>
      <point x="294" y="310" type="curve" smooth="yes"/>
      <point x="256" y="310"/>
      <point x="180" y="362"/>
      <point x="126" y="362" type="curve" smooth="yes"/>
      <point x="56" y="362"/>
      <point x="33" y="308"/>
      <point x="33" y="198" type="curve"/>
    </contour>
  </outline>
</glyph>
<glyph name="cent" format="1">
  <advance width="376"/>
  <unicode hex="00A2"/>
  <outline>
    <contour>
      <point x="351" y="70" type="line"/>
      <point x="351" y="190" type="line"/>
      <point x="187" y="190" type="line" smooth="yes"/>
      <point x="178" y="190"/>
      <point x="173" y="194"/>
      <point x="173" y="204" type="curve" smooth="yes"/>
      <point x="173" y="436" type="line" smooth="yes"/>
      <point x="173" y="446"/>
      <point x="178" y="450"/>
      <point x="187" y="450" type="curve" smooth="yes"/>
      <point x="351" y="450" type="line"/>
      <point x="351" y="570" type="line"/>
      <point x="200" y="570" type="line" smooth="yes"/>
      <point x="80" y="570"/>
      <point x="30" y="525"/>
      <point x="30" y="420" type="curve" smooth="yes"/>
      <point x="30" y="220" type="line" smooth="yes"/>
      <point x="30" y="115"/>
      <point x="80" y="70"/>
      <point x="200" y="70" type="curve" smooth="yes"/>
    </contour>
    <contour>
      <point x="155" y="549" type="line"/>
      <point x="263" y="549" type="line"/>
      <point x="263" y="669" type="line"/>
      <point x="155" y="669" type="line"/>
    </contour>
    <contour>
      <point x="155" y="-25" type="line"/>
      <point x="263" y="-25" type="line"/>
      <point x="263" y="95" type="line"/>
      <point x="155" y="95" type="line"/>
    </contour>
  </outline>
</glyph>
<glyph name="currency" format="1">
  <advance width="618"/>
  <unicode hex="00A4"/>
  <outline>
    <contour>
      <point x="358" y="415" type="line" smooth="yes"/>
      <point x="367" y="415"/>
      <point x="372" y="411"/>
      <point x="372" y="401" type="curve" smooth="yes"/>
      <point x="372" y="241" type="line" smooth="yes"/>
      <point x="372" y="231"/>
      <point x="367" y="227"/>
      <point x="358" y="227" type="curve" smooth="yes"/>
      <point x="260" y="227" type="line" smooth="yes"/>
      <point x="251" y="227"/>
      <point x="246" y="231"/>
      <point x="246" y="241" type="curve" smooth="yes"/>
      <point x="246" y="401" type="line" smooth="yes"/>
      <point x="246" y="411"/>
      <point x="251" y="415"/>
      <point x="260" y="415" type="curve" smooth="yes"/>
    </contour>
    <contour>
      <point x="107" y="262" type="line" smooth="yes"/>
      <point x="107" y="162"/>
      <point x="167" y="107"/>
      <point x="282" y="107" type="curve" smooth="yes"/>
      <point x="336" y="107" type="line" smooth="yes"/>
      <point x="451" y="107"/>
      <point x="511" y="162"/>
      <point x="511" y="262" type="curve" smooth="yes"/>
      <point x="511" y="380" type="line" smooth="yes"/>
      <point x="511" y="480"/>
      <point x="451" y="535"/>
      <point x="336" y="535" type="curve" smooth="yes"/>
      <point x="282" y="535" type="line" smooth="yes"/>
      <point x="167" y="535"/>
      <point x="107" y="480"/>
      <point x="107" y="380" type="curve" smooth="yes"/>
    </contour>
    <contour>
      <point x="421" y="506" type="line"/>
      <point x="494" y="433" type="line"/>
      <point x="593" y="532" type="line"/>
      <point x="520" y="605" type="line"/>
    </contour>
    <contour>
      <point x="25" y="110" type="line"/>
      <point x="98" y="37" type="line"/>
      <point x="197" y="136" type="line"/>
      <point x="124" y="209" type="line"/>
    </contour>
    <contour>
      <point x="494" y="209" type="line"/>
      <point x="421" y="136" type="line"/>
      <point x="520" y="37" type="line"/>
      <point x="593" y="110" type="line"/>
    </contour>
    <contour>
      <point x="98" y="605" type="line"/>
      <point x="25" y="532" type="line"/>
      <point x="124" y="433" type="line"/>
      <point x="197" y="506" type="line"/>
    </contour>
  </outline>
</glyph>
<glyph name="yen" format="1">
  <advance width="555"/>
  <unicode hex="00A5"/>
  <outline>
    <contour>
      <point x="301" y="348" type="line"/>
      <point x="297" y="338"/>
      <point x="294" y="335"/>
      <point x="285" y="335" type="curve" smooth="yes"/>
      <point x="274" y="335" type="line" smooth="yes"/>
      <point x="264" y="335"/>
      <point x="261" y="338"/>
      <point x="258" y="348" type="curve"/>
      <point x="170" y="600" type="line"/>
      <point x="17" y="600" type="line"/>
      <point x="132" y="316" type="line" smooth="yes"/>
      <point x="154" y="262"/>
      <point x="168" y="246"/>
      <point x="200" y="234" type="curve"/>
      <point x="200" y="0" type="line"/>
      <point x="348" y="0" type="line"/>
      <point x="348" y="231" type="line"/>
      <point x="380" y="240"/>
      <point x="391" y="254"/>
      <point x="417" y="315" type="curve" smooth="yes"/>
      <point x="538" y="600" type="line"/>
      <point x="393" y="600" type="line"/>
    </contour>
    <contour>
      <point x="212" y="109" type="line"/>
      <point x="212" y="189" type="line"/>
      <point x="68" y="189" type="line"/>
      <point x="68" y="109" type="line"/>
    </contour>
    <contour>
      <point x="212" y="229" type="line"/>
      <point x="212" y="309" type="line"/>
      <point x="68" y="309" type="line"/>
      <point x="68" y="229" type="line"/>
    </contour>
    <contour>
      <point x="481" y="109" type="line"/>
      <point x="481" y="189" type="line"/>
      <point x="336" y="189" type="line"/>
      <point x="336" y="109" type="line"/>
    </contour>
    <contour>
      <point x="481" y="229" type="line"/>
      <point x="481" y="309" type="line"/>
      <point x="336" y="309" type="line"/>
      <point x="336" y="229" type="line"/>
    </contour>
  </outline>
</glyph>
<glyph name="brokenbar" format="1">
  <advance width="275"/>
  <unicode hex="00A6"/>
  <outline>
    <contour>
      <point x="195" y="-60" type="line"/>
      <point x="195" y="230" type="line"/>
      <point x="80" y="230" type="line"/>
      <point x="80" y="-60" type="line"/>
    </contour>
    <contour>
      <point x="195" y="385" type="line"/>
      <point x="195" y="675" type="line"/>
      <point x="80" y="675" type="line"/>
      <point x="80" y="385" type="line"/>
    </contour>
  </outline>
</glyph>
<glyph name="section" format="1">
  <advance width="470"/>
  <unicode hex="00A7"/>
  <outline>
    <contour>
      <point x="405" y="-128"/>
      <point x="443" y="-68"/>
      <point x="445" y="24" type="curve" smooth="yes"/>
      <point x="445" y="235" type="line" smooth="yes"/>
      <point x="445" y="322"/>
      <point x="415" y="348"/>
      <point x="351" y="371" type="curve" smooth="yes"/>
      <point x="185" y="430" type="line" smooth="yes"/>
      <point x="176" y="433"/>
      <point x="171" y="438"/>
      <point x="171" y="448" type="curve" smooth="yes"/>
      <point x="171" y="493" type="line" smooth="yes"/>
      <point x="171" y="503"/>
      <point x="176" y="507"/>
      <point x="185" y="507" type="curve" smooth="yes"/>
      <point x="430" y="507" type="line"/>
      <point x="430" y="635" type="line"/>
      <point x="185" y="640" type="line" smooth="yes"/>
      <point x="65" y="643"/>
      <point x="27" y="583"/>
      <point x="25" y="491" type="curve" smooth="yes"/>
      <point x="25" y="280" type="line" smooth="yes"/>
      <point x="25" y="193"/>
      <point x="55" y="167"/>
      <point x="119" y="144" type="curve" smooth="yes"/>
      <point x="285" y="85" type="line" smooth="yes"/>
      <point x="294" y="82"/>
      <point x="299" y="77"/>
      <point x="299" y="67" type="curve" smooth="yes"/>
      <point x="299" y="22" type="line" smooth="yes"/>
      <point x="299" y="12"/>
      <point x="294" y="8"/>
      <point x="285" y="8" type="curve" smooth="yes"/>
      <point x="40" y="8" type="line"/>
      <point x="40" y="-120" type="line"/>
      <point x="285" y="-125" type="line" smooth="yes"/>
    </contour>
    <contour>
      <point x="304" y="194" type="line"/>
      <point x="188" y="234" type="line" smooth="yes"/>
      <point x="172" y="240"/>
      <point x="171" y="250"/>
      <point x="171" y="265" type="curve" smooth="yes"/>
      <point x="171" y="327" type="line"/>
      <point x="165" y="322" type="line"/>
      <point x="282" y="281" type="line" smooth="yes"/>
      <point x="298" y="275"/>
      <point x="299" y="265"/>
      <point x="299" y="250" type="curve" smooth="yes"/>
      <point x="299" y="189" type="line"/>
    </contour>
  </outline>
</glyph>
<glyph name="copyright" format="1">
  <advance width="519"/>
  <unicode hex="00A9"/>
  <outline>
    <contour>
      <point x="389" y="591" type="line" smooth="yes"/>
      <point x="396" y="591"/>
      <point x="401" y="587"/>
      <point x="401" y="579" type="curve" smooth="yes"/>
      <point x="401" y="207" type="line" smooth="yes"/>
      <point x="401" y="199"/>
      <point x="396" y="195"/>
      <point x="389" y="195" type="curve" smooth="yes"/>
      <point x="130" y="195" type="line" smooth="yes"/>
      <point x="123" y="195"/>
      <point x="118" y="199"/>
      <point x="118" y="207" type="curve" smooth="yes"/>
      <point x="118" y="579" type="line" smooth="yes"/>
      <point x="118" y="587"/>
      <point x="123" y="591"/>
      <point x="130" y="591" type="curve" smooth="yes"/>
    </contour>
    <contour>
      <point x="55" y="248" type="line" smooth="yes"/>
      <point x="55" y="171"/>
      <point x="92" y="141"/>
      <point x="172" y="141" type="curve" smooth="yes"/>
      <point x="347" y="141" type="line" smooth="yes"/>
      <point x="427" y="141"/>
      <point x="464" y="171"/>
      <point x="464" y="248" type="curve" smooth="yes"/>
      <point x="464" y="538" type="line" smooth="yes"/>
      <point x="464" y="615"/>
      <point x="427" y="645"/>
      <point x="347" y="645" type="curve" smooth="yes"/>
      <point x="172" y="645" type="line" smooth="yes"/>
      <point x="92" y="645"/>
      <point x="55" y="615"/>
      <point x="55" y="538" type="curve" smooth="yes"/>
    </contour>
    <contour>
      <point x="363" y="233" type="line"/>
      <point x="363" y="328" type="line"/>
      <point x="275" y="328" type="line" smooth="yes"/>
      <point x="266" y="328"/>
      <point x="261" y="332"/>
      <point x="261" y="342" type="curve" smooth="yes"/>
      <point x="261" y="444" type="line" smooth="yes"/>
      <point x="261" y="454"/>
      <point x="266" y="458"/>
      <point x="275" y="458" type="curve" smooth="yes"/>
      <point x="363" y="458" type="line"/>
      <point x="363" y="553" type="line"/>
      <point x="280" y="553" type="line" smooth="yes"/>
      <point x="186" y="553"/>
      <point x="151" y="523"/>
      <point x="151" y="433" type="curve" smooth="yes"/>
      <point x="151" y="353" type="line" smooth="yes"/>
      <point x="151" y="263"/>
      <point x="186" y="233"/>
      <point x="280" y="233" type="curve" smooth="yes"/>
    </contour>
  </outline>
</glyph>
<glyph name="ordfeminine" format="1">
  <advance width="385"/>
  <unicode hex="00AA"/>
  <outline>
    <contour>
      <point x="155" y="265" type="line" smooth="yes"/>
      <point x="215" y="265"/>
      <point x="226" y="305"/>
      <point x="226" y="370" type="curve"/>
      <point x="221" y="370" type="line"/>
      <point x="234" y="275" type="line"/>
      <point x="345" y="275" type="line"/>
      <point x="345" y="545" type="line" smooth="yes"/>
      <point x="345" y="640"/>
      <point x="319" y="670"/>
      <point x="209" y="670" type="curve" smooth="yes"/>
      <point x="54" y="670" type="line"/>
      <point x="54" y="574" type="line"/>
      <point x="207" y="575" type="line" smooth="yes"/>
      <point x="217" y="575"/>
      <point x="221" y="571"/>
      <point x="221" y="561" type="curve" smooth="yes"/>
      <point x="221" y="370" type="line"/>
      <point x="159" y="370" type="line" smooth="yes"/>
      <point x="149" y="370"/>
      <point x="145" y="374"/>
      <point x="145" y="384" type="curve" smooth="yes"/>
      <point x="145" y="424" type="line" smooth="yes"/>
      <point x="145" y="434"/>
      <point x="149" y="438"/>
      <point x="159" y="438" type="curve" smooth="yes"/>
      <point x="237" y="438" type="line"/>
      <point x="237" y="523" type="line"/>
      <point x="160" y="523" type="line" smooth="yes"/>
      <point x="70" y="523"/>
      <point x="30" y="498"/>
      <point x="30" y="398" type="curve" smooth="yes"/>
      <point x="30" y="385" type="line" smooth="yes"/>
      <point x="30" y="301"/>
      <point x="64" y="265"/>
      <point x="138" y="265" type="curve" smooth="yes"/>
    </contour>
  </outline>
</glyph>
<glyph name="logicalnot" format="1">
  <advance width="555"/>
  <unicode hex="00AC"/>
  <outline>
    <contour>
      <point x="510" y="349" type="line"/>
      <point x="40" y="349" type="line"/>
      <point x="40" y="249" type="line"/>
      <point x="395" y="249" type="line"/>
      <point x="395" y="117" type="line"/>
      <point x="510" y="117" type="line"/>
    </contour>
  </outline>
</glyph>
<glyph name="registered" format="1">
  <advance width="534"/>
  <unicode hex="00AE"/>
  <outline>
    <contour>
      <point x="438" y="591" type="line" smooth="yes"/>
      <point x="445" y="591"/>
      <point x="450" y="587"/>
      <point x="450" y="579" type="curve" smooth="yes"/>
      <point x="450" y="207" type="line" smooth="yes"/>
      <point x="450" y="199"/>
      <point x="445" y="195"/>
      <point x="438" y="195" type="curve" smooth="yes"/>
      <point x="130" y="195" type="line" smooth="yes"/>
      <point x="123" y="195"/>
      <point x="118" y="199"/>
      <point x="118" y="207" type="curve" smooth="yes"/>
      <point x="118" y="579" type="line" smooth="yes"/>
      <point x="118" y="587"/>
      <point x="123" y="591"/>
      <point x="130" y="591" type="curve" smooth="yes"/>
    </contour>
    <contour>
      <point x="55" y="248" type="line" smooth="yes"/>
      <point x="55" y="171"/>
      <point x="92" y="141"/>
      <point x="172" y="141" type="curve" smooth="yes"/>
      <point x="396" y="141" type="line" smooth="yes"/>
      <point x="476" y="141"/>
      <point x="513" y="171"/>
      <point x="513" y="248" type="curve" smooth="yes"/>
      <point x="513" y="538" type="line" smooth="yes"/>
      <point x="513" y="615"/>
      <point x="476" y="645"/>
      <point x="396" y="645" type="curve" smooth="yes"/>
      <point x="172" y="645" type="line" smooth="yes"/>
      <point x="92" y="645"/>
      <point x="55" y="615"/>
      <point x="55" y="538" type="curve" smooth="yes"/>
    </contour>
    <contour>
      <point x="258" y="232" type="line"/>
      <point x="258" y="350" type="line"/>
      <point x="248" y="338" type="line"/>
      <point x="286" y="338" type="line" smooth="yes"/>
      <point x="293" y="338"/>
      <point x="293" y="335"/>
      <point x="294" y="331" type="curve" smooth="yes"/>
      <point x="330" y="232" type="line"/>
      <point x="430" y="232" type="line"/>
      <point x="399" y="321" type="line" smooth="yes"/>
      <point x="389" y="347"/>
      <point x="377" y="360"/>
      <point x="351" y="364" type="curve"/>
      <point x="353" y="344" type="line"/>
      <point x="397" y="355"/>
      <point x="420" y="388"/>
      <point x="420" y="428" type="curve" smooth="yes"/>
      <point x="420" y="472" type="line" smooth="yes"/>
      <point x="420" y="524"/>
      <point x="386" y="556"/>
      <point x="326" y="555" type="curve" smooth="yes"/>
      <point x="158" y="552" type="line"/>
      <point x="158" y="232" type="line"/>
    </contour>
    <contour>
      <point x="258" y="494" type="line"/>
      <point x="248" y="482" type="line"/>
      <point x="308" y="482" type="line" smooth="yes"/>
      <point x="313" y="482"/>
      <point x="315" y="480"/>
      <point x="315" y="474" type="curve" smooth="yes"/>
      <point x="315" y="418" type="line" smooth="yes"/>
      <point x="315" y="413"/>
      <point x="313" y="411"/>
      <point x="308" y="411" type="curve" smooth="yes"/>
      <point x="248" y="411" type="line"/>
      <point x="258" y="401" type="line"/>
    </contour>
  </outline>
</glyph>
<glyph name="macron" format="1">
  <advance width="362"/>
  <unicode hex="00AF"/>
  <outline>
    <contour>
      <point x="322" y="668" type="line"/>
      <point x="40" y="668" type="line"/>
      <point x="40" y="568" type="line"/>
      <point x="322" y="568" type="line"/>
    </contour>
    <contour>
      <point x="181" y="490" type="move" name="_top"/>
    </contour>
  </outline>
</glyph>
<glyph name="degree" format="1">
  <advance width="325"/>
  <unicode hex="00B0"/>
  <outline>
    <contour>
      <point x="20" y="414" type="line" smooth="yes"/>
      <point x="20" y="349"/>
      <point x="52" y="320"/>
      <point x="125" y="320" type="curve" smooth="yes"/>
      <point x="200" y="320" type="line" smooth="yes"/>
      <point x="273" y="320"/>
      <point x="305" y="349"/>
      <point x="305" y="414" type="curve" smooth="yes"/>
      <point x="305" y="550" type="line" smooth="yes"/>
      <point x="305" y="616"/>
      <point x="273" y="645"/>
      <point x="200" y="645" type="curve" smooth="yes"/>
      <point x="125" y="645" type="line" smooth="yes"/>
      <point x="52" y="645"/>
      <point x="20" y="616"/>
      <point x="20" y="550" type="curve" smooth="yes"/>
    </contour>
    <contour>
      <point x="188" y="553" type="line" smooth="yes"/>
      <point x="197" y="553"/>
      <point x="202" y="549"/>
      <point x="202" y="539" type="curve" smooth="yes"/>
      <point x="202" y="426" type="line" smooth="yes"/>
      <point x="202" y="416"/>
      <point x="197" y="412"/>
      <point x="188" y="412" type="curve" smooth="yes"/>
      <point x="137" y="412" type="line" smooth="yes"/>
      <point x="128" y="412"/>
      <point x="123" y="416"/>
      <point x="123" y="426" type="curve" smooth="yes"/>
      <point x="123" y="539" type="line" smooth="yes"/>
      <point x="123" y="549"/>
      <point x="128" y="553"/>
      <point x="137" y="553" type="curve" smooth="yes"/>
    </contour>
  </outline>
</glyph>
<glyph name="twosuperior" format="1">
  <advance width="356"/>
  <unicode hex="00B2"/>
  <outline>
    <contour>
      <point x="54" y="438"/>
      <point x="33" y="423"/>
      <point x="33" y="370" type="curve" smooth="yes"/>
      <point x="33" y="249" type="line"/>
      <point x="324" y="249" type="line"/>
      <point x="324" y="344" type="line"/>
      <point x="153" y="344" type="line"/>
      <point x="153" y="353" type="line" smooth="yes"/>
      <point x="153" y="363"/>
      <point x="155" y="368"/>
      <point x="164" y="372" type="curve" smooth="yes"/>
      <point x="265" y="420" type="line" smooth="yes"/>
      <point x="307" y="440"/>
      <point x="328" y="460"/>
      <point x="328" y="500" type="curve" smooth="yes"/>
      <point x="328" y="544" type="line" smooth="yes"/>
      <point x="328" y="602"/>
      <point x="305" y="640"/>
      <point x="231" y="639" type="curve" smooth="yes"/>
      <point x="43" y="636" type="line"/>
      <point x="43" y="541" type="line"/>
      <point x="199" y="541" type="line" smooth="yes"/>
      <point x="204" y="541"/>
      <point x="208" y="538"/>
      <point x="208" y="532" type="curve" smooth="yes"/>
      <point x="208" y="521" type="line" smooth="yes"/>
      <point x="208" y="515"/>
      <point x="204" y="512"/>
      <point x="199" y="509" type="curve" smooth="yes"/>
      <point x="90" y="456" type="line" smooth="yes"/>
    </contour>
  </outline>
</glyph>
<glyph name="threesuperior" format="1">
  <advance width="370"/>
  <unicode hex="00B3"/>
  <outline>
    <contour>
      <point x="281" y="246"/>
      <point x="320" y="282"/>
      <point x="320" y="347" type="curve" smooth="yes"/>
      <point x="320" y="371" type="line" smooth="yes"/>
      <point x="320" y="432"/>
      <point x="280" y="459"/>
      <point x="183" y="459" type="curve"/>
      <point x="183" y="431" type="line"/>
      <point x="272" y="431"/>
      <point x="318" y="458"/>
      <point x="318" y="516" type="curve" smooth="yes"/>
      <point x="318" y="538" type="line" smooth="yes"/>
      <point x="318" y="602"/>
      <point x="278" y="640"/>
      <point x="205" y="639" type="curve" smooth="yes"/>
      <point x="27" y="636" type="line"/>
      <point x="27" y="541" type="line"/>
      <point x="189" y="541" type="line" smooth="yes"/>
      <point x="195" y="541"/>
      <point x="198" y="538"/>
      <point x="198" y="532" type="curve" smooth="yes"/>
      <point x="198" y="501" type="line" smooth="yes"/>
      <point x="198" y="494"/>
      <point x="195" y="492"/>
      <point x="189" y="492" type="curve" smooth="yes"/>
      <point x="64" y="492" type="line"/>
      <point x="64" y="401" type="line"/>
      <point x="192" y="401" type="line" smooth="yes"/>
      <point x="198" y="401"/>
      <point x="201" y="398"/>
      <point x="201" y="392" type="curve" smooth="yes"/>
      <point x="201" y="353" type="line" smooth="yes"/>
      <point x="201" y="347"/>
      <point x="198" y="344"/>
      <point x="192" y="344" type="curve" smooth="yes"/>
      <point x="25" y="344" type="line"/>
      <point x="25" y="249" type="line"/>
      <point x="208" y="247" type="line" smooth="yes"/>
    </contour>
  </outline>
</glyph>
<glyph name="acute" format="1">
  <advance width="329"/>
  <unicode hex="00B4"/>
  <outline>
    <contour>
      <point x="63" y="551" type="line"/>
      <point x="128" y="718" type="line"/>
      <point x="267" y="717" type="line"/>
      <point x="165" y="551" type="line"/>
    </contour>
    <contour>
      <point x="115" y="490" type="move" name="_top"/>
    </contour>
  </outline>
</glyph>
<glyph name="paragraph" format="1">
  <advance width="579"/>
  <unicode hex="00B6"/>
  <outline>
    <contour>
      <point x="386" y="0" type="line"/>
      <point x="509" y="0" type="line"/>
      <point x="509" y="635" type="line"/>
      <point x="200" y="640" type="line" smooth="yes"/>
      <point x="80" y="642"/>
      <point x="15" y="580"/>
      <point x="15" y="485" type="curve" smooth="yes"/>
      <point x="15" y="449" type="line" smooth="yes"/>
      <point x="15" y="364"/>
      <point x="80" y="289"/>
      <point x="200" y="289" type="curve" smooth="yes"/>
      <point x="216" y="289" type="line"/>
      <point x="196" y="312" type="line"/>
      <point x="196" y="0" type="line"/>
      <point x="319" y="0" type="line"/>
      <point x="319" y="531" type="line"/>
      <point x="299" y="511" type="line"/>
      <point x="406" y="511" type="line"/>
      <point x="386" y="531" type="line"/>
    </contour>
  </outline>
</glyph>
<glyph name="cedilla" format="1">
  <advance width="288"/>
  <unicode hex="00B8"/>
  <outline>
    <contour>
      <point x="152" y="-140" type="line" smooth="yes"/>
      <point x="152" y="-145"/>
      <point x="149" y="-147"/>
      <point x="145" y="-147" type="curve" smooth="yes"/>
      <point x="54" y="-147" type="line"/>
      <point x="54" y="-220" type="line"/>
      <point x="142" y="-220" type="line" smooth="yes"/>
      <point x="201" y="-220"/>
      <point x="231" y="-195"/>
      <point x="231" y="-140" type="curve" smooth="yes"/>
      <point x="231" y="-102" type="line" smooth="yes"/>
      <point x="231" y="-54"/>
      <point x="202" y="-38"/>
      <point x="151" y="-38" type="curve" smooth="yes"/>
      <point x="144" y="-38" type="line"/>
      <point x="152" y="5" type="line"/>
      <point x="89" y="16" type="line"/>
      <point x="64" y="-103" type="line"/>
      <point x="145" y="-103" type="line" smooth="yes"/>
      <point x="149" y="-103"/>
      <point x="152" y="-105"/>
      <point x="152" y="-110" type="curve" smooth="yes"/>
    </contour>
    <contour>
      <point x="150" y="0" type="move" name="_bottom"/>
    </contour>
  </outline>
</glyph>
<glyph name="onesuperior" format="1">
  <advance width="333"/>
  <unicode hex="00B9"/>
  <outline>
    <contour>
      <point x="313" y="344" type="line"/>
      <point x="42" y="344" type="line"/>
      <point x="42" y="249" type="line"/>
      <point x="313" y="249" type="line"/>
    </contour>
    <contour>
      <point x="12" y="551" type="line"/>
      <point x="59" y="467" type="line"/>
      <point x="154" y="521" type="line"/>
      <point x="139" y="529" type="line"/>
      <point x="139" y="249" type="line"/>
      <point x="255" y="249" type="line"/>
      <point x="255" y="635" type="line"/>
      <point x="148" y="635" type="line"/>
    </contour>
  </outline>
</glyph>
<glyph name="ordmasculine" format="1">
  <advance width="414"/>
  <unicode hex="00BA"/>
  <outline>
    <contour>
      <point x="247" y="574" type="line" smooth="yes"/>
      <point x="256" y="574"/>
      <point x="261" y="570"/>
      <point x="261" y="560" type="curve" smooth="yes"/>
      <point x="261" y="380" type="line" smooth="yes"/>
      <point x="261" y="370"/>
      <point x="256" y="366"/>
      <point x="247" y="366" type="curve" smooth="yes"/>
      <point x="171" y="366" type="line" smooth="yes"/>
      <point x="162" y="366"/>
      <point x="157" y="370"/>
      <point x="157" y="380" type="curve" smooth="yes"/>
      <point x="157" y="560" type="line" smooth="yes"/>
      <point x="157" y="570"/>
      <point x="162" y="574"/>
      <point x="171" y="574" type="curve" smooth="yes"/>
    </contour>
    <contour>
      <point x="40" y="405" type="line" smooth="yes"/>
      <point x="40" y="306"/>
      <point x="85" y="266"/>
      <point x="193" y="266" type="curve" smooth="yes"/>
      <point x="225" y="266" type="line" smooth="yes"/>
      <point x="333" y="266"/>
      <point x="378" y="306"/>
      <point x="378" y="405" type="curve" smooth="yes"/>
      <point x="378" y="530" type="line" smooth="yes"/>
      <point x="378" y="634"/>
      <point x="333" y="674"/>
      <point x="225" y="674" type="curve" smooth="yes"/>
      <point x="193" y="674" type="line" smooth="yes"/>
      <point x="85" y="674"/>
      <point x="40" y="634"/>
      <point x="40" y="530" type="curve" smooth="yes"/>
    </contour>
  </outline>
</glyph>
<glyph name="AE" format="1">
  <advance width="818"/>
  <unicode hex="00C6"/>
  <outline>
    <contour>
      <point x="145" y="0" type="line"/>
      <point x="216" y="176" type="line"/>
      <point x="188" y="157" type="line"/>
      <point x="419" y="157" type="line"/>
      <point x="399" y="177" type="line"/>
      <point x="399" y="0" type="line"/>
      <point x="788" y="0" type="line"/>
      <point x="788" y="129" type="line"/>
      <point x="527" y="129" type="line"/>
      <point x="547" y="109" type="line"/>
      <point x="547" y="276" type="line"/>
      <point x="527" y="256" type="line"/>
      <point x="763" y="256" type="line"/>
      <point x="763" y="383" type="line"/>
      <point x="527" y="383" type="line"/>
      <point x="547" y="363" type="line"/>
      <point x="547" y="526" type="line"/>
      <point x="527" y="506" type="line"/>
      <point x="783" y="506" type="line"/>
      <point x="783" y="635" type="line"/>
      <point x="360" y="637" type="line" smooth="yes"/>
      <point x="268" y="637"/>
      <point x="254" y="608"/>
      <point x="218" y="520" type="curve" smooth="yes"/>
      <point x="2" y="0" type="line"/>
    </contour>
    <contour>
      <point x="344" y="493" type="line" smooth="yes"/>
      <point x="348" y="503"/>
      <point x="348" y="507"/>
      <point x="358" y="507" type="curve" smooth="yes"/>
      <point x="419" y="507" type="line"/>
      <point x="399" y="527" type="line"/>
      <point x="399" y="264" type="line"/>
      <point x="419" y="284" type="line"/>
      <point x="237" y="284" type="line"/>
      <point x="251" y="264" type="line"/>
    </contour>
  </outline>
</glyph>
<glyph name="Oslash" format="1">
  <advance width="600"/>
  <unicode hex="00D8"/>
  <outline>
    <contour>
      <point x="435" y="690" type="line"/>
      <point x="75" y="-58" type="line"/>
      <point x="160" y="-58" type="line"/>
      <point x="520" y="690" type="line"/>
    </contour>
    <component base="O"/>
  </outline>
</glyph>
<glyph name="Thorn" format="1">
  <advance width="571"/>
  <unicode hex="00DE"/>
  <outline>
    <contour>
      <point x="218" y="0" type="line"/>
      <point x="218" y="138" type="line"/>
      <point x="198" y="115" type="line"/>
      <point x="341" y="115" type="line" smooth="yes"/>
      <point x="461" y="115"/>
      <point x="526" y="190"/>
      <point x="526" y="285" type="curve" smooth="yes"/>
      <point x="526" y="376" type="line" smooth="yes"/>
      <point x="526" y="481"/>
      <point x="461" y="541"/>
      <point x="341" y="541" type="curve" smooth="yes"/>
      <point x="193" y="541" type="line"/>
      <point x="218" y="519" type="line"/>
      <point x="218" y="635" type="line"/>
      <point x="70" y="635" type="line"/>
      <point x="70" y="0" type="line"/>
    </contour>
    <contour>
      <point x="218" y="436" type="line"/>
      <point x="198" y="412" type="line"/>
      <point x="362" y="412" type="line" smooth="yes"/>
      <point x="371" y="412"/>
      <point x="376" y="408"/>
      <point x="376" y="398" type="curve" smooth="yes"/>
      <point x="376" y="258" type="line" smooth="yes"/>
      <point x="376" y="248"/>
      <point x="371" y="244"/>
      <point x="362" y="244" type="curve" smooth="yes"/>
      <point x="198" y="244" type="line"/>
      <point x="218" y="224" type="line"/>
    </contour>
  </outline>
</glyph>
<glyph name="germandbls" format="1">
  <advance width="535"/>
  <unicode hex="00DF"/>
  <outline>
    <contour>
      <point x="74" y="400" type="line"/>
      <point x="74" y="0" type="line"/>
      <point x="216" y="0" type="line"/>
      <point x="216" y="506" type="line" smooth="yes"/>
      <point x="216" y="516"/>
      <point x="221" y="520"/>
      <point x="230" y="520" type="curve" smooth="yes"/>
      <point x="333" y="520" type="line" smooth="yes"/>
      <point x="342" y="520"/>
      <point x="347" y="516"/>
      <point x="347" y="506" type="curve" smooth="yes"/>
      <point x="347" y="397" type="line" smooth="yes"/>
      <point x="347" y="387"/>
      <point x="335" y="383"/>
      <point x="326" y="383" type="curve" smooth="yes"/>
      <point x="266" y="383" type="line"/>
      <point x="266" y="268" type="line"/>
      <point x="348" y="268" type="line" smooth="yes"/>
      <point x="357" y="268"/>
      <point x="362" y="264"/>
      <point x="362" y="254" type="curve" smooth="yes"/>
      <point x="362" y="129" type="line" smooth="yes"/>
      <point x="362" y="119"/>
      <point x="357" y="115"/>
      <point x="348" y="115" type="curve" smooth="yes"/>
      <point x="266" y="115" type="line"/>
      <point x="266" y="-5" type="line"/>
      <point x="320" y="-5" type="line" smooth="yes"/>
      <point x="440" y="-5"/>
      <point x="505" y="55"/>
      <point x="505" y="160" type="curve" smooth="yes"/>
      <point x="505" y="206" type="line" smooth="yes"/>
      <point x="505" y="306"/>
      <point x="439" y="351"/>
      <point x="305" y="351" type="curve"/>
      <point x="295" y="304" type="line"/>
      <point x="415" y="304"/>
      <point x="490" y="349"/>
      <point x="490" y="444" type="curve" smooth="yes"/>
      <point x="490" y="475" type="line" smooth="yes"/>
      <point x="490" y="580"/>
      <point x="425" y="640"/>
      <point x="305" y="640" type="curve" smooth="yes"/>
      <point x="259" y="640" type="line" smooth="yes"/>
      <point x="134" y="640"/>
      <point x="74" y="573"/>
      <point x="74" y="479" type="curve" smooth="yes"/>
      <point x="74" y="470" type="line"/>
      <point x="94" y="490" type="line"/>
      <point x="25" y="490" type="line"/>
      <point x="25" y="380" type="line"/>
      <point x="94" y="380" type="line"/>
    </contour>
  </outline>
</glyph>
<glyph name="eth" format="1">
  <advance width="478"/>
  <unicode hex="00F0"/>
  <outline>
    <contour>
      <point x="268" y="-10" type="line" smooth="yes"/>
      <point x="388" y="-10"/>
      <point x="435" y="35"/>
      <point x="435" y="140" type="curve" smooth="yes"/>
      <point x="435" y="541" type="line" smooth="yes"/>
      <point x="435" y="646"/>
      <point x="390" y="687"/>
      <point x="280" y="686" type="curve" smooth="yes"/>
      <point x="120" y="685" type="line"/>
      <point x="120" y="582" type="line"/>
      <point x="280" y="583" type="line" smooth="yes"/>
      <point x="290" y="583"/>
      <point x="294" y="579"/>
      <point x="294" y="569" type="curve" smooth="yes"/>
      <point x="294" y="460" type="line"/>
      <point x="300" y="460" type="line"/>
      <point x="205" y="460" type="line" smooth="yes"/>
      <point x="85" y="460"/>
      <point x="40" y="415"/>
      <point x="40" y="310" type="curve" smooth="yes"/>
      <point x="40" y="140" type="line" smooth="yes"/>
      <point x="40" y="35"/>
      <point x="90" y="-10"/>
      <point x="210" y="-10" type="curve" smooth="yes"/>
    </contour>
    <contour>
      <point x="186" y="110"/>
      <point x="181" y="114"/>
      <point x="181" y="124" type="curve" smooth="yes"/>
      <point x="181" y="341" type="line" smooth="yes"/>
      <point x="181" y="351"/>
      <point x="186" y="355"/>
      <point x="195" y="355" type="curve" smooth="yes"/>
      <point x="307" y="355" type="line"/>
      <point x="295" y="365" type="line"/>
      <point x="295" y="124" type="line" smooth="yes"/>
      <point x="295" y="114"/>
      <point x="290" y="110"/>
      <point x="281" y="110" type="curve" smooth="yes"/>
      <point x="195" y="110" type="line" smooth="yes"/>
    </contour>
    <contour>
      <point x="488" y="607" type="line"/>
      <point x="463" y="667" type="line"/>
      <point x="187" y="542" type="line"/>
      <point x="214" y="481" type="line"/>
    </contour>
  </outline>
</glyph>
<glyph name="thorn" format="1">
  <advance width="490"/>
  <unicode hex="00FE"/>
  <outline>
    <contour>
      <point x="198" y="-190" type="line"/>
      <point x="198" y="-2" type="line"/>
      <point x="300" y="-2" type="line" smooth="yes"/>
      <point x="410" y="-2"/>
      <point x="450" y="33"/>
      <point x="450" y="133" type="curve" smooth="yes"/>
      <point x="450" y="375" type="line" smooth="yes"/>
      <point x="450" y="465"/>
      <point x="410" y="500"/>
      <point x="320" y="500" type="curve" smooth="yes"/>
      <point x="295" y="500" type="line" smooth="yes"/>
      <point x="225" y="500"/>
      <point x="194" y="455"/>
      <point x="194" y="385" type="curve"/>
      <point x="198" y="385" type="line"/>
      <point x="197" y="675" type="line"/>
      <point x="55" y="675" type="line"/>
      <point x="55" y="-190" type="line"/>
    </contour>
    <contour>
      <point x="198" y="371" type="line" smooth="yes"/>
      <point x="198" y="380"/>
      <point x="202" y="385"/>
      <point x="212" y="385" type="curve" smooth="yes"/>
      <point x="296" y="385" type="line" smooth="yes"/>
      <point x="306" y="385"/>
      <point x="310" y="381"/>
      <point x="310" y="371" type="curve" smooth="yes"/>
      <point x="310" y="129" type="line" smooth="yes"/>
      <point x="310" y="119"/>
      <point x="306" y="115"/>
      <point x="296" y="115" type="curve" smooth="yes"/>
      <point x="183" y="115" type="line"/>
      <point x="198" y="99" type="line"/>
    </contour>
  </outline>
</glyph>
<glyph name="uni0123" format="1">
  <advance width="479"/>
  <unicode hex="0123"/>
  <outline>
    <contour>
      <point x="189" y="620" type="line"/>
      <point x="189" y="746" type="line"/>
      <point x="305" y="746" type="line"/>
      <point x="305" y="642" type="line" smooth="yes"/>
      <point x="305" y="591"/>
      <point x="284" y="553"/>
      <point x="242" y="515" type="curve"/>
      <point x="202" y="547" type="line"/>
      <point x="221" y="579"/>
      <point x="228" y="600"/>
      <point x="228" y="627" type="curve"/>
      <point x="239" y="620" type="line"/>
    </contour>
    <component base="g"/>
  </outline>
</glyph>
<glyph name="dotlessi" format="1">
  <advance width="258"/>
  <unicode hex="0131"/>
  <outline>
    <contour>
      <point x="200" y="0" type="line"/>
      <point x="200" y="490" type="line"/>
      <point x="58" y="490" type="line"/>
      <point x="58" y="0" type="line"/>
    </contour>
    <contour>
      <point x="200" y="0" type="move" name="ogonek"/>
    </contour>
    <contour>
      <point x="129" y="490" type="move" name="top"/>
    </contour>
  </outline>
</glyph>
<glyph name="lslash" format="1">
  <advance width="262"/>
  <unicode hex="0142"/>
  <outline>
    <contour>
      <point x="244" y="420" type="line"/>
      <point x="-10" y="328" type="line"/>
      <point x="18" y="243" type="line"/>
      <point x="272" y="336" type="line"/>
    </contour>
    <component base="l" xOffset="3"/>
  </outline>
</glyph>
<glyph name="OE" format="1">
  <advance width="817"/>
  <unicode hex="0152"/>
  <outline>
    <contour>
      <point x="787" y="0" type="line"/>
      <point x="787" y="129" type="line"/>
      <point x="526" y="129" type="line"/>
      <point x="546" y="109" type="line"/>
      <point x="546" y="278" type="line"/>
      <point x="526" y="258" type="line"/>
      <point x="762" y="258" type="line"/>
      <point x="762" y="385" type="line"/>
      <point x="526" y="385" type="line"/>
      <point x="546" y="365" type="line"/>
      <point x="546" y="526" type="line"/>
      <point x="526" y="506" type="line"/>
      <point x="782" y="506" type="line"/>
      <point x="782" y="635" type="line"/>
      <point x="238" y="640" type="line" smooth="yes"/>
      <point x="117" y="641"/>
      <point x="58" y="585"/>
      <point x="58" y="480" type="curve" smooth="yes"/>
      <point x="58" y="155" type="line" smooth="yes"/>
      <point x="58" y="50"/>
      <point x="118" y="-6"/>
      <point x="238" y="-5" type="curve" smooth="yes"/>
    </contour>
    <contour>
      <point x="418" y="128" type="line"/>
      <point x="222" y="128" type="line" smooth="yes"/>
      <point x="213" y="128"/>
      <point x="208" y="132"/>
      <point x="208" y="142" type="curve" smooth="yes"/>
      <point x="208" y="493" type="line" smooth="yes"/>
      <point x="208" y="503"/>
      <point x="213" y="507"/>
      <point x="222" y="507" type="curve" smooth="yes"/>
      <point x="418" y="507" type="line"/>
      <point x="398" y="527" type="line"/>
      <point x="398" y="104" type="line"/>
    </contour>
  </outline>
</glyph>
<glyph name="florin" format="1">
  <advance width="419"/>
  <unicode hex="0192"/>
  <outline>
    <contour>
      <point x="83" y="-190" type="line" smooth="yes"/>
      <point x="193" y="-191"/>
      <point x="229" y="-150"/>
      <point x="238" y="-45" type="curve" smooth="yes"/>
      <point x="270" y="330" type="line"/>
      <point x="250" y="310" type="line"/>
      <point x="365" y="310" type="line"/>
      <point x="365" y="420" type="line"/>
      <point x="256" y="420" type="line"/>
      <point x="276" y="400" type="line"/>
      <point x="288" y="551" type="line" smooth="yes"/>
      <point x="289" y="561"/>
      <point x="292" y="565"/>
      <point x="302" y="565" type="curve" smooth="yes"/>
      <point x="403" y="564" type="line"/>
      <point x="403" y="684" type="line"/>
      <point x="301" y="685" type="line" smooth="yes"/>
      <point x="191" y="686"/>
      <point x="155" y="644"/>
      <point x="146" y="540" type="curve" smooth="yes"/>
      <point x="134" y="400" type="line"/>
      <point x="154" y="420" type="line"/>
      <point x="78" y="420" type="line"/>
      <point x="78" y="310" type="line"/>
      <point x="148" y="310" type="line"/>
      <point x="128" y="330" type="line"/>
      <point x="96" y="-56" type="line" smooth="yes"/>
      <point x="95" y="-66"/>
      <point x="92" y="-70"/>
      <point x="82" y="-70" type="curve" smooth="yes"/>
      <point x="6" y="-69" type="line"/>
      <point x="6" y="-189" type="line"/>
    </contour>
  </outline>
</glyph>
<glyph name="circumflex" format="1">
  <advance width="449"/>
  <unicode hex="02C6"/>
  <outline>
    <contour>
      <point x="300" y="713" type="line"/>
      <point x="159" y="713" type="line"/>
      <point x="57" y="551" type="line"/>
      <point x="168" y="551" type="line"/>
      <point x="235" y="658" type="line"/>
      <point x="222" y="658" type="line"/>
      <point x="281" y="551" type="line"/>
      <point x="396" y="551" type="line"/>
    </contour>
    <contour>
      <point x="225" y="490" type="move" name="_top"/>
    </contour>
  </outline>
</glyph>
<glyph name="breve" format="1">
  <advance width="348"/>
  <unicode hex="02D8"/>
  <outline>
    <contour>
      <point x="45" y="699" type="line"/>
      <point x="45" y="600"/>
      <point x="72" y="552"/>
      <point x="193" y="552" type="curve" smooth="yes"/>
      <point x="306" y="552"/>
      <point x="335" y="599"/>
      <point x="335" y="699" type="curve"/>
      <point x="249" y="699" type="line"/>
      <point x="249" y="662"/>
      <point x="241" y="636"/>
      <point x="193" y="636" type="curve" smooth="yes"/>
      <point x="141" y="636"/>
      <point x="132" y="662"/>
      <point x="132" y="699" type="curve"/>
    </contour>
    <contour>
      <point x="176" y="490" type="move" name="_top"/>
    </contour>
  </outline>
</glyph>
<glyph name="ring" format="1">
  <advance width="385"/>
  <unicode hex="02DA"/>
  <outline>
    <contour>
      <point x="285" y="529"/>
      <point x="312" y="562"/>
      <point x="312" y="639" type="curve" smooth="yes"/>
      <point x="312" y="719"/>
      <point x="285" y="749"/>
      <point x="198" y="749" type="curve" smooth="yes"/>
      <point x="112" y="749"/>
      <point x="87" y="719"/>
      <point x="87" y="639" type="curve" smooth="yes"/>
      <point x="87" y="562"/>
      <point x="112" y="529"/>
      <point x="198" y="529" type="curve" smooth="yes"/>
    </contour>
    <contour>
      <point x="162" y="590"/>
      <point x="154" y="604"/>
      <point x="154" y="639" type="curve" smooth="yes"/>
      <point x="154" y="678"/>
      <point x="162" y="688"/>
      <point x="198" y="688" type="curve" smooth="yes"/>
      <point x="235" y="688"/>
      <point x="245" y="678"/>
      <point x="245" y="639" type="curve" smooth="yes"/>
      <point x="245" y="604"/>
      <point x="235" y="590"/>
      <point x="198" y="590" type="curve" smooth="yes"/>
    </contour>
    <contour>
      <point x="193" y="490" type="move" name="_top"/>
    </contour>
  </outline>
</glyph>
<glyph name="ogonek" format="1">
  <advance width="392"/>
  <unicode hex="02DB"/>
  <outline>
    <contour>
      <point x="305" y="-220" type="line"/>
      <point x="305" y="-130" type="line"/>
      <point x="227" y="-130" type="line" smooth="yes"/>
      <point x="223" y="-130"/>
      <point x="220" y="-128"/>
      <point x="220" y="-123" type="curve" smooth="yes"/>
      <point x="220" y="-97" type="line" smooth="yes"/>
      <point x="220" y="-88"/>
      <point x="221" y="-88"/>
      <point x="228" y="-80" type="curve" smooth="yes"/>
      <point x="290" y="0" type="line"/>
      <point x="206" y="6" type="line"/>
      <point x="141" y="-54" type="line" smooth="yes"/>
      <point x="122" y="-71"/>
      <point x="115" y="-89"/>
      <point x="115" y="-120" type="curve" smooth="yes"/>
      <point x="115" y="-145" type="line" smooth="yes"/>
      <point x="115" y="-205"/>
      <point x="156" y="-220"/>
      <point x="216" y="-220" type="curve" smooth="yes"/>
    </contour>
    <contour>
      <point x="290" y="0" type="move" name="_ogonek"/>
    </contour>
  </outline>
</glyph>
<glyph name="tilde" format="1">
  <advance width="457"/>
  <unicode hex="02DC"/>
  <outline>
    <contour>
      <point x="147" y="563" type="line"/>
      <point x="147" y="591"/>
      <point x="153" y="604"/>
      <point x="170" y="604" type="curve" smooth="yes"/>
      <point x="200" y="604"/>
      <point x="250" y="565"/>
      <point x="300" y="565" type="curve" smooth="yes"/>
      <point x="352" y="565"/>
      <point x="386" y="602"/>
      <point x="386" y="699" type="curve"/>
      <point x="302" y="699" type="line"/>
      <point x="302" y="672"/>
      <point x="296" y="659"/>
      <point x="275" y="659" type="curve" smooth="yes"/>
      <point x="241" y="659"/>
      <point x="195" y="698"/>
      <point x="144" y="698" type="curve" smooth="yes"/>
      <point x="92" y="698"/>
      <point x="64" y="667"/>
      <point x="64" y="564" type="curve"/>
    </contour>
    <contour>
      <point x="229" y="490" type="move" name="_top"/>
    </contour>
  </outline>
</glyph>
<glyph name="hungarumlaut" format="1">
  <advance width="459"/>
  <unicode hex="02DD"/>
  <outline>
    <contour>
      <point x="69" y="551" type="line"/>
      <point x="130" y="718" type="line"/>
      <point x="262" y="717" type="line"/>
      <point x="167" y="551" type="line"/>
    </contour>
    <contour>
      <point x="242" y="551" type="line"/>
      <point x="308" y="718" type="line"/>
      <point x="443" y="717" type="line"/>
      <point x="340" y="551" type="line"/>
    </contour>
    <contour>
      <point x="204" y="490" type="move" name="_top"/>
    </contour>
  </outline>
</glyph>
<glyph name="pi" format="1">
  <advance width="530"/>
  <unicode hex="03C0"/>
  <outline>
    <contour>
      <point x="210" y="0" type="line"/>
      <point x="210" y="390" type="line"/>
      <point x="200" y="380" type="line"/>
      <point x="330" y="380" type="line"/>
      <point x="320" y="390" type="line"/>
      <point x="320" y="0" type="line"/>
      <point x="462" y="0" type="line"/>
      <point x="462" y="390" type="line"/>
      <point x="452" y="380" type="line"/>
      <point x="517" y="380" type="line"/>
      <point x="517" y="490" type="line"/>
      <point x="13" y="490" type="line"/>
      <point x="13" y="380" type="line"/>
      <point x="78" y="380" type="line"/>
      <point x="68" y="390" type="line"/>
      <point x="68" y="0" type="line"/>
    </contour>
  </outline>
</glyph>
<glyph name="si_Ae" format="1">
  <advance width="804"/>
  <unicode hex="0D87"/>
  <note>
	si_Ae
  </note>
  <outline>
    <contour>
      <point x="270" y="107" type="line"/>
      <point x="163" y="107" type="line" smooth="yes"/>
      <point x="152" y="107"/>
      <point x="146" y="114"/>
      <point x="146" y="128" type="curve" smooth="yes"/>
      <point x="146" y="228" type="line" smooth="yes"/>
      <point x="146" y="248"/>
      <point x="149" y="253"/>
      <point x="169" y="253" type="curve" smooth="yes"/>
      <point x="241" y="253" type="line"/>
      <point x="241" y="431" type="line" smooth="yes"/>
      <point x="241" y="474"/>
      <point x="212" y="497"/>
      <point x="169" y="497" type="curve" smooth="yes"/>
      <point x="22" y="497" type="line"/>
      <point x="22" y="394" type="line"/>
      <point x="129" y="394" type="line" smooth="yes"/>
      <point x="145" y="394"/>
      <point x="150" y="392"/>
      <point x="150" y="377" type="curve" smooth="yes"/>
      <point x="150" y="355" type="line"/>
      <point x="77" y="355" type="line" smooth="yes"/>
      <point x="40" y="355"/>
      <point x="22" y="336"/>
      <point x="22" y="299" type="curve" smooth="yes"/>
      <point x="22" y="51" type="line" smooth="yes"/>
      <point x="22" y="14"/>
      <point x="33" y="0"/>
      <point x="70" y="0" type="curve" smooth="yes"/>
      <point x="270" y="0" type="line"/>
      <point x="270" y="-140" type="line"/>
      <point x="394" y="-140" type="line"/>
      <point x="394" y="0" type="line"/>
      <point x="511" y="0" type="line"/>
      <point x="511" y="107" type="line"/>
      <point x="394" y="107" type="line"/>
      <point x="394" y="171" type="line"/>
      <point x="463" y="171" type="line" smooth="yes"/>
      <point x="496" y="171"/>
      <point x="513" y="190"/>
      <point x="513" y="224" type="curve" smooth="yes"/>
      <point x="513" y="322" type="line" smooth="yes"/>
      <point x="513" y="376"/>
      <point x="467" y="395"/>
      <point x="467" y="409" type="curve" smooth="yes"/>
      <point x="467" y="412"/>
      <point x="469" y="419"/>
      <point x="480" y="419" type="curve" smooth="yes"/>
      <point x="516" y="419" type="line"/>
      <point x="516" y="497" type="line"/>
      <point x="332" y="497" type="line" smooth="yes"/>
      <point x="300" y="497"/>
      <point x="270" y="472"/>
      <point x="270" y="429" type="curve" smooth="yes"/>
    </contour>
    <contour>
      <point x="393" y="265" type="line"/>
      <point x="393" y="376" type="line" smooth="yes"/>
      <point x="393" y="393"/>
      <point x="400" y="398"/>
      <point x="409" y="400" type="curve"/>
      <point x="407" y="398"/>
      <point x="407" y="395"/>
      <point x="407" y="392" type="curve" smooth="yes"/>
      <point x="407" y="376"/>
      <point x="428" y="358"/>
      <point x="428" y="329" type="curve" smooth="yes"/>
      <point x="428" y="286" type="line" smooth="yes"/>
      <point x="428" y="270"/>
      <point x="426" y="265"/>
      <point x="410" y="265" type="curve" smooth="yes"/>
    </contour>
    <contour>
      <point x="566" y="497" type="line"/>
      <point x="566" y="394" type="line"/>
      <point x="642" y="394" type="line"/>
      <point x="580" y="256" type="line" smooth="yes"/>
      <point x="570" y="234"/>
      <point x="566" y="213"/>
      <point x="566" y="184" type="curve" smooth="yes"/>
      <point x="566" y="36" type="line" smooth="yes"/>
      <point x="566" y="12"/>
      <point x="580" y="0"/>
      <point x="601" y="0" type="curve" smooth="yes"/>
      <point x="764" y="0" type="line"/>
      <point x="764" y="107" type="line"/>
      <point x="710" y="107" type="line" smooth="yes"/>
      <point x="697" y="107"/>
      <point x="690" y="113"/>
      <point x="690" y="126" type="curve" smooth="yes"/>
      <point x="690" y="178" type="line" smooth="yes"/>
      <point x="690" y="197"/>
      <point x="692" y="213"/>
      <point x="698" y="227" type="curve" smooth="yes"/>
      <point x="764" y="388" type="line"/>
      <point x="764" y="497" type="line"/>
    </contour>
  </outline>
</glyph>
<glyph name="si_Aae" format="1">
  <advance width="800"/>
  <unicode hex="0D88"/>
  <note>
	si_Aae
  </note>
  <outline>
    <contour>
      <point x="563" y="497" type="line"/>
      <point x="563" y="395" type="line"/>
      <point x="624" y="395" type="line"/>
      <point x="563" y="353" type="line"/>
      <point x="563" y="264" type="line"/>
      <point x="631" y="264" type="line"/>
      <point x="583" y="216" type="line"/>
      <point x="566" y="198"/>
      <point x="563" y="181"/>
      <point x="563" y="156" type="curve" smooth="yes"/>
      <point x="563" y="36" type="line" smooth="yes"/>
      <point x="563" y="12"/>
      <point x="573" y="0"/>
      <point x="593" y="0" type="curve" smooth="yes"/>
      <point x="759" y="0" type="line"/>
      <point x="759" y="107" type="line"/>
      <point x="704" y="107" type="line" smooth="yes"/>
      <point x="687" y="107"/>
      <point x="687" y="109"/>
      <point x="687" y="126" type="curve" smooth="yes"/>
      <point x="687" y="156" type="line" smooth="yes"/>
      <point x="687" y="175"/>
      <point x="689" y="188"/>
      <point x="702" y="204" type="curve"/>
      <point x="759" y="271" type="line"/>
      <point x="759" y="356" type="line"/>
      <point x="686" y="356" type="line"/>
      <point x="759" y="400" type="line"/>
      <point x="759" y="497" type="line"/>
    </contour>
    <contour>
      <point x="270" y="107" type="line"/>
      <point x="163" y="107" type="line" smooth="yes"/>
      <point x="152" y="107"/>
      <point x="146" y="114"/>
      <point x="146" y="128" type="curve" smooth="yes"/>
      <point x="146" y="228" type="line" smooth="yes"/>
      <point x="146" y="248"/>
      <point x="149" y="253"/>
      <point x="169" y="253" type="curve" smooth="yes"/>
      <point x="241" y="253" type="line"/>
      <point x="241" y="431" type="line" smooth="yes"/>
      <point x="241" y="474"/>
      <point x="212" y="497"/>
      <point x="169" y="497" type="curve" smooth="yes"/>
      <point x="22" y="497" type="line"/>
      <point x="22" y="394" type="line"/>
      <point x="129" y="394" type="line" smooth="yes"/>
      <point x="145" y="394"/>
      <point x="150" y="392"/>
      <point x="150" y="377" type="curve" smooth="yes"/>
      <point x="150" y="355" type="line"/>
      <point x="77" y="355" type="line" smooth="yes"/>
      <point x="40" y="355"/>
      <point x="22" y="336"/>
      <point x="22" y="299" type="curve" smooth="yes"/>
      <point x="22" y="51" type="line" smooth="yes"/>
      <point x="22" y="14"/>
      <point x="33" y="0"/>
      <point x="70" y="0" type="curve" smooth="yes"/>
      <point x="270" y="0" type="line"/>
      <point x="270" y="-140" type="line"/>
      <point x="394" y="-140" type="line"/>
      <point x="394" y="0" type="line"/>
      <point x="511" y="0" type="line"/>
      <point x="511" y="107" type="line"/>
      <point x="394" y="107" type="line"/>
      <point x="394" y="171" type="line"/>
      <point x="463" y="171" type="line" smooth="yes"/>
      <point x="496" y="171"/>
      <point x="513" y="190"/>
      <point x="513" y="224" type="curve" smooth="yes"/>
      <point x="513" y="322" type="line" smooth="yes"/>
      <point x="513" y="376"/>
      <point x="467" y="395"/>
      <point x="467" y="409" type="curve" smooth="yes"/>
      <point x="467" y="412"/>
      <point x="469" y="419"/>
      <point x="480" y="419" type="curve" smooth="yes"/>
      <point x="516" y="419" type="line"/>
      <point x="516" y="497" type="line"/>
      <point x="332" y="497" type="line" smooth="yes"/>
      <point x="300" y="497"/>
      <point x="270" y="472"/>
      <point x="270" y="429" type="curve" smooth="yes"/>
    </contour>
    <contour>
      <point x="393" y="265" type="line"/>
      <point x="393" y="376" type="line" smooth="yes"/>
      <point x="393" y="393"/>
      <point x="400" y="398"/>
      <point x="409" y="400" type="curve"/>
      <point x="407" y="398"/>
      <point x="407" y="395"/>
      <point x="407" y="392" type="curve" smooth="yes"/>
      <point x="407" y="376"/>
      <point x="428" y="358"/>
      <point x="428" y="329" type="curve" smooth="yes"/>
      <point x="428" y="286" type="line" smooth="yes"/>
      <point x="428" y="270"/>
      <point x="426" y="265"/>
      <point x="410" y="265" type="curve" smooth="yes"/>
    </contour>
  </outline>
</glyph>
<glyph name="si_I" format="1">
  <advance width="519"/>
  <unicode hex="0D89"/>
  <note>
	si_I
  </note>
  <outline>
    <contour>
      <point x="311" y="346" type="line"/>
      <point x="199" y="346" type="line"/>
      <point x="199" y="277" type="line" smooth="yes"/>
      <point x="199" y="261"/>
      <point x="197" y="257"/>
      <point x="182" y="257" type="curve" smooth="yes"/>
      <point x="162" y="257" type="line" smooth="yes"/>
      <point x="149" y="257"/>
      <point x="146" y="262"/>
      <point x="146" y="277" type="curve" smooth="yes"/>
      <point x="146" y="376" type="line" smooth="yes"/>
      <point x="146" y="388"/>
      <point x="153" y="394"/>
      <point x="168" y="394" type="curve" smooth="yes"/>
      <point x="347" y="394" type="line" smooth="yes"/>
      <point x="359" y="394"/>
      <point x="365" y="387"/>
      <point x="365" y="374" type="curve" smooth="yes"/>
      <point x="365" y="138" type="line" smooth="yes"/>
      <point x="365" y="117"/>
      <point x="354" y="107"/>
      <point x="332" y="107" type="curve" smooth="yes"/>
      <point x="47" y="107" type="line"/>
      <point x="47" y="0" type="line"/>
      <point x="324" y="0" type="line" smooth="yes"/>
      <point x="344" y="0"/>
      <point x="348" y="-4"/>
      <point x="348" y="-13" type="curve" smooth="yes"/>
      <point x="348" y="-37" type="line" smooth="yes"/>
      <point x="348" y="-50"/>
      <point x="344" y="-50"/>
      <point x="324" y="-50" type="curve" smooth="yes"/>
      <point x="46" y="-50" type="line"/>
      <point x="46" y="-159" type="line"/>
      <point x="416" y="-159" type="line" smooth="yes"/>
      <point x="455" y="-159"/>
      <point x="472" y="-142"/>
      <point x="472" y="-99" type="curve" smooth="yes"/>
      <point x="472" y="10" type="line" smooth="yes"/>
      <point x="472" y="34"/>
      <point x="460" y="49"/>
      <point x="444" y="60" type="curve"/>
      <point x="466" y="66"/>
      <point x="489" y="83"/>
      <point x="489" y="123" type="curve" smooth="yes"/>
      <point x="489" y="442" type="line" smooth="yes"/>
      <point x="489" y="475"/>
      <point x="472" y="497"/>
      <point x="428" y="497" type="curve" smooth="yes"/>
      <point x="83" y="497" type="line" smooth="yes"/>
      <point x="44" y="497"/>
      <point x="22" y="476"/>
      <point x="22" y="442" type="curve" smooth="yes"/>
      <point x="22" y="210" type="line" smooth="yes"/>
      <point x="22" y="173"/>
      <point x="41" y="156"/>
      <point x="78" y="156" type="curve" smooth="yes"/>
      <point x="258" y="156" type="line" smooth="yes"/>
      <point x="291" y="156"/>
      <point x="311" y="172"/>
      <point x="311" y="206" type="curve" smooth="yes"/>
    </contour>
  </outline>
</glyph>
<glyph name="si_Ii" format="1">
  <advance width="451"/>
  <unicode hex="0D8A"/>
  <note>
	si_Ii
  </note>
  <outline>
    <contour>
      <point x="22" y="430" type="line" smooth="yes"/>
      <point x="22" y="453"/>
      <point x="39" y="474"/>
      <point x="63" y="498" type="curve" smooth="yes"/>
      <point x="222" y="663" type="line"/>
      <point x="365" y="663" type="line"/>
      <point x="212" y="497" type="line"/>
      <point x="360" y="497" type="line" smooth="yes"/>
      <point x="403" y="497"/>
      <point x="421" y="474"/>
      <point x="421" y="438" type="curve" smooth="yes"/>
      <point x="421" y="61" type="line" smooth="yes"/>
      <point x="421" y="32"/>
      <point x="417" y="0"/>
      <point x="366" y="0" type="curve" smooth="yes"/>
      <point x="68" y="0" type="line" smooth="yes"/>
      <point x="38" y="0"/>
      <point x="22" y="12"/>
      <point x="22" y="48" type="curve" smooth="yes"/>
    </contour>
    <contour>
      <point x="146" y="367"/>
      <point x="146" y="130"/>
      <point x="146" y="130" type="curve" smooth="yes"/>
      <point x="146" y="113"/>
      <point x="146" y="107"/>
      <point x="170" y="107" type="curve" smooth="yes"/>
      <point x="272" y="107" type="line" smooth="yes"/>
      <point x="295" y="107"/>
      <point x="297" y="110"/>
      <point x="297" y="133" type="curve" smooth="yes"/>
      <point x="297" y="372" type="line" smooth="yes"/>
      <point x="297" y="391"/>
      <point x="293" y="394"/>
      <point x="272" y="394" type="curve" smooth="yes"/>
      <point x="171" y="394" type="line" smooth="yes"/>
      <point x="149" y="394"/>
      <point x="146" y="389"/>
      <point x="146" y="367" type="curve"/>
    </contour>
    <contour>
      <point x="22" y="663" type="line"/>
      <point x="22" y="569" type="line"/>
      <point x="124" y="569" type="line"/>
      <point x="124" y="663" type="line"/>
    </contour>
    <contour>
      <point x="333" y="612" type="line"/>
      <point x="333" y="518" type="line"/>
      <point x="435" y="518" type="line"/>
      <point x="435" y="612" type="line"/>
    </contour>
    <contour>
      <point x="51" y="641" type="line"/>
      <point x="95" y="641" type="line"/>
      <point x="95" y="590" type="line"/>
      <point x="51" y="590" type="line"/>
    </contour>
    <contour>
      <point x="362" y="590" type="line"/>
      <point x="406" y="590" type="line"/>
      <point x="406" y="539" type="line"/>
      <point x="362" y="539" type="line"/>
    </contour>
  </outline>
</glyph>
<glyph name="si_U" format="1">
  <advance width="521"/>
  <unicode hex="0D8B"/>
  <note>
	si_U
  </note>
  <outline>
    <contour>
      <point x="93" y="497" type="line"/>
      <point x="93" y="394" type="line"/>
      <point x="352" y="394" type="line" smooth="yes"/>
      <point x="364" y="394"/>
      <point x="367" y="388"/>
      <point x="367" y="379" type="curve" smooth="yes"/>
      <point x="367" y="355" type="line"/>
      <point x="96" y="355" type="line" smooth="yes"/>
      <point x="47" y="355"/>
      <point x="22" y="331"/>
      <point x="22" y="283" type="curve" smooth="yes"/>
      <point x="22" y="-86" type="line" smooth="yes"/>
      <point x="22" y="-123"/>
      <point x="34" y="-153"/>
      <point x="76" y="-153" type="curve" smooth="yes"/>
      <point x="435" y="-153" type="line" smooth="yes"/>
      <point x="474" y="-153"/>
      <point x="494" y="-138"/>
      <point x="494" y="-92" type="curve" smooth="yes"/>
      <point x="494" y="98" type="line"/>
      <point x="370" y="98" type="line"/>
      <point x="370" y="-23" type="line" smooth="yes"/>
      <point x="370" y="-36"/>
      <point x="368" y="-43"/>
      <point x="351" y="-43" type="curve" smooth="yes"/>
      <point x="168" y="-43" type="line" smooth="yes"/>
      <point x="149" y="-43"/>
      <point x="146" y="-39"/>
      <point x="146" y="-20" type="curve" smooth="yes"/>
      <point x="146" y="222" type="line" smooth="yes"/>
      <point x="146" y="250"/>
      <point x="149" y="253"/>
      <point x="177" y="253" type="curve" smooth="yes"/>
      <point x="491" y="253" type="line"/>
      <point x="491" y="438" type="line" smooth="yes"/>
      <point x="491" y="478"/>
      <point x="467" y="497"/>
      <point x="426" y="497" type="curve" smooth="yes"/>
    </contour>
  </outline>
</glyph>
<glyph name="si_Uu" format="1">
  <advance width="919"/>
  <unicode hex="0D8C"/>
  <note>
	si_Uu
  </note>
  <outline>
    <contour>
      <point x="572" y="497" type="line"/>
      <point x="643" y="497" type="line"/>
      <point x="643" y="359" type="line" smooth="yes"/>
      <point x="643" y="342"/>
      <point x="644" y="337"/>
      <point x="652" y="337" type="curve" smooth="yes"/>
      <point x="667" y="337" type="line" smooth="yes"/>
      <point x="677" y="337"/>
      <point x="677" y="345"/>
      <point x="677" y="361" type="curve" smooth="yes"/>
      <point x="677" y="457" type="line" smooth="yes"/>
      <point x="677" y="485"/>
      <point x="691" y="497"/>
      <point x="714" y="497" type="curve" smooth="yes"/>
      <point x="836" y="497" type="line" smooth="yes"/>
      <point x="862" y="497"/>
      <point x="878" y="478"/>
      <point x="878" y="456" type="curve" smooth="yes"/>
      <point x="878" y="46" type="line" smooth="yes"/>
      <point x="878" y="17"/>
      <point x="859" y="0"/>
      <point x="830" y="0" type="curve" smooth="yes"/>
      <point x="612" y="0" type="line" smooth="yes"/>
      <point x="588" y="0"/>
      <point x="572" y="16"/>
      <point x="572" y="47" type="curve" smooth="yes"/>
      <point x="572" y="172" type="line"/>
      <point x="696" y="172" type="line"/>
      <point x="696" y="124" type="line" smooth="yes"/>
      <point x="696" y="110"/>
      <point x="697" y="107"/>
      <point x="711" y="107" type="curve" smooth="yes"/>
      <point x="742" y="107" type="line" smooth="yes"/>
      <point x="752" y="107"/>
      <point x="753" y="112"/>
      <point x="753" y="124" type="curve" smooth="yes"/>
      <point x="753" y="380" type="line" smooth="yes"/>
      <point x="753" y="390"/>
      <point x="750" y="394"/>
      <point x="744" y="394" type="curve" smooth="yes"/>
      <point x="730" y="394" type="line" smooth="yes"/>
      <point x="723" y="394"/>
      <point x="720" y="389"/>
      <point x="720" y="378" type="curve" smooth="yes"/>
      <point x="720" y="270" type="line" smooth="yes"/>
      <point x="720" y="243"/>
      <point x="704" y="235"/>
      <point x="678" y="235" type="curve" smooth="yes"/>
      <point x="605" y="235" type="line" smooth="yes"/>
      <point x="585" y="235"/>
      <point x="572" y="245"/>
      <point x="572" y="268" type="curve" smooth="yes"/>
    </contour>
    <contour>
      <point x="93" y="497" type="line"/>
      <point x="93" y="394" type="line"/>
      <point x="352" y="394" type="line" smooth="yes"/>
      <point x="364" y="394"/>
      <point x="367" y="388"/>
      <point x="367" y="379" type="curve" smooth="yes"/>
      <point x="367" y="355" type="line"/>
      <point x="96" y="355" type="line" smooth="yes"/>
      <point x="47" y="355"/>
      <point x="22" y="331"/>
      <point x="22" y="283" type="curve" smooth="yes"/>
      <point x="22" y="-86" type="line" smooth="yes"/>
      <point x="22" y="-123"/>
      <point x="34" y="-153"/>
      <point x="76" y="-153" type="curve" smooth="yes"/>
      <point x="435" y="-153" type="line" smooth="yes"/>
      <point x="474" y="-153"/>
      <point x="494" y="-138"/>
      <point x="494" y="-92" type="curve" smooth="yes"/>
      <point x="494" y="98" type="line"/>
      <point x="370" y="98" type="line"/>
      <point x="370" y="-23" type="line" smooth="yes"/>
      <point x="370" y="-36"/>
      <point x="368" y="-43"/>
      <point x="351" y="-43" type="curve" smooth="yes"/>
      <point x="168" y="-43" type="line" smooth="yes"/>
      <point x="149" y="-43"/>
      <point x="146" y="-39"/>
      <point x="146" y="-20" type="curve" smooth="yes"/>
      <point x="146" y="222" type="line" smooth="yes"/>
      <point x="146" y="250"/>
      <point x="149" y="253"/>
      <point x="177" y="253" type="curve" smooth="yes"/>
      <point x="491" y="253" type="line"/>
      <point x="491" y="438" type="line" smooth="yes"/>
      <point x="491" y="478"/>
      <point x="467" y="497"/>
      <point x="426" y="497" type="curve" smooth="yes"/>
    </contour>
  </outline>
</glyph>
<glyph name="si_vocalicR" format="1">
  <advance width="909"/>
  <unicode hex="0D8D"/>
  <note>
	si_vocalicR
  </note>
  <outline>
    <contour>
      <point x="278" y="20"/>
      <point x="304" y="0"/>
      <point x="331" y="0" type="curve" smooth="yes"/>
      <point x="484" y="0" type="line" smooth="yes"/>
      <point x="521" y="0"/>
      <point x="534" y="16"/>
      <point x="534" y="54" type="curve" smooth="yes"/>
      <point x="534" y="296" type="line" smooth="yes"/>
      <point x="534" y="339"/>
      <point x="514" y="356"/>
      <point x="470" y="356" type="curve" smooth="yes"/>
      <point x="388" y="356" type="line"/>
      <point x="388" y="379" type="line" smooth="yes"/>
      <point x="388" y="389"/>
      <point x="395" y="394"/>
      <point x="409" y="394" type="curve" smooth="yes"/>
      <point x="533" y="394" type="line"/>
      <point x="533" y="497" type="line"/>
      <point x="364" y="497" type="line" smooth="yes"/>
      <point x="325" y="497"/>
      <point x="292" y="481"/>
      <point x="292" y="443" type="curve" smooth="yes"/>
      <point x="292" y="253" type="line"/>
      <point x="387" y="253" type="line" smooth="yes"/>
      <point x="402" y="253"/>
      <point x="410" y="247"/>
      <point x="410" y="236" type="curve" smooth="yes"/>
      <point x="410" y="130" type="line" smooth="yes"/>
      <point x="410" y="115"/>
      <point x="404" y="107"/>
      <point x="392" y="107" type="curve" smooth="yes"/>
      <point x="361" y="107" type="line" smooth="yes"/>
      <point x="343" y="107"/>
      <point x="334" y="116"/>
      <point x="334" y="133" type="curve" smooth="yes"/>
      <point x="334" y="190" type="line"/>
      <point x="222" y="190" type="line"/>
      <point x="222" y="133" type="line" smooth="yes"/>
      <point x="222" y="116"/>
      <point x="213" y="107"/>
      <point x="195" y="107" type="curve" smooth="yes"/>
      <point x="164" y="107" type="line" smooth="yes"/>
      <point x="152" y="107"/>
      <point x="146" y="115"/>
      <point x="146" y="130" type="curve" smooth="yes"/>
      <point x="146" y="236" type="line" smooth="yes"/>
      <point x="146" y="247"/>
      <point x="154" y="253"/>
      <point x="169" y="253" type="curve" smooth="yes"/>
      <point x="264" y="253" type="line"/>
      <point x="264" y="443" type="line" smooth="yes"/>
      <point x="264" y="481"/>
      <point x="231" y="497"/>
      <point x="192" y="497" type="curve" smooth="yes"/>
      <point x="23" y="497" type="line"/>
      <point x="23" y="394" type="line"/>
      <point x="147" y="394" type="line" smooth="yes"/>
      <point x="161" y="394"/>
      <point x="168" y="389"/>
      <point x="168" y="379" type="curve" smooth="yes"/>
      <point x="168" y="356" type="line"/>
      <point x="86" y="356" type="line" smooth="yes"/>
      <point x="42" y="356"/>
      <point x="22" y="339"/>
      <point x="22" y="296" type="curve" smooth="yes"/>
      <point x="22" y="54" type="line" smooth="yes"/>
      <point x="22" y="16"/>
      <point x="35" y="0"/>
      <point x="72" y="0" type="curve" smooth="yes"/>
      <point x="225" y="0" type="line" smooth="yes"/>
      <point x="252" y="0"/>
      <point x="278" y="20"/>
      <point x="278" y="46" type="curve"/>
    </contour>
    <contour>
      <point x="585" y="497" type="line"/>
      <point x="585" y="394" type="line"/>
      <point x="734" y="394" type="line" smooth="yes"/>
      <point x="754" y="394"/>
      <point x="755" y="392"/>
      <point x="755" y="372" type="curve" smooth="yes"/>
      <point x="755" y="323" type="line"/>
      <point x="627" y="323" type="line" smooth="yes"/>
      <point x="605" y="323"/>
      <point x="585" y="310"/>
      <point x="585" y="280" type="curve" smooth="yes"/>
      <point x="585" y="42" type="line" smooth="yes"/>
      <point x="585" y="14"/>
      <point x="597" y="0"/>
      <point x="622" y="0" type="curve" smooth="yes"/>
      <point x="715" y="0" type="line" smooth="yes"/>
      <point x="739" y="0"/>
      <point x="753" y="16"/>
      <point x="763" y="40" type="curve"/>
      <point x="776" y="0" type="line"/>
      <point x="879" y="0" type="line"/>
      <point x="879" y="450" type="line" smooth="yes"/>
      <point x="879" y="481"/>
      <point x="863" y="497"/>
      <point x="830" y="497" type="curve" smooth="yes"/>
    </contour>
    <contour>
      <point x="755" y="224" type="line"/>
      <point x="755" y="134" type="line" smooth="yes"/>
      <point x="755" y="121"/>
      <point x="749" y="107"/>
      <point x="736" y="107" type="curve" smooth="yes"/>
      <point x="724" y="107" type="line" smooth="yes"/>
      <point x="711" y="107"/>
      <point x="709" y="111"/>
      <point x="709" y="123" type="curve" smooth="yes"/>
      <point x="709" y="208" type="line" smooth="yes"/>
      <point x="709" y="220"/>
      <point x="713" y="224"/>
      <point x="723" y="224" type="curve" smooth="yes"/>
    </contour>
  </outline>
</glyph>
<glyph name="si_vocalicRr" format="1">
  <advance width="1243"/>
  <unicode hex="0D8E"/>
  <note>
	si_vocalicRr
  </note>
  <outline>
    <contour>
      <point x="278" y="20"/>
      <point x="304" y="0"/>
      <point x="331" y="0" type="curve" smooth="yes"/>
      <point x="484" y="0" type="line" smooth="yes"/>
      <point x="521" y="0"/>
      <point x="534" y="16"/>
      <point x="534" y="54" type="curve" smooth="yes"/>
      <point x="534" y="296" type="line" smooth="yes"/>
      <point x="534" y="339"/>
      <point x="514" y="356"/>
      <point x="470" y="356" type="curve" smooth="yes"/>
      <point x="388" y="356" type="line"/>
      <point x="388" y="379" type="line" smooth="yes"/>
      <point x="388" y="389"/>
      <point x="395" y="394"/>
      <point x="409" y="394" type="curve" smooth="yes"/>
      <point x="533" y="394" type="line"/>
      <point x="533" y="497" type="line"/>
      <point x="364" y="497" type="line" smooth="yes"/>
      <point x="325" y="497"/>
      <point x="292" y="481"/>
      <point x="292" y="443" type="curve" smooth="yes"/>
      <point x="292" y="253" type="line"/>
      <point x="387" y="253" type="line" smooth="yes"/>
      <point x="402" y="253"/>
      <point x="410" y="247"/>
      <point x="410" y="236" type="curve" smooth="yes"/>
      <point x="410" y="130" type="line" smooth="yes"/>
      <point x="410" y="115"/>
      <point x="404" y="107"/>
      <point x="392" y="107" type="curve" smooth="yes"/>
      <point x="361" y="107" type="line" smooth="yes"/>
      <point x="343" y="107"/>
      <point x="334" y="116"/>
      <point x="334" y="133" type="curve" smooth="yes"/>
      <point x="334" y="190" type="line"/>
      <point x="222" y="190" type="line"/>
      <point x="222" y="133" type="line" smooth="yes"/>
      <point x="222" y="116"/>
      <point x="213" y="107"/>
      <point x="195" y="107" type="curve" smooth="yes"/>
      <point x="164" y="107" type="line" smooth="yes"/>
      <point x="152" y="107"/>
      <point x="146" y="115"/>
      <point x="146" y="130" type="curve" smooth="yes"/>
      <point x="146" y="236" type="line" smooth="yes"/>
      <point x="146" y="247"/>
      <point x="154" y="253"/>
      <point x="169" y="253" type="curve" smooth="yes"/>
      <point x="264" y="253" type="line"/>
      <point x="264" y="443" type="line" smooth="yes"/>
      <point x="264" y="481"/>
      <point x="231" y="497"/>
      <point x="192" y="497" type="curve" smooth="yes"/>
      <point x="23" y="497" type="line"/>
      <point x="23" y="394" type="line"/>
      <point x="147" y="394" type="line" smooth="yes"/>
      <point x="161" y="394"/>
      <point x="168" y="389"/>
      <point x="168" y="379" type="curve" smooth="yes"/>
      <point x="168" y="356" type="line"/>
      <point x="86" y="356" type="line" smooth="yes"/>
      <point x="42" y="356"/>
      <point x="22" y="339"/>
      <point x="22" y="296" type="curve" smooth="yes"/>
      <point x="22" y="54" type="line" smooth="yes"/>
      <point x="22" y="16"/>
      <point x="35" y="0"/>
      <point x="72" y="0" type="curve" smooth="yes"/>
      <point x="225" y="0" type="line" smooth="yes"/>
      <point x="252" y="0"/>
      <point x="278" y="20"/>
      <point x="278" y="46" type="curve"/>
    </contour>
    <contour>
      <point x="919" y="497" type="line"/>
      <point x="919" y="394" type="line"/>
      <point x="1068" y="394" type="line" smooth="yes"/>
      <point x="1088" y="394"/>
      <point x="1089" y="392"/>
      <point x="1089" y="372" type="curve" smooth="yes"/>
      <point x="1089" y="323" type="line"/>
      <point x="961" y="323" type="line" smooth="yes"/>
      <point x="938" y="323"/>
      <point x="919" y="310"/>
      <point x="919" y="280" type="curve" smooth="yes"/>
      <point x="919" y="42" type="line" smooth="yes"/>
      <point x="919" y="14"/>
      <point x="931" y="0"/>
      <point x="956" y="0" type="curve" smooth="yes"/>
      <point x="1048" y="0" type="line" smooth="yes"/>
      <point x="1072" y="0"/>
      <point x="1087" y="16"/>
      <point x="1096" y="40" type="curve"/>
      <point x="1110" y="0" type="line"/>
      <point x="1213" y="0" type="line"/>
      <point x="1213" y="450" type="line" smooth="yes"/>
      <point x="1213" y="481"/>
      <point x="1196" y="497"/>
      <point x="1164" y="497" type="curve" smooth="yes"/>
    </contour>
    <contour>
      <point x="1089" y="224" type="line"/>
      <point x="1089" y="134" type="line" smooth="yes"/>
      <point x="1089" y="121"/>
      <point x="1082" y="107"/>
      <point x="1070" y="107" type="curve" smooth="yes"/>
      <point x="1058" y="107" type="line" smooth="yes"/>
      <point x="1045" y="107"/>
      <point x="1043" y="111"/>
      <point x="1043" y="123" type="curve" smooth="yes"/>
      <point x="1043" y="208" type="line" smooth="yes"/>
      <point x="1043" y="220"/>
      <point x="1046" y="224"/>
      <point x="1056" y="224" type="curve" smooth="yes"/>
    </contour>
    <contour>
      <point x="580" y="497" type="line"/>
      <point x="580" y="394" type="line"/>
      <point x="729" y="394" type="line" smooth="yes"/>
      <point x="749" y="394"/>
      <point x="750" y="392"/>
      <point x="750" y="372" type="curve" smooth="yes"/>
      <point x="750" y="323" type="line"/>
      <point x="622" y="323" type="line" smooth="yes"/>
      <point x="599" y="323"/>
      <point x="580" y="310"/>
      <point x="580" y="280" type="curve" smooth="yes"/>
      <point x="580" y="42" type="line" smooth="yes"/>
      <point x="580" y="14"/>
      <point x="592" y="0"/>
      <point x="617" y="0" type="curve" smooth="yes"/>
      <point x="709" y="0" type="line" smooth="yes"/>
      <point x="733" y="0"/>
      <point x="748" y="16"/>
      <point x="757" y="40" type="curve"/>
      <point x="771" y="0" type="line"/>
      <point x="874" y="0" type="line"/>
      <point x="874" y="450" type="line" smooth="yes"/>
      <point x="874" y="481"/>
      <point x="857" y="497"/>
      <point x="825" y="497" type="curve" smooth="yes"/>
    </contour>
    <contour>
      <point x="750" y="224" type="line"/>
      <point x="750" y="134" type="line" smooth="yes"/>
      <point x="750" y="121"/>
      <point x="743" y="107"/>
      <point x="731" y="107" type="curve" smooth="yes"/>
      <point x="719" y="107" type="line" smooth="yes"/>
      <point x="706" y="107"/>
      <point x="704" y="111"/>
      <point x="704" y="123" type="curve" smooth="yes"/>
      <point x="704" y="208" type="line" smooth="yes"/>
      <point x="704" y="220"/>
      <point x="707" y="224"/>
      <point x="717" y="224" type="curve" smooth="yes"/>
    </contour>
  </outline>
</glyph>
<glyph name="si_vocalicLL" format="1">
  <advance width="1203"/>
  <unicode hex="0D90"/>
  <note>
	si_vocalicLL
  </note>
  <outline>
    <contour>
      <point x="786" y="497" type="line"/>
      <point x="857" y="497" type="line"/>
      <point x="857" y="359" type="line" smooth="yes"/>
      <point x="857" y="342"/>
      <point x="858" y="337"/>
      <point x="866" y="337" type="curve" smooth="yes"/>
      <point x="881" y="337" type="line" smooth="yes"/>
      <point x="891" y="337"/>
      <point x="891" y="345"/>
      <point x="891" y="361" type="curve" smooth="yes"/>
      <point x="891" y="457" type="line" smooth="yes"/>
      <point x="891" y="485"/>
      <point x="905" y="497"/>
      <point x="928" y="497" type="curve" smooth="yes"/>
      <point x="1050" y="497" type="line" smooth="yes"/>
      <point x="1076" y="497"/>
      <point x="1092" y="478"/>
      <point x="1092" y="456" type="curve" smooth="yes"/>
      <point x="1092" y="46" type="line" smooth="yes"/>
      <point x="1092" y="17"/>
      <point x="1073" y="0"/>
      <point x="1044" y="0" type="curve" smooth="yes"/>
      <point x="826" y="0" type="line" smooth="yes"/>
      <point x="802" y="0"/>
      <point x="786" y="16"/>
      <point x="786" y="47" type="curve" smooth="yes"/>
      <point x="786" y="172" type="line"/>
      <point x="910" y="172" type="line"/>
      <point x="910" y="124" type="line" smooth="yes"/>
      <point x="910" y="110"/>
      <point x="911" y="107"/>
      <point x="925" y="107" type="curve" smooth="yes"/>
      <point x="956" y="107" type="line" smooth="yes"/>
      <point x="966" y="107"/>
      <point x="967" y="112"/>
      <point x="967" y="124" type="curve" smooth="yes"/>
      <point x="967" y="380" type="line" smooth="yes"/>
      <point x="967" y="390"/>
      <point x="964" y="394"/>
      <point x="958" y="394" type="curve" smooth="yes"/>
      <point x="944" y="394" type="line" smooth="yes"/>
      <point x="937" y="394"/>
      <point x="934" y="389"/>
      <point x="934" y="378" type="curve" smooth="yes"/>
      <point x="934" y="270" type="line" smooth="yes"/>
      <point x="934" y="243"/>
      <point x="918" y="235"/>
      <point x="892" y="235" type="curve" smooth="yes"/>
      <point x="819" y="235" type="line" smooth="yes"/>
      <point x="799" y="235"/>
      <point x="786" y="245"/>
      <point x="786" y="268" type="curve" smooth="yes"/>
    </contour>
  </outline>
</glyph>
<glyph name="si_E" format="1">
  <advance width="534"/>
  <unicode hex="0D91"/>
  <note>
	si_E
  </note>
  <outline>
    <contour>
      <point x="241" y="576" type="line"/>
      <point x="243" y="576" type="line" smooth="yes"/>
      <point x="245" y="576"/>
      <point x="249" y="574"/>
      <point x="252" y="573" type="curve" smooth="yes"/>
      <point x="295" y="555"/>
      <point x="361" y="526"/>
      <point x="361" y="526" type="curve"/>
      <point x="368" y="523"/>
      <point x="377" y="519"/>
      <point x="377" y="511" type="curve" smooth="yes"/>
      <point x="377" y="509" type="line"/>
      <point x="263" y="509" type="line" smooth="yes"/>
      <point x="249" y="509"/>
      <point x="241" y="509"/>
      <point x="241" y="527" type="curve" smooth="yes"/>
    </contour>
    <contour>
      <point x="504" y="494" type="line" smooth="yes"/>
      <point x="504" y="546"/>
      <point x="470" y="565"/>
      <point x="434" y="581" type="curve"/>
      <point x="434" y="581"/>
      <point x="288" y="645"/>
      <point x="288" y="645" type="curve"/>
      <point x="246" y="664"/>
      <point x="234" y="664"/>
      <point x="203" y="664" type="curve" smooth="yes"/>
      <point x="80" y="664" type="line"/>
      <point x="80" y="577" type="line"/>
      <point x="131" y="577" type="line"/>
      <point x="131" y="487" type="line" smooth="yes"/>
      <point x="131" y="451"/>
      <point x="144" y="440"/>
      <point x="177" y="440" type="curve" smooth="yes"/>
      <point x="379" y="440" type="line"/>
      <point x="379" y="127" type="line" smooth="yes"/>
      <point x="379" y="114"/>
      <point x="373" y="107"/>
      <point x="360" y="107" type="curve" smooth="yes"/>
      <point x="186" y="107" type="line" smooth="yes"/>
      <point x="166" y="107"/>
      <point x="162" y="114"/>
      <point x="162" y="130" type="curve" smooth="yes"/>
      <point x="162" y="159" type="line" smooth="yes"/>
      <point x="162" y="178"/>
      <point x="175" y="190"/>
      <point x="201" y="190" type="curve" smooth="yes"/>
      <point x="309" y="190" type="line"/>
      <point x="309" y="346" type="line" smooth="yes"/>
      <point x="309" y="384"/>
      <point x="290" y="407"/>
      <point x="249" y="407" type="curve" smooth="yes"/>
      <point x="41" y="407" type="line"/>
      <point x="41" y="319" type="line"/>
      <point x="171" y="319" type="line" smooth="yes"/>
      <point x="180" y="319"/>
      <point x="185" y="315"/>
      <point x="185" y="308" type="curve" smooth="yes"/>
      <point x="185" y="287" type="line"/>
      <point x="4" y="287" type="line"/>
      <point x="4" y="196" type="line"/>
      <point x="64" y="196" type="line"/>
      <point x="52" y="189"/>
      <point x="38" y="176"/>
      <point x="38" y="145" type="curve" smooth="yes"/>
      <point x="38" y="44" type="line" smooth="yes"/>
      <point x="38" y="13"/>
      <point x="56" y="0"/>
      <point x="86" y="0" type="curve" smooth="yes"/>
      <point x="458" y="0" type="line" smooth="yes"/>
      <point x="487" y="0"/>
      <point x="504" y="20"/>
      <point x="504" y="51" type="curve" smooth="yes"/>
    </contour>
  </outline>
</glyph>
<glyph name="si_Ai" format="1">
  <advance width="911"/>
  <unicode hex="0D93"/>
  <note>
	si_Ai
  </note>
  <outline>
    <contour>
      <point x="341" y="497" type="line"/>
      <point x="341" y="394" type="line"/>
      <point x="169" y="394" type="line" smooth="yes"/>
      <point x="151" y="394"/>
      <point x="146" y="389"/>
      <point x="146" y="374" type="curve" smooth="yes"/>
      <point x="146" y="126" type="line" smooth="yes"/>
      <point x="146" y="111"/>
      <point x="151" y="107"/>
      <point x="164" y="107" type="curve" smooth="yes"/>
      <point x="204" y="107" type="line" smooth="yes"/>
      <point x="216" y="107"/>
      <point x="222" y="112"/>
      <point x="222" y="126" type="curve" smooth="yes"/>
      <point x="222" y="206" type="line" smooth="yes"/>
      <point x="222" y="222"/>
      <point x="219" y="227"/>
      <point x="203" y="227" type="curve" smooth="yes"/>
      <point x="183" y="227" type="line"/>
      <point x="183" y="326" type="line"/>
      <point x="293" y="326" type="line" smooth="yes"/>
      <point x="329" y="326"/>
      <point x="346" y="308"/>
      <point x="346" y="276" type="curve" smooth="yes"/>
      <point x="346" y="49" type="line" smooth="yes"/>
      <point x="346" y="19"/>
      <point x="329" y="0"/>
      <point x="295" y="0" type="curve" smooth="yes"/>
      <point x="68" y="0" type="line" smooth="yes"/>
      <point x="36" y="0"/>
      <point x="22" y="18"/>
      <point x="22" y="46" type="curve" smooth="yes"/>
      <point x="22" y="445" type="line" smooth="yes"/>
      <point x="22" y="477"/>
      <point x="42" y="497"/>
      <point x="75" y="497" type="curve" smooth="yes"/>
    </contour>
    <contour>
      <point x="618" y="576" type="line"/>
      <point x="620" y="576" type="line" smooth="yes"/>
      <point x="622" y="576"/>
      <point x="626" y="574"/>
      <point x="629" y="573" type="curve" smooth="yes"/>
      <point x="672" y="555"/>
      <point x="738" y="526"/>
      <point x="738" y="526" type="curve"/>
      <point x="745" y="523"/>
      <point x="754" y="519"/>
      <point x="754" y="511" type="curve" smooth="yes"/>
      <point x="754" y="509" type="line"/>
      <point x="640" y="509" type="line" smooth="yes"/>
      <point x="626" y="509"/>
      <point x="618" y="509"/>
      <point x="618" y="527" type="curve" smooth="yes"/>
    </contour>
    <contour>
      <point x="881" y="494" type="line" smooth="yes"/>
      <point x="881" y="546"/>
      <point x="847" y="565"/>
      <point x="811" y="581" type="curve"/>
      <point x="811" y="581"/>
      <point x="665" y="645"/>
      <point x="665" y="645" type="curve"/>
      <point x="623" y="664"/>
      <point x="611" y="664"/>
      <point x="580" y="664" type="curve" smooth="yes"/>
      <point x="457" y="664" type="line"/>
      <point x="457" y="577" type="line"/>
      <point x="508" y="577" type="line"/>
      <point x="508" y="487" type="line" smooth="yes"/>
      <point x="508" y="451"/>
      <point x="521" y="440"/>
      <point x="554" y="440" type="curve" smooth="yes"/>
      <point x="756" y="440" type="line"/>
      <point x="756" y="127" type="line" smooth="yes"/>
      <point x="756" y="114"/>
      <point x="750" y="107"/>
      <point x="737" y="107" type="curve" smooth="yes"/>
      <point x="563" y="107" type="line" smooth="yes"/>
      <point x="543" y="107"/>
      <point x="539" y="114"/>
      <point x="539" y="130" type="curve" smooth="yes"/>
      <point x="539" y="159" type="line" smooth="yes"/>
      <point x="539" y="178"/>
      <point x="552" y="190"/>
      <point x="578" y="190" type="curve" smooth="yes"/>
      <point x="686" y="190" type="line"/>
      <point x="686" y="346" type="line" smooth="yes"/>
      <point x="686" y="384"/>
      <point x="667" y="407"/>
      <point x="626" y="407" type="curve" smooth="yes"/>
      <point x="418" y="407" type="line"/>
      <point x="418" y="319" type="line"/>
      <point x="548" y="319" type="line" smooth="yes"/>
      <point x="557" y="319"/>
      <point x="562" y="315"/>
      <point x="562" y="308" type="curve" smooth="yes"/>
      <point x="562" y="287" type="line"/>
      <point x="381" y="287" type="line"/>
      <point x="381" y="196" type="line"/>
      <point x="441" y="196" type="line"/>
      <point x="429" y="189"/>
      <point x="415" y="176"/>
      <point x="415" y="145" type="curve" smooth="yes"/>
      <point x="415" y="44" type="line" smooth="yes"/>
      <point x="415" y="13"/>
      <point x="433" y="0"/>
      <point x="463" y="0" type="curve" smooth="yes"/>
      <point x="835" y="0" type="line" smooth="yes"/>
      <point x="864" y="0"/>
      <point x="881" y="20"/>
      <point x="881" y="51" type="curve" smooth="yes"/>
    </contour>
  </outline>
</glyph>
<glyph name="si_Os" format="1">
  <advance width="515"/>
  <unicode hex="0D94"/>
  <note>
	si_Os
  </note>
  <outline>
    <contour>
      <point x="293" y="247" type="line" smooth="yes"/>
      <point x="319" y="247"/>
      <point x="332" y="259"/>
      <point x="332" y="282" type="curve" smooth="yes"/>
      <point x="332" y="459" type="line"/>
      <point x="263" y="459" type="line"/>
      <point x="263" y="358" type="line" smooth="yes"/>
      <point x="263" y="351"/>
      <point x="261" y="347"/>
      <point x="254" y="347" type="curve" smooth="yes"/>
      <point x="245" y="347" type="line" smooth="yes"/>
      <point x="237" y="347"/>
      <point x="236" y="351"/>
      <point x="236" y="359" type="curve" smooth="yes"/>
      <point x="236" y="424" type="line" smooth="yes"/>
      <point x="236" y="450"/>
      <point x="221" y="459"/>
      <point x="195" y="459" type="curve" smooth="yes"/>
      <point x="81" y="459" type="line" smooth="yes"/>
      <point x="40" y="459"/>
      <point x="22" y="433"/>
      <point x="22" y="394" type="curve" smooth="yes"/>
      <point x="22" y="48" type="line" smooth="yes"/>
      <point x="22" y="15"/>
      <point x="38" y="0"/>
      <point x="69" y="0" type="curve" smooth="yes"/>
      <point x="206" y="0" type="line" smooth="yes"/>
      <point x="229" y="0"/>
      <point x="250" y="16"/>
      <point x="253" y="37" type="curve"/>
      <point x="259" y="12"/>
      <point x="276" y="0"/>
      <point x="302" y="0" type="curve" smooth="yes"/>
      <point x="438" y="0" type="line" smooth="yes"/>
      <point x="471" y="0"/>
      <point x="485" y="20"/>
      <point x="485" y="50" type="curve" smooth="yes"/>
      <point x="485" y="560" type="line" smooth="yes"/>
      <point x="485" y="609"/>
      <point x="454" y="626"/>
      <point x="412" y="626" type="curve" smooth="yes"/>
      <point x="22" y="626" type="line"/>
      <point x="22" y="510" type="line"/>
      <point x="330" y="510" type="line" smooth="yes"/>
      <point x="354" y="510"/>
      <point x="361" y="504"/>
      <point x="361" y="479" type="curve" smooth="yes"/>
      <point x="361" y="128" type="line" smooth="yes"/>
      <point x="361" y="114"/>
      <point x="355" y="107"/>
      <point x="344" y="107" type="curve" smooth="yes"/>
      <point x="326" y="107" type="line" smooth="yes"/>
      <point x="311" y="107"/>
      <point x="303" y="116"/>
      <point x="303" y="134" type="curve" smooth="yes"/>
      <point x="303" y="198" type="line"/>
      <point x="204" y="198" type="line"/>
      <point x="204" y="132" type="line" smooth="yes"/>
      <point x="204" y="115"/>
      <point x="196" y="107"/>
      <point x="182" y="107" type="curve" smooth="yes"/>
      <point x="165" y="107" type="line" smooth="yes"/>
      <point x="152" y="107"/>
      <point x="146" y="113"/>
      <point x="146" y="126" type="curve" smooth="yes"/>
      <point x="146" y="346" type="line" smooth="yes"/>
      <point x="146" y="352"/>
      <point x="149" y="356"/>
      <point x="156" y="356" type="curve" smooth="yes"/>
      <point x="165" y="356" type="line" smooth="yes"/>
      <point x="172" y="356"/>
      <point x="174" y="352"/>
      <point x="174" y="347" type="curve" smooth="yes"/>
      <point x="174" y="277" type="line" smooth="yes"/>
      <point x="174" y="255"/>
      <point x="188" y="247"/>
      <point x="209" y="247" type="curve" smooth="yes"/>
    </contour>
  </outline>
</glyph>
<glyph name="si_Oo" format="1">
  <advance width="515"/>
  <unicode hex="0D95"/>
  <note>
	si_Oo
  </note>
  <outline>
    <contour>
      <point x="485" y="400" type="line"/>
      <point x="485" y="477" type="line" smooth="yes"/>
      <point x="485" y="534"/>
      <point x="471" y="558"/>
      <point x="416" y="558" type="curve" smooth="yes"/>
      <point x="197" y="558" type="line" smooth="yes"/>
      <point x="187" y="558"/>
      <point x="179" y="565"/>
      <point x="179" y="575" type="curve" smooth="yes"/>
      <point x="179" y="584"/>
      <point x="188" y="589"/>
      <point x="206" y="589" type="curve" smooth="yes"/>
      <point x="483" y="589" type="line"/>
      <point x="483" y="673" type="line"/>
      <point x="99" y="673" type="line" smooth="yes"/>
      <point x="66" y="673"/>
      <point x="50" y="659"/>
      <point x="50" y="632" type="curve" smooth="yes"/>
      <point x="50" y="593" type="line" smooth="yes"/>
      <point x="50" y="572"/>
      <point x="65" y="557"/>
      <point x="94" y="550" type="curve"/>
      <point x="14" y="550" type="line"/>
      <point x="14" y="464" type="line"/>
      <point x="335" y="464" type="line" smooth="yes"/>
      <point x="354" y="464"/>
      <point x="361" y="459"/>
      <point x="361" y="441" type="curve" smooth="yes"/>
      <point x="361" y="400" type="line"/>
    </contour>
    <contour>
      <point x="361" y="416" type="line"/>
      <point x="361" y="128" type="line" smooth="yes"/>
      <point x="361" y="114"/>
      <point x="355" y="107"/>
      <point x="344" y="107" type="curve" smooth="yes"/>
      <point x="326" y="107" type="line" smooth="yes"/>
      <point x="311" y="107"/>
      <point x="303" y="116"/>
      <point x="303" y="134" type="curve" smooth="yes"/>
      <point x="303" y="181" type="line"/>
      <point x="204" y="181" type="line"/>
      <point x="204" y="132" type="line" smooth="yes"/>
      <point x="204" y="115"/>
      <point x="196" y="107"/>
      <point x="182" y="107" type="curve" smooth="yes"/>
      <point x="165" y="107" type="line" smooth="yes"/>
      <point x="152" y="107"/>
      <point x="146" y="113"/>
      <point x="146" y="126" type="curve" smooth="yes"/>
      <point x="146" y="313" type="line" smooth="yes"/>
      <point x="146" y="319"/>
      <point x="149" y="323"/>
      <point x="156" y="323" type="curve" smooth="yes"/>
      <point x="165" y="323" type="line" smooth="yes"/>
      <point x="172" y="323"/>
      <point x="174" y="319"/>
      <point x="174" y="314" type="curve" smooth="yes"/>
      <point x="174" y="257" type="line" smooth="yes"/>
      <point x="174" y="235"/>
      <point x="188" y="227"/>
      <point x="209" y="227" type="curve" smooth="yes"/>
      <point x="293" y="227" type="line" smooth="yes"/>
      <point x="319" y="227"/>
      <point x="332" y="239"/>
      <point x="332" y="262" type="curve" smooth="yes"/>
      <point x="332" y="426" type="line"/>
      <point x="263" y="426" type="line"/>
      <point x="263" y="325" type="line" smooth="yes"/>
      <point x="263" y="318"/>
      <point x="261" y="314"/>
      <point x="254" y="314" type="curve" smooth="yes"/>
      <point x="245" y="314" type="line" smooth="yes"/>
      <point x="237" y="314"/>
      <point x="236" y="318"/>
      <point x="236" y="326" type="curve" smooth="yes"/>
      <point x="236" y="391" type="line" smooth="yes"/>
      <point x="236" y="417"/>
      <point x="221" y="426"/>
      <point x="195" y="426" type="curve" smooth="yes"/>
      <point x="81" y="426" type="line" smooth="yes"/>
      <point x="40" y="426"/>
      <point x="22" y="400"/>
      <point x="22" y="361" type="curve" smooth="yes"/>
      <point x="22" y="48" type="line" smooth="yes"/>
      <point x="22" y="15"/>
      <point x="38" y="0"/>
      <point x="69" y="0" type="curve" smooth="yes"/>
      <point x="206" y="0" type="line" smooth="yes"/>
      <point x="229" y="0"/>
      <point x="250" y="16"/>
      <point x="253" y="37" type="curve"/>
      <point x="259" y="12"/>
      <point x="276" y="0"/>
      <point x="302" y="0" type="curve" smooth="yes"/>
      <point x="438" y="0" type="line" smooth="yes"/>
      <point x="471" y="0"/>
      <point x="485" y="17"/>
      <point x="485" y="51" type="curve" smooth="yes"/>
      <point x="485" y="416" type="line"/>
    </contour>
  </outline>
</glyph>
<glyph name="si_Au" format="1">
  <advance width="868"/>
  <unicode hex="0D96"/>
  <note>
	si_Au
  </note>
  <outline>
    <contour>
      <point x="293" y="247" type="line" smooth="yes"/>
      <point x="319" y="247"/>
      <point x="332" y="259"/>
      <point x="332" y="282" type="curve" smooth="yes"/>
      <point x="332" y="459" type="line"/>
      <point x="263" y="459" type="line"/>
      <point x="263" y="358" type="line" smooth="yes"/>
      <point x="263" y="351"/>
      <point x="261" y="347"/>
      <point x="254" y="347" type="curve" smooth="yes"/>
      <point x="245" y="347" type="line" smooth="yes"/>
      <point x="237" y="347"/>
      <point x="236" y="351"/>
      <point x="236" y="359" type="curve" smooth="yes"/>
      <point x="236" y="424" type="line" smooth="yes"/>
      <point x="236" y="450"/>
      <point x="221" y="459"/>
      <point x="195" y="459" type="curve" smooth="yes"/>
      <point x="81" y="459" type="line" smooth="yes"/>
      <point x="40" y="459"/>
      <point x="22" y="433"/>
      <point x="22" y="394" type="curve" smooth="yes"/>
      <point x="22" y="48" type="line" smooth="yes"/>
      <point x="22" y="15"/>
      <point x="38" y="0"/>
      <point x="69" y="0" type="curve" smooth="yes"/>
      <point x="206" y="0" type="line" smooth="yes"/>
      <point x="229" y="0"/>
      <point x="250" y="16"/>
      <point x="253" y="37" type="curve"/>
      <point x="259" y="12"/>
      <point x="276" y="0"/>
      <point x="302" y="0" type="curve" smooth="yes"/>
      <point x="438" y="0" type="line" smooth="yes"/>
      <point x="471" y="0"/>
      <point x="485" y="20"/>
      <point x="485" y="50" type="curve" smooth="yes"/>
      <point x="485" y="560" type="line" smooth="yes"/>
      <point x="485" y="609"/>
      <point x="454" y="626"/>
      <point x="412" y="626" type="curve" smooth="yes"/>
      <point x="22" y="626" type="line"/>
      <point x="22" y="510" type="line"/>
      <point x="330" y="510" type="line" smooth="yes"/>
      <point x="354" y="510"/>
      <point x="361" y="504"/>
      <point x="361" y="479" type="curve" smooth="yes"/>
      <point x="361" y="128" type="line" smooth="yes"/>
      <point x="361" y="114"/>
      <point x="355" y="107"/>
      <point x="344" y="107" type="curve" smooth="yes"/>
      <point x="326" y="107" type="line" smooth="yes"/>
      <point x="311" y="107"/>
      <point x="303" y="116"/>
      <point x="303" y="134" type="curve" smooth="yes"/>
      <point x="303" y="198" type="line"/>
      <point x="204" y="198" type="line"/>
      <point x="204" y="132" type="line" smooth="yes"/>
      <point x="204" y="115"/>
      <point x="196" y="107"/>
      <point x="182" y="107" type="curve" smooth="yes"/>
      <point x="165" y="107" type="line" smooth="yes"/>
      <point x="152" y="107"/>
      <point x="146" y="113"/>
      <point x="146" y="126" type="curve" smooth="yes"/>
      <point x="146" y="346" type="line" smooth="yes"/>
      <point x="146" y="352"/>
      <point x="149" y="356"/>
      <point x="156" y="356" type="curve" smooth="yes"/>
      <point x="165" y="356" type="line" smooth="yes"/>
      <point x="172" y="356"/>
      <point x="174" y="352"/>
      <point x="174" y="347" type="curve" smooth="yes"/>
      <point x="174" y="277" type="line" smooth="yes"/>
      <point x="174" y="255"/>
      <point x="188" y="247"/>
      <point x="209" y="247" type="curve" smooth="yes"/>
    </contour>
    <contour>
      <point x="532" y="497" type="line"/>
      <point x="603" y="497" type="line"/>
      <point x="603" y="359" type="line" smooth="yes"/>
      <point x="603" y="342"/>
      <point x="604" y="337"/>
      <point x="612" y="337" type="curve" smooth="yes"/>
      <point x="627" y="337" type="line" smooth="yes"/>
      <point x="637" y="337"/>
      <point x="637" y="345"/>
      <point x="637" y="361" type="curve" smooth="yes"/>
      <point x="637" y="457" type="line" smooth="yes"/>
      <point x="637" y="485"/>
      <point x="651" y="497"/>
      <point x="674" y="497" type="curve" smooth="yes"/>
      <point x="796" y="497" type="line" smooth="yes"/>
      <point x="822" y="497"/>
      <point x="838" y="478"/>
      <point x="838" y="456" type="curve" smooth="yes"/>
      <point x="838" y="46" type="line" smooth="yes"/>
      <point x="838" y="17"/>
      <point x="819" y="0"/>
      <point x="790" y="0" type="curve" smooth="yes"/>
      <point x="572" y="0" type="line" smooth="yes"/>
      <point x="548" y="0"/>
      <point x="532" y="16"/>
      <point x="532" y="47" type="curve" smooth="yes"/>
      <point x="532" y="172" type="line"/>
      <point x="656" y="172" type="line"/>
      <point x="656" y="124" type="line" smooth="yes"/>
      <point x="656" y="110"/>
      <point x="657" y="107"/>
      <point x="671" y="107" type="curve" smooth="yes"/>
      <point x="702" y="107" type="line" smooth="yes"/>
      <point x="712" y="107"/>
      <point x="713" y="112"/>
      <point x="713" y="124" type="curve" smooth="yes"/>
      <point x="713" y="380" type="line" smooth="yes"/>
      <point x="713" y="390"/>
      <point x="710" y="394"/>
      <point x="704" y="394" type="curve" smooth="yes"/>
      <point x="690" y="394" type="line" smooth="yes"/>
      <point x="683" y="394"/>
      <point x="680" y="389"/>
      <point x="680" y="378" type="curve" smooth="yes"/>
      <point x="680" y="270" type="line" smooth="yes"/>
      <point x="680" y="243"/>
      <point x="664" y="235"/>
      <point x="638" y="235" type="curve" smooth="yes"/>
      <point x="565" y="235" type="line" smooth="yes"/>
      <point x="545" y="235"/>
      <point x="532" y="245"/>
      <point x="532" y="268" type="curve" smooth="yes"/>
    </contour>
  </outline>
</glyph>
